<svg width="40" height="40" viewBox="0 0 40 40" fill="none" xmlns="http://www.w3.org/2000/svg">
<circle cx="20" cy="20" r="19.5" stroke="white"/>
<path fill-rule="evenodd" clip-rule="evenodd" d="M19.2235 8.04576C17.8048 8.20527 16.4393 8.69525 15.4679 9.39339C15.2472 9.55199 15.06 9.68177 15.052 9.68177C15.044 9.68177 14.9765 9.58944 14.9021 9.47664C14.5452 8.93556 13.8555 8.37806 13.2491 8.14069C13.1087 8.08572 12.9856 8.04079 12.9756 8.04079C12.9501 8.04079 12.5007 9.39575 12.5219 9.40874C12.5313 9.41453 12.6789 9.48374 12.8498 9.56256C13.2041 9.72588 13.6115 10.0956 13.7617 10.3901L13.8626 10.588L13.4663 10.7437C11.9731 11.33 10.7809 12.3902 10.1017 13.7357C9.38817 15.1493 9.19932 17.1012 9.59238 18.9995C9.70537 19.545 9.70561 19.5533 9.61453 19.6725C9.21404 20.1966 9.03348 20.6749 9.00423 21.2893C8.96644 22.0829 9.1803 22.6831 9.70189 23.2476C10.2737 23.8663 10.8601 24.11 11.873 24.1496L12.5101 24.1745L12.7658 24.6293C13.2252 25.4461 14.0423 26.4196 14.7324 26.9722L14.947 27.144L14.5759 27.5383C13.7962 28.3672 13.2408 29.4433 12.9686 30.6525C12.9234 30.8531 12.882 31.3385 12.8666 31.8471L12.8407 32.7038H19.9958H27.1508L27.1249 31.8471C27.1096 31.3385 27.0681 30.8531 27.023 30.6525C26.7508 29.4433 26.1954 28.3672 25.4156 27.5383L25.0446 27.144L25.2592 26.9722C25.9493 26.4196 26.7663 25.4461 27.2257 24.6293L27.4814 24.1745L28.1186 24.1464C29.1435 24.1013 29.5934 23.9261 30.185 23.3416C30.7493 22.7841 31 22.1945 31 21.4252C31 20.806 30.7721 20.1523 30.4141 19.7446L30.2619 19.5712L30.2534 18.0894C30.2442 16.476 30.2134 16.1925 29.9332 15.1364C29.2119 12.4185 27.4076 10.3114 24.6994 9.02407C24.0662 8.7231 23.0778 8.38139 22.4179 8.23524C21.4401 8.01873 20.1465 7.94199 19.2235 8.04576ZM21.13 9.49083C22.4789 9.6448 23.7759 10.0869 24.9383 10.7891C26.8856 11.9653 28.1897 13.7756 28.6342 15.9195C28.7802 16.6235 28.8281 17.1256 28.8281 17.9503V18.7163L26.6683 18.6937C25.0224 18.6765 24.3764 18.6522 23.9534 18.5918C18.8904 17.8688 15.8603 15.3895 15.4823 11.6606L15.4505 11.3469L15.8046 11.0059C16.225 10.6012 16.4552 10.4394 16.9997 10.166C17.6946 9.81705 18.5062 9.59093 19.489 9.4724C19.8084 9.43383 20.7207 9.44412 21.13 9.49083ZM14.08 12.1553C14.0897 12.1885 14.1336 12.4111 14.1774 12.65C14.3508 13.594 14.8309 14.7539 15.3849 15.5676L15.6525 15.9605L15.3835 16.3243C14.7342 17.2023 13.8598 17.9491 12.9155 18.4322L12.3778 18.7072L11.9274 18.7093C11.6798 18.7104 11.3794 18.7302 11.26 18.7534C11.1405 18.7764 11.0361 18.7887 11.0279 18.7806C11.0197 18.7725 10.9817 18.5735 10.9434 18.3383C10.6657 16.6338 10.9326 15.0473 11.6897 13.9004C12.1554 13.1951 12.849 12.6038 13.6403 12.2375C13.9747 12.0827 14.0544 12.0678 14.08 12.1553ZM17.0625 17.3888C18.5259 18.5708 20.3742 19.3833 22.6141 19.8295L23.3743 19.9809V20.6713V21.3617H24.0982H24.8222V20.7286C24.8222 20.0957 24.8222 20.0956 24.9308 20.1247C24.9905 20.1407 25.4498 20.1541 25.9513 20.1544L26.8633 20.1551L26.8341 20.867C26.8164 21.3012 26.7681 21.7389 26.7103 21.9891C26.1539 24.4006 24.4533 26.2853 22.1422 27.0516C21.3202 27.3241 20.6817 27.4126 19.7544 27.3824C18.9337 27.3556 18.4343 27.2639 17.7007 27.0051C15.7432 26.3145 14.2022 24.7598 13.5132 22.7805C13.2433 22.0051 13.1733 21.583 13.1696 20.7101L13.1664 19.9379L13.6316 19.6966C14.7524 19.1151 15.7196 18.2962 16.4655 17.2971C16.5603 17.1701 16.6435 17.0662 16.6505 17.0662C16.6574 17.0662 16.8428 17.2114 17.0625 17.3888ZM15.1694 20.6377V21.3617H15.8933H16.6173V20.6377V19.9138H15.8933H15.1694V20.6377ZM11.7088 20.9153C11.7268 21.3988 11.7729 21.8423 11.8357 22.1339C11.9725 22.7694 11.9844 22.7319 11.6563 22.6976C11.128 22.6424 10.7521 22.3929 10.5529 21.9653C10.2396 21.2923 10.6076 20.4448 11.3067 20.2292C11.7022 20.1074 11.6773 20.065 11.7088 20.9153ZM28.6646 20.2264C29.3815 20.4393 29.7567 21.2823 29.4386 21.9653C29.2395 22.3929 28.8635 22.6424 28.3352 22.6976C28.0071 22.7319 28.0191 22.7694 28.1558 22.1339C28.2186 21.8423 28.2648 21.3988 28.2827 20.9153C28.3025 20.3805 28.3278 20.1551 28.3677 20.1551C28.3989 20.1551 28.5325 20.1872 28.6646 20.2264ZM18.2403 22.3735C17.9252 22.5561 17.6488 22.7241 17.626 22.7468C17.6032 22.7697 17.6809 22.9106 17.8004 23.0628C18.9191 24.4882 21.0717 24.4891 22.1896 23.0647C22.3074 22.9147 22.3936 22.7756 22.3813 22.7556C22.3689 22.7356 22.0861 22.5633 21.7529 22.3727C21.1488 22.0272 21.1468 22.0264 21.0742 22.1299C20.8244 22.4867 20.4466 22.679 19.9958 22.679C19.5964 22.679 19.3264 22.5612 19.0243 22.2551L18.8133 22.0414L18.2403 22.3735ZM16.8827 28.2347C17.9083 28.6558 18.8631 28.8421 19.9958 28.8421C21.1285 28.8421 22.0832 28.6558 23.1088 28.2347C23.4008 28.1148 23.6795 28.0041 23.7282 27.9886C23.7937 27.9678 23.9148 28.0603 24.1943 28.3448C24.6351 28.7933 25.0593 29.4209 25.2876 29.9624C25.4418 30.3279 25.6427 31.0166 25.6427 31.1794C25.6427 31.2487 25.1152 31.2559 19.9958 31.2559C14.8763 31.2559 14.3489 31.2487 14.3489 31.1794C14.3489 31.0043 14.5585 30.3018 14.7283 29.908C14.9762 29.3332 15.3075 28.8483 15.782 28.366C16.0713 28.072 16.2032 27.9693 16.2658 27.9892C16.3131 28.0043 16.5907 28.1148 16.8827 28.2347Z" fill="white"/>
</svg>
