<svg width="40" height="40" viewBox="0 0 40 40" fill="none" xmlns="http://www.w3.org/2000/svg">
<circle cx="20" cy="20" r="19.5" stroke="white"/>
<mask id="path-2-outside-1_0_222" maskUnits="userSpaceOnUse" x="7" y="7" width="26" height="26" fill="black">
<rect fill="white" x="7" y="7" width="26" height="26"/>
<path fill-rule="evenodd" clip-rule="evenodd" d="M13.3126 8.04124C11.929 8.21687 10.7912 8.74569 9.837 9.65661C8.66446 10.7759 8.07346 12.0736 8.00906 13.6702C7.97328 14.5575 8.03917 15.0701 8.2837 15.807C8.64979 16.9102 9.01971 17.4485 10.3237 18.7762L11.2886 19.7585L10.9139 20.1493C10.3833 20.7027 9.80095 21.5875 9.80095 21.8401C9.80095 21.8942 9.84914 21.9997 9.90801 22.0746C10.0265 22.2252 10.2049 22.2485 10.536 22.1565C11.1789 21.978 11.8162 22.704 12.2741 24.1366C12.4337 24.6358 12.7432 26.0483 12.7441 26.2811C12.7448 26.4591 13.0295 27.1104 13.3127 27.5815C14.0547 28.8161 15.0654 29.5903 16.389 29.9381C17.6556 30.2707 19.4871 30.1066 20.9962 29.5252C21.3738 29.3797 21.4713 29.3603 21.6013 29.4044C22.1341 29.5852 22.7971 30.3291 23.3595 31.3772C23.5889 31.8045 23.6564 31.8678 23.8834 31.8678C24.1084 31.8678 24.2316 31.7367 24.3324 31.3898C24.4816 30.8767 24.9439 30.3767 25.7843 29.8196C26.4839 29.3559 27.5925 28.8346 28.5601 28.5142C29.105 28.3339 29.2185 28.2384 29.2185 27.961C29.2185 27.8422 29.1784 27.7636 29.0765 27.6826C28.9427 27.5763 28.8999 27.5717 28.3406 27.6028C26.8096 27.688 25.0182 27.3422 23.5683 26.6815C23.1319 26.4826 22.3129 26.0056 22.0696 25.8087L21.9182 25.6861L22.2504 25.649C22.9659 25.569 23.7248 25.2087 24.0546 24.7923C24.3609 24.4056 24.44 24.1518 24.4409 23.5533C24.4413 23.2551 24.43 22.9547 24.4158 22.8858C24.3913 22.767 24.4162 22.7529 24.8969 22.6142C27.4938 21.8649 29.1668 20.5868 29.8418 18.8366C29.9698 18.5047 30.0782 18.3379 30.4095 17.9628C31.4325 16.8051 31.912 15.6662 31.9914 14.2061C32.1493 11.2999 30.1257 8.69704 27.2532 8.11162C25.8965 7.83518 24.3424 8.08017 23.1528 8.75814C22.5384 9.10822 22.2644 9.33911 21.0588 10.5228L19.9448 11.6164L18.8106 10.4829C18.1868 9.85946 17.5138 9.2366 17.3149 9.09882C16.6359 8.62815 15.89 8.30864 15.0685 8.13652C14.6779 8.05471 13.6472 7.99873 13.3126 8.04124ZM15.1444 8.93615C15.6602 9.0778 16.2053 9.32796 16.6853 9.64339C16.9289 9.80343 17.5287 10.3551 18.4281 11.2463C19.676 12.4828 19.8152 12.6051 19.9733 12.6051C20.1313 12.6051 20.2675 12.4859 21.4681 11.2971C22.8673 9.91167 23.2167 9.62604 23.9074 9.30276C24.5822 8.98702 25.0532 8.87944 25.8876 8.85047C26.4809 8.82987 26.7004 8.84397 27.1116 8.92897C27.6423 9.03866 28.2641 9.28272 28.7373 9.56696C29.8133 10.2134 30.6723 11.3721 31.0086 12.631C31.129 13.0818 31.1465 13.2458 31.1465 13.922C31.1465 14.5893 31.1283 14.7647 31.0149 15.1878C30.8578 15.7744 30.6474 16.2536 30.3458 16.7123C30.1734 16.9745 30.1119 17.0343 30.0713 16.9793C30.0004 16.8831 29.8145 16.7882 29.6972 16.7882C29.6443 16.7882 29.423 16.9247 29.2054 17.0915C28.7355 17.4518 28.136 17.7526 27.4627 17.9658C26.9268 18.1356 26.1344 18.3175 26.0964 18.2795C26.0833 18.2663 26.1297 18.0753 26.1997 17.855C26.6135 16.552 26.5748 14.9247 26.0951 13.4572C25.8592 12.7354 25.674 12.3906 25.4874 12.3251C25.2351 12.2367 25.0949 12.3348 24.8723 12.7553C24.5954 13.2783 24.1177 13.8744 23.4796 14.4927C22.96 14.9963 22.6439 15.2489 21.7338 15.8883C20.8345 16.52 19.8982 17.6448 19.5334 18.5316L19.3868 18.888L18.836 19.151C17.9549 19.5718 17.1351 20.2354 16.5758 20.9807L16.3943 21.2225L16.1365 20.8774C15.7835 20.405 15.0446 19.6908 14.6916 19.4811C14.0754 19.1149 13.8085 19.0365 13.1835 19.0381C12.7134 19.0394 12.5632 19.0603 12.3122 19.1594L12.0089 19.2792L11.0305 18.3048C9.92639 17.2052 9.53303 16.7199 9.22808 16.0809C8.87686 15.3451 8.7523 14.7773 8.74879 13.8962C8.74636 13.2901 8.76738 13.0616 8.85884 12.6972C9.35497 10.7219 10.8588 9.27441 12.8479 8.8576C13.3647 8.74931 14.6204 8.79227 15.1444 8.93615ZM25.4427 14.2061C25.7871 15.6101 25.7037 17.0594 25.2147 18.1651L25.0966 18.4321L24.7979 18.4694C24.6335 18.49 24.1957 18.4861 23.8248 18.4608C22.8382 18.3936 21.366 18.4166 20.8783 18.5067C20.651 18.5487 20.4567 18.5755 20.4463 18.5663C20.4175 18.5405 20.6356 18.1964 20.94 17.7878C21.3247 17.2714 21.7467 16.8932 22.6657 16.2416C23.2632 15.8179 23.6334 15.5044 24.1576 14.9784C24.541 14.5936 24.9477 14.1477 25.0613 13.9875C25.1749 13.8273 25.283 13.7122 25.3014 13.7317C25.3199 13.7511 25.3834 13.9646 25.4427 14.2061ZM29.1188 18.4045C28.5552 20.0428 26.867 21.2779 24.3383 21.902C23.3938 22.135 23.3309 22.2115 23.5385 22.8737C23.5954 23.0552 23.6406 23.3428 23.64 23.5192C23.6366 24.4664 22.894 24.8895 21.2268 24.8942C20.6645 24.8958 20.5828 24.9075 20.4909 24.9993C20.3677 25.1225 20.3548 25.3942 20.4647 25.5511C20.507 25.6115 20.7243 25.8133 20.9476 25.9995C22.3972 27.2086 24.2954 28.0458 26.2159 28.3231L26.6603 28.3872L26.1516 28.655C25.1917 29.1603 24.3136 29.8267 23.9992 30.2882C23.9301 30.3897 23.8604 30.4729 23.8443 30.4731C23.8282 30.4733 23.6897 30.2933 23.5365 30.0732C22.9584 29.2427 22.2367 28.6758 21.6103 28.56C21.3525 28.5123 21.2951 28.5208 20.9482 28.6583C19.0694 29.403 17.1584 29.4944 15.906 28.8997C14.9557 28.4484 14.3353 27.8163 13.8045 26.7588C13.6554 26.462 13.5832 26.2166 13.4852 25.6743C13.1767 23.9671 12.7952 22.9068 12.2089 22.127C11.9569 21.7918 11.5539 21.4851 11.234 21.3852C11.1275 21.3519 11.0404 21.3062 11.0404 21.2836C11.0404 21.261 11.1723 21.0946 11.3335 20.9139C12.3501 19.7746 13.304 19.5505 14.3058 20.2155C14.7158 20.4876 15.3457 21.1684 15.7811 21.81C16.1778 22.3945 16.2921 22.479 16.5586 22.3853C16.6427 22.3558 16.7525 22.2299 16.8578 22.0426C17.6318 20.6661 19.0867 19.6876 20.8783 19.3389C21.3586 19.2454 21.8432 19.2354 24.2092 19.2698C25.111 19.2829 25.3666 19.2684 25.9342 19.1717C27.1528 18.9642 28.055 18.6948 28.7796 18.322C28.9784 18.2197 29.1572 18.1348 29.177 18.1334C29.1968 18.132 29.1706 18.254 29.1188 18.4045ZM12.7962 20.6434C12.4975 20.7633 12.4055 21.0611 12.5934 21.2999C12.6904 21.4233 12.7335 21.436 13.0544 21.436C13.3753 21.436 13.4185 21.4233 13.5154 21.2999C13.6549 21.1227 13.651 20.9584 13.5033 20.7867C13.4098 20.6781 13.3288 20.6442 13.1288 20.6302C12.9885 20.6204 12.8388 20.6263 12.7962 20.6434ZM19.3806 20.851C18.9528 20.9451 18.47 21.2722 18.1784 21.6654C17.9125 22.024 17.7035 22.4404 17.7028 22.6132C17.702 22.7924 17.9234 22.9853 18.1299 22.9853C18.3295 22.9853 18.4385 22.8806 18.6248 22.51C18.8024 22.1567 19.0635 21.8744 19.3336 21.7436C19.6802 21.5758 20.0441 21.6207 20.5815 21.8973C21.0341 22.1304 21.2016 22.1386 21.3442 21.935C21.4528 21.78 21.4401 21.5073 21.3187 21.3859C21.1819 21.249 20.6843 21.0019 20.3395 20.8995C20.0779 20.8219 19.6187 20.7986 19.3806 20.851ZM20.1335 22.654C20.008 22.6996 19.8211 22.79 19.7183 22.8549C19.2636 23.142 18.6835 23.974 18.6835 24.3391C18.6835 24.6913 19.1093 24.8767 19.34 24.6249C19.3986 24.561 19.4983 24.4042 19.5618 24.2763C19.9946 23.4044 20.6286 23.1882 21.4831 23.6213C21.9383 23.852 22.145 23.8658 22.2947 23.6755C22.5405 23.3629 22.3225 23.0622 21.6426 22.7758C21.1489 22.5678 20.5122 22.5165 20.1335 22.654ZM16.6732 23.5861C16.5402 23.7552 16.5398 23.8796 16.6705 24.4249C16.8048 24.9848 17.1404 25.6393 17.3345 25.7197C17.5095 25.7922 17.7083 25.7273 17.8261 25.5592C17.9435 25.3916 17.9315 25.3106 17.7302 24.9131C17.5537 24.5642 17.3924 24.049 17.3924 23.8335C17.3924 23.7723 17.3442 23.661 17.2853 23.5861C17.2028 23.4811 17.1328 23.4501 16.9793 23.4501C16.8257 23.4501 16.7557 23.4811 16.6732 23.5861ZM14.7188 24.2076C14.5607 24.2712 14.4962 24.5209 14.5504 24.86C14.813 26.5036 16.0816 27.7468 17.9008 28.1435C18.293 28.2289 18.5285 28.0809 18.5285 27.7488C18.5285 27.5312 18.3517 27.4016 17.9103 27.2958C16.5904 26.9792 15.5805 25.9767 15.3749 24.7791C15.2995 24.3394 15.1787 24.1711 14.9433 24.1771C14.8559 24.1793 14.7549 24.1931 14.7188 24.2076Z"/>
</mask>
<path fill-rule="evenodd" clip-rule="evenodd" d="M13.3126 8.04124C11.929 8.21687 10.7912 8.74569 9.837 9.65661C8.66446 10.7759 8.07346 12.0736 8.00906 13.6702C7.97328 14.5575 8.03917 15.0701 8.2837 15.807C8.64979 16.9102 9.01971 17.4485 10.3237 18.7762L11.2886 19.7585L10.9139 20.1493C10.3833 20.7027 9.80095 21.5875 9.80095 21.8401C9.80095 21.8942 9.84914 21.9997 9.90801 22.0746C10.0265 22.2252 10.2049 22.2485 10.536 22.1565C11.1789 21.978 11.8162 22.704 12.2741 24.1366C12.4337 24.6358 12.7432 26.0483 12.7441 26.2811C12.7448 26.4591 13.0295 27.1104 13.3127 27.5815C14.0547 28.8161 15.0654 29.5903 16.389 29.9381C17.6556 30.2707 19.4871 30.1066 20.9962 29.5252C21.3738 29.3797 21.4713 29.3603 21.6013 29.4044C22.1341 29.5852 22.7971 30.3291 23.3595 31.3772C23.5889 31.8045 23.6564 31.8678 23.8834 31.8678C24.1084 31.8678 24.2316 31.7367 24.3324 31.3898C24.4816 30.8767 24.9439 30.3767 25.7843 29.8196C26.4839 29.3559 27.5925 28.8346 28.5601 28.5142C29.105 28.3339 29.2185 28.2384 29.2185 27.961C29.2185 27.8422 29.1784 27.7636 29.0765 27.6826C28.9427 27.5763 28.8999 27.5717 28.3406 27.6028C26.8096 27.688 25.0182 27.3422 23.5683 26.6815C23.1319 26.4826 22.3129 26.0056 22.0696 25.8087L21.9182 25.6861L22.2504 25.649C22.9659 25.569 23.7248 25.2087 24.0546 24.7923C24.3609 24.4056 24.44 24.1518 24.4409 23.5533C24.4413 23.2551 24.43 22.9547 24.4158 22.8858C24.3913 22.767 24.4162 22.7529 24.8969 22.6142C27.4938 21.8649 29.1668 20.5868 29.8418 18.8366C29.9698 18.5047 30.0782 18.3379 30.4095 17.9628C31.4325 16.8051 31.912 15.6662 31.9914 14.2061C32.1493 11.2999 30.1257 8.69704 27.2532 8.11162C25.8965 7.83518 24.3424 8.08017 23.1528 8.75814C22.5384 9.10822 22.2644 9.33911 21.0588 10.5228L19.9448 11.6164L18.8106 10.4829C18.1868 9.85946 17.5138 9.2366 17.3149 9.09882C16.6359 8.62815 15.89 8.30864 15.0685 8.13652C14.6779 8.05471 13.6472 7.99873 13.3126 8.04124ZM15.1444 8.93615C15.6602 9.0778 16.2053 9.32796 16.6853 9.64339C16.9289 9.80343 17.5287 10.3551 18.4281 11.2463C19.676 12.4828 19.8152 12.6051 19.9733 12.6051C20.1313 12.6051 20.2675 12.4859 21.4681 11.2971C22.8673 9.91167 23.2167 9.62604 23.9074 9.30276C24.5822 8.98702 25.0532 8.87944 25.8876 8.85047C26.4809 8.82987 26.7004 8.84397 27.1116 8.92897C27.6423 9.03866 28.2641 9.28272 28.7373 9.56696C29.8133 10.2134 30.6723 11.3721 31.0086 12.631C31.129 13.0818 31.1465 13.2458 31.1465 13.922C31.1465 14.5893 31.1283 14.7647 31.0149 15.1878C30.8578 15.7744 30.6474 16.2536 30.3458 16.7123C30.1734 16.9745 30.1119 17.0343 30.0713 16.9793C30.0004 16.8831 29.8145 16.7882 29.6972 16.7882C29.6443 16.7882 29.423 16.9247 29.2054 17.0915C28.7355 17.4518 28.136 17.7526 27.4627 17.9658C26.9268 18.1356 26.1344 18.3175 26.0964 18.2795C26.0833 18.2663 26.1297 18.0753 26.1997 17.855C26.6135 16.552 26.5748 14.9247 26.0951 13.4572C25.8592 12.7354 25.674 12.3906 25.4874 12.3251C25.2351 12.2367 25.0949 12.3348 24.8723 12.7553C24.5954 13.2783 24.1177 13.8744 23.4796 14.4927C22.96 14.9963 22.6439 15.2489 21.7338 15.8883C20.8345 16.52 19.8982 17.6448 19.5334 18.5316L19.3868 18.888L18.836 19.151C17.9549 19.5718 17.1351 20.2354 16.5758 20.9807L16.3943 21.2225L16.1365 20.8774C15.7835 20.405 15.0446 19.6908 14.6916 19.4811C14.0754 19.1149 13.8085 19.0365 13.1835 19.0381C12.7134 19.0394 12.5632 19.0603 12.3122 19.1594L12.0089 19.2792L11.0305 18.3048C9.92639 17.2052 9.53303 16.7199 9.22808 16.0809C8.87686 15.3451 8.7523 14.7773 8.74879 13.8962C8.74636 13.2901 8.76738 13.0616 8.85884 12.6972C9.35497 10.7219 10.8588 9.27441 12.8479 8.8576C13.3647 8.74931 14.6204 8.79227 15.1444 8.93615ZM25.4427 14.2061C25.7871 15.6101 25.7037 17.0594 25.2147 18.1651L25.0966 18.4321L24.7979 18.4694C24.6335 18.49 24.1957 18.4861 23.8248 18.4608C22.8382 18.3936 21.366 18.4166 20.8783 18.5067C20.651 18.5487 20.4567 18.5755 20.4463 18.5663C20.4175 18.5405 20.6356 18.1964 20.94 17.7878C21.3247 17.2714 21.7467 16.8932 22.6657 16.2416C23.2632 15.8179 23.6334 15.5044 24.1576 14.9784C24.541 14.5936 24.9477 14.1477 25.0613 13.9875C25.1749 13.8273 25.283 13.7122 25.3014 13.7317C25.3199 13.7511 25.3834 13.9646 25.4427 14.2061ZM29.1188 18.4045C28.5552 20.0428 26.867 21.2779 24.3383 21.902C23.3938 22.135 23.3309 22.2115 23.5385 22.8737C23.5954 23.0552 23.6406 23.3428 23.64 23.5192C23.6366 24.4664 22.894 24.8895 21.2268 24.8942C20.6645 24.8958 20.5828 24.9075 20.4909 24.9993C20.3677 25.1225 20.3548 25.3942 20.4647 25.5511C20.507 25.6115 20.7243 25.8133 20.9476 25.9995C22.3972 27.2086 24.2954 28.0458 26.2159 28.3231L26.6603 28.3872L26.1516 28.655C25.1917 29.1603 24.3136 29.8267 23.9992 30.2882C23.9301 30.3897 23.8604 30.4729 23.8443 30.4731C23.8282 30.4733 23.6897 30.2933 23.5365 30.0732C22.9584 29.2427 22.2367 28.6758 21.6103 28.56C21.3525 28.5123 21.2951 28.5208 20.9482 28.6583C19.0694 29.403 17.1584 29.4944 15.906 28.8997C14.9557 28.4484 14.3353 27.8163 13.8045 26.7588C13.6554 26.462 13.5832 26.2166 13.4852 25.6743C13.1767 23.9671 12.7952 22.9068 12.2089 22.127C11.9569 21.7918 11.5539 21.4851 11.234 21.3852C11.1275 21.3519 11.0404 21.3062 11.0404 21.2836C11.0404 21.261 11.1723 21.0946 11.3335 20.9139C12.3501 19.7746 13.304 19.5505 14.3058 20.2155C14.7158 20.4876 15.3457 21.1684 15.7811 21.81C16.1778 22.3945 16.2921 22.479 16.5586 22.3853C16.6427 22.3558 16.7525 22.2299 16.8578 22.0426C17.6318 20.6661 19.0867 19.6876 20.8783 19.3389C21.3586 19.2454 21.8432 19.2354 24.2092 19.2698C25.111 19.2829 25.3666 19.2684 25.9342 19.1717C27.1528 18.9642 28.055 18.6948 28.7796 18.322C28.9784 18.2197 29.1572 18.1348 29.177 18.1334C29.1968 18.132 29.1706 18.254 29.1188 18.4045ZM12.7962 20.6434C12.4975 20.7633 12.4055 21.0611 12.5934 21.2999C12.6904 21.4233 12.7335 21.436 13.0544 21.436C13.3753 21.436 13.4185 21.4233 13.5154 21.2999C13.6549 21.1227 13.651 20.9584 13.5033 20.7867C13.4098 20.6781 13.3288 20.6442 13.1288 20.6302C12.9885 20.6204 12.8388 20.6263 12.7962 20.6434ZM19.3806 20.851C18.9528 20.9451 18.47 21.2722 18.1784 21.6654C17.9125 22.024 17.7035 22.4404 17.7028 22.6132C17.702 22.7924 17.9234 22.9853 18.1299 22.9853C18.3295 22.9853 18.4385 22.8806 18.6248 22.51C18.8024 22.1567 19.0635 21.8744 19.3336 21.7436C19.6802 21.5758 20.0441 21.6207 20.5815 21.8973C21.0341 22.1304 21.2016 22.1386 21.3442 21.935C21.4528 21.78 21.4401 21.5073 21.3187 21.3859C21.1819 21.249 20.6843 21.0019 20.3395 20.8995C20.0779 20.8219 19.6187 20.7986 19.3806 20.851ZM20.1335 22.654C20.008 22.6996 19.8211 22.79 19.7183 22.8549C19.2636 23.142 18.6835 23.974 18.6835 24.3391C18.6835 24.6913 19.1093 24.8767 19.34 24.6249C19.3986 24.561 19.4983 24.4042 19.5618 24.2763C19.9946 23.4044 20.6286 23.1882 21.4831 23.6213C21.9383 23.852 22.145 23.8658 22.2947 23.6755C22.5405 23.3629 22.3225 23.0622 21.6426 22.7758C21.1489 22.5678 20.5122 22.5165 20.1335 22.654ZM16.6732 23.5861C16.5402 23.7552 16.5398 23.8796 16.6705 24.4249C16.8048 24.9848 17.1404 25.6393 17.3345 25.7197C17.5095 25.7922 17.7083 25.7273 17.8261 25.5592C17.9435 25.3916 17.9315 25.3106 17.7302 24.9131C17.5537 24.5642 17.3924 24.049 17.3924 23.8335C17.3924 23.7723 17.3442 23.661 17.2853 23.5861C17.2028 23.4811 17.1328 23.4501 16.9793 23.4501C16.8257 23.4501 16.7557 23.4811 16.6732 23.5861ZM14.7188 24.2076C14.5607 24.2712 14.4962 24.5209 14.5504 24.86C14.813 26.5036 16.0816 27.7468 17.9008 28.1435C18.293 28.2289 18.5285 28.0809 18.5285 27.7488C18.5285 27.5312 18.3517 27.4016 17.9103 27.2958C16.5904 26.9792 15.5805 25.9767 15.3749 24.7791C15.2995 24.3394 15.1787 24.1711 14.9433 24.1771C14.8559 24.1793 14.7549 24.1931 14.7188 24.2076Z" fill="white"/>
<path fill-rule="evenodd" clip-rule="evenodd" d="M13.3126 8.04124C11.929 8.21687 10.7912 8.74569 9.837 9.65661C8.66446 10.7759 8.07346 12.0736 8.00906 13.6702C7.97328 14.5575 8.03917 15.0701 8.2837 15.807C8.64979 16.9102 9.01971 17.4485 10.3237 18.7762L11.2886 19.7585L10.9139 20.1493C10.3833 20.7027 9.80095 21.5875 9.80095 21.8401C9.80095 21.8942 9.84914 21.9997 9.90801 22.0746C10.0265 22.2252 10.2049 22.2485 10.536 22.1565C11.1789 21.978 11.8162 22.704 12.2741 24.1366C12.4337 24.6358 12.7432 26.0483 12.7441 26.2811C12.7448 26.4591 13.0295 27.1104 13.3127 27.5815C14.0547 28.8161 15.0654 29.5903 16.389 29.9381C17.6556 30.2707 19.4871 30.1066 20.9962 29.5252C21.3738 29.3797 21.4713 29.3603 21.6013 29.4044C22.1341 29.5852 22.7971 30.3291 23.3595 31.3772C23.5889 31.8045 23.6564 31.8678 23.8834 31.8678C24.1084 31.8678 24.2316 31.7367 24.3324 31.3898C24.4816 30.8767 24.9439 30.3767 25.7843 29.8196C26.4839 29.3559 27.5925 28.8346 28.5601 28.5142C29.105 28.3339 29.2185 28.2384 29.2185 27.961C29.2185 27.8422 29.1784 27.7636 29.0765 27.6826C28.9427 27.5763 28.8999 27.5717 28.3406 27.6028C26.8096 27.688 25.0182 27.3422 23.5683 26.6815C23.1319 26.4826 22.3129 26.0056 22.0696 25.8087L21.9182 25.6861L22.2504 25.649C22.9659 25.569 23.7248 25.2087 24.0546 24.7923C24.3609 24.4056 24.44 24.1518 24.4409 23.5533C24.4413 23.2551 24.43 22.9547 24.4158 22.8858C24.3913 22.767 24.4162 22.7529 24.8969 22.6142C27.4938 21.8649 29.1668 20.5868 29.8418 18.8366C29.9698 18.5047 30.0782 18.3379 30.4095 17.9628C31.4325 16.8051 31.912 15.6662 31.9914 14.2061C32.1493 11.2999 30.1257 8.69704 27.2532 8.11162C25.8965 7.83518 24.3424 8.08017 23.1528 8.75814C22.5384 9.10822 22.2644 9.33911 21.0588 10.5228L19.9448 11.6164L18.8106 10.4829C18.1868 9.85946 17.5138 9.2366 17.3149 9.09882C16.6359 8.62815 15.89 8.30864 15.0685 8.13652C14.6779 8.05471 13.6472 7.99873 13.3126 8.04124ZM15.1444 8.93615C15.6602 9.0778 16.2053 9.32796 16.6853 9.64339C16.9289 9.80343 17.5287 10.3551 18.4281 11.2463C19.676 12.4828 19.8152 12.6051 19.9733 12.6051C20.1313 12.6051 20.2675 12.4859 21.4681 11.2971C22.8673 9.91167 23.2167 9.62604 23.9074 9.30276C24.5822 8.98702 25.0532 8.87944 25.8876 8.85047C26.4809 8.82987 26.7004 8.84397 27.1116 8.92897C27.6423 9.03866 28.2641 9.28272 28.7373 9.56696C29.8133 10.2134 30.6723 11.3721 31.0086 12.631C31.129 13.0818 31.1465 13.2458 31.1465 13.922C31.1465 14.5893 31.1283 14.7647 31.0149 15.1878C30.8578 15.7744 30.6474 16.2536 30.3458 16.7123C30.1734 16.9745 30.1119 17.0343 30.0713 16.9793C30.0004 16.8831 29.8145 16.7882 29.6972 16.7882C29.6443 16.7882 29.423 16.9247 29.2054 17.0915C28.7355 17.4518 28.136 17.7526 27.4627 17.9658C26.9268 18.1356 26.1344 18.3175 26.0964 18.2795C26.0833 18.2663 26.1297 18.0753 26.1997 17.855C26.6135 16.552 26.5748 14.9247 26.0951 13.4572C25.8592 12.7354 25.674 12.3906 25.4874 12.3251C25.2351 12.2367 25.0949 12.3348 24.8723 12.7553C24.5954 13.2783 24.1177 13.8744 23.4796 14.4927C22.96 14.9963 22.6439 15.2489 21.7338 15.8883C20.8345 16.52 19.8982 17.6448 19.5334 18.5316L19.3868 18.888L18.836 19.151C17.9549 19.5718 17.1351 20.2354 16.5758 20.9807L16.3943 21.2225L16.1365 20.8774C15.7835 20.405 15.0446 19.6908 14.6916 19.4811C14.0754 19.1149 13.8085 19.0365 13.1835 19.0381C12.7134 19.0394 12.5632 19.0603 12.3122 19.1594L12.0089 19.2792L11.0305 18.3048C9.92639 17.2052 9.53303 16.7199 9.22808 16.0809C8.87686 15.3451 8.7523 14.7773 8.74879 13.8962C8.74636 13.2901 8.76738 13.0616 8.85884 12.6972C9.35497 10.7219 10.8588 9.27441 12.8479 8.8576C13.3647 8.74931 14.6204 8.79227 15.1444 8.93615ZM25.4427 14.2061C25.7871 15.6101 25.7037 17.0594 25.2147 18.1651L25.0966 18.4321L24.7979 18.4694C24.6335 18.49 24.1957 18.4861 23.8248 18.4608C22.8382 18.3936 21.366 18.4166 20.8783 18.5067C20.651 18.5487 20.4567 18.5755 20.4463 18.5663C20.4175 18.5405 20.6356 18.1964 20.94 17.7878C21.3247 17.2714 21.7467 16.8932 22.6657 16.2416C23.2632 15.8179 23.6334 15.5044 24.1576 14.9784C24.541 14.5936 24.9477 14.1477 25.0613 13.9875C25.1749 13.8273 25.283 13.7122 25.3014 13.7317C25.3199 13.7511 25.3834 13.9646 25.4427 14.2061ZM29.1188 18.4045C28.5552 20.0428 26.867 21.2779 24.3383 21.902C23.3938 22.135 23.3309 22.2115 23.5385 22.8737C23.5954 23.0552 23.6406 23.3428 23.64 23.5192C23.6366 24.4664 22.894 24.8895 21.2268 24.8942C20.6645 24.8958 20.5828 24.9075 20.4909 24.9993C20.3677 25.1225 20.3548 25.3942 20.4647 25.5511C20.507 25.6115 20.7243 25.8133 20.9476 25.9995C22.3972 27.2086 24.2954 28.0458 26.2159 28.3231L26.6603 28.3872L26.1516 28.655C25.1917 29.1603 24.3136 29.8267 23.9992 30.2882C23.9301 30.3897 23.8604 30.4729 23.8443 30.4731C23.8282 30.4733 23.6897 30.2933 23.5365 30.0732C22.9584 29.2427 22.2367 28.6758 21.6103 28.56C21.3525 28.5123 21.2951 28.5208 20.9482 28.6583C19.0694 29.403 17.1584 29.4944 15.906 28.8997C14.9557 28.4484 14.3353 27.8163 13.8045 26.7588C13.6554 26.462 13.5832 26.2166 13.4852 25.6743C13.1767 23.9671 12.7952 22.9068 12.2089 22.127C11.9569 21.7918 11.5539 21.4851 11.234 21.3852C11.1275 21.3519 11.0404 21.3062 11.0404 21.2836C11.0404 21.261 11.1723 21.0946 11.3335 20.9139C12.3501 19.7746 13.304 19.5505 14.3058 20.2155C14.7158 20.4876 15.3457 21.1684 15.7811 21.81C16.1778 22.3945 16.2921 22.479 16.5586 22.3853C16.6427 22.3558 16.7525 22.2299 16.8578 22.0426C17.6318 20.6661 19.0867 19.6876 20.8783 19.3389C21.3586 19.2454 21.8432 19.2354 24.2092 19.2698C25.111 19.2829 25.3666 19.2684 25.9342 19.1717C27.1528 18.9642 28.055 18.6948 28.7796 18.322C28.9784 18.2197 29.1572 18.1348 29.177 18.1334C29.1968 18.132 29.1706 18.254 29.1188 18.4045ZM12.7962 20.6434C12.4975 20.7633 12.4055 21.0611 12.5934 21.2999C12.6904 21.4233 12.7335 21.436 13.0544 21.436C13.3753 21.436 13.4185 21.4233 13.5154 21.2999C13.6549 21.1227 13.651 20.9584 13.5033 20.7867C13.4098 20.6781 13.3288 20.6442 13.1288 20.6302C12.9885 20.6204 12.8388 20.6263 12.7962 20.6434ZM19.3806 20.851C18.9528 20.9451 18.47 21.2722 18.1784 21.6654C17.9125 22.024 17.7035 22.4404 17.7028 22.6132C17.702 22.7924 17.9234 22.9853 18.1299 22.9853C18.3295 22.9853 18.4385 22.8806 18.6248 22.51C18.8024 22.1567 19.0635 21.8744 19.3336 21.7436C19.6802 21.5758 20.0441 21.6207 20.5815 21.8973C21.0341 22.1304 21.2016 22.1386 21.3442 21.935C21.4528 21.78 21.4401 21.5073 21.3187 21.3859C21.1819 21.249 20.6843 21.0019 20.3395 20.8995C20.0779 20.8219 19.6187 20.7986 19.3806 20.851ZM20.1335 22.654C20.008 22.6996 19.8211 22.79 19.7183 22.8549C19.2636 23.142 18.6835 23.974 18.6835 24.3391C18.6835 24.6913 19.1093 24.8767 19.34 24.6249C19.3986 24.561 19.4983 24.4042 19.5618 24.2763C19.9946 23.4044 20.6286 23.1882 21.4831 23.6213C21.9383 23.852 22.145 23.8658 22.2947 23.6755C22.5405 23.3629 22.3225 23.0622 21.6426 22.7758C21.1489 22.5678 20.5122 22.5165 20.1335 22.654ZM16.6732 23.5861C16.5402 23.7552 16.5398 23.8796 16.6705 24.4249C16.8048 24.9848 17.1404 25.6393 17.3345 25.7197C17.5095 25.7922 17.7083 25.7273 17.8261 25.5592C17.9435 25.3916 17.9315 25.3106 17.7302 24.9131C17.5537 24.5642 17.3924 24.049 17.3924 23.8335C17.3924 23.7723 17.3442 23.661 17.2853 23.5861C17.2028 23.4811 17.1328 23.4501 16.9793 23.4501C16.8257 23.4501 16.7557 23.4811 16.6732 23.5861ZM14.7188 24.2076C14.5607 24.2712 14.4962 24.5209 14.5504 24.86C14.813 26.5036 16.0816 27.7468 17.9008 28.1435C18.293 28.2289 18.5285 28.0809 18.5285 27.7488C18.5285 27.5312 18.3517 27.4016 17.9103 27.2958C16.5904 26.9792 15.5805 25.9767 15.3749 24.7791C15.2995 24.3394 15.1787 24.1711 14.9433 24.1771C14.8559 24.1793 14.7549 24.1931 14.7188 24.2076Z" stroke="white" stroke-width="0.4" mask="url(#path-2-outside-1_0_222)"/>
</svg>
