<svg width="60" height="60" viewBox="0 0 60 60" fill="none" xmlns="http://www.w3.org/2000/svg">
<path fill-rule="evenodd" clip-rule="evenodd" d="M28.3433 0.119296C27.1658 0.365743 25.9204 0.935543 25.0079 1.64565C23.2177 3.0385 22.5538 3.26288 20.9221 3.02712C18.6924 2.70482 17.0289 2.94223 15.3312 3.82516C13.367 4.84676 11.9165 6.51789 11.2083 8.57541C10.7555 9.89077 9.88456 10.7678 8.58853 11.2137C5.8009 12.1723 3.81269 14.3451 3.0828 17.2307C2.87161 18.0651 2.85094 18.3745 2.92717 19.5511C3.0868 22.011 3.06025 22.732 2.78881 23.3155C2.65361 23.6061 2.24333 24.2137 1.8771 24.6658C0.545945 26.3089 0.00082291 27.8604 7.04501e-07 30.008C-0.000704043 32.1767 0.52727 33.6724 1.8899 35.3623C2.24909 35.8077 2.65361 36.4099 2.78881 36.7005C3.06025 37.284 3.0868 38.005 2.92717 40.4649C2.85094 41.6415 2.87161 41.9509 3.0828 42.7853C3.81269 45.6708 5.8009 47.8437 8.58853 48.8023C9.88456 49.2481 10.7555 50.1252 11.2083 51.4406C11.9452 53.5819 13.493 55.3041 15.5941 56.3209C16.9878 56.9953 17.9962 57.1812 19.6514 57.0687C22.8556 56.851 23.1648 56.9155 24.649 58.1113C26.3038 59.4445 27.8774 60 29.9998 60C32.1223 60 33.6959 59.4445 35.3506 58.1113C36.8348 56.9155 37.1441 56.851 40.3482 57.0687C42.0514 57.1845 43.0727 56.9842 44.5425 56.2463C46.6043 55.2115 48.0604 53.5644 48.7913 51.4406C49.2445 50.1241 50.115 49.2481 51.4142 48.8014C53.5134 48.0794 55.3925 46.4311 56.3122 44.5047C56.5108 44.0887 56.7829 43.315 56.9168 42.7853C57.128 41.9509 57.1487 41.6415 57.0725 40.4649C56.9129 38.005 56.9394 37.284 57.2108 36.7005C57.346 36.4099 57.7506 35.8077 58.1097 35.3623C59.472 33.6729 60 32.1773 60 30.008C60 27.8387 59.472 26.3431 58.1097 24.6537C57.085 23.383 56.9484 23.0093 56.9984 21.613C57.1014 18.7343 57.0673 17.6316 56.8534 16.9166C56.0441 14.2107 54.0609 12.1249 51.4408 11.2239C50.1143 10.7676 49.2478 9.90146 48.7913 8.57541C48.0646 6.46376 46.5894 4.79487 44.5425 3.76892C43.0717 3.03158 42.0505 2.83163 40.3482 2.94728C37.1388 3.16531 36.8309 3.10062 35.3442 1.89538C34.4246 1.14994 33.2304 0.527419 32.1728 0.242226C31.1972 -0.0208937 29.3038 -0.0815956 28.3433 0.119296ZM31.7617 3.81319C32.117 3.94833 32.8041 4.37735 33.2886 4.76657C35.0879 6.21238 36.6912 6.74531 38.7401 6.57882C39.3919 6.52587 40.4007 6.47914 40.9821 6.47491C41.9337 6.4681 42.1176 6.5045 42.8239 6.83865C43.6674 7.23797 44.5334 7.95994 44.9213 8.58727C45.0537 8.80154 45.3365 9.42089 45.5497 9.9638C46.4233 12.1882 47.8819 13.6483 50.0421 14.4611C51.1331 14.8716 51.4501 15.0509 52.0301 15.5852C53.1783 16.6432 53.6851 17.9357 53.561 19.4897C53.5193 20.0118 53.4538 20.897 53.4157 21.4568C53.287 23.3397 53.8648 24.9965 55.2512 26.7205C56.2245 27.9309 56.4719 28.5973 56.4719 30.008C56.4719 31.4187 56.2245 32.0851 55.2512 33.2955C53.8648 35.0195 53.287 36.6763 53.4157 38.5592C53.4538 39.119 53.5193 40.0042 53.561 40.5263C53.6851 42.0803 53.1783 43.3727 52.0301 44.4307C51.4501 44.9651 51.1331 45.1444 50.0421 45.5548C48.9796 45.9546 48.2988 46.3719 47.4942 47.1165C46.6259 47.9202 46.0392 48.8058 45.5497 50.0522C45.3365 50.5951 45.0537 51.2144 44.9213 51.4287C44.5334 52.056 43.6674 52.778 42.8239 53.1773C42.1176 53.5115 41.9337 53.5479 40.9821 53.5411C40.4007 53.5368 39.3919 53.4901 38.7401 53.4372C36.6912 53.2707 35.0879 53.8036 33.2886 55.2494C31.0962 57.0111 28.824 56.972 26.5627 55.1339C24.9399 53.8147 23.2533 53.2751 21.2595 53.4372C20.6078 53.4901 19.5989 53.5368 19.0175 53.5411C18.066 53.5479 17.882 53.5115 17.1758 53.1773C16.3323 52.778 15.4663 52.056 15.0783 51.4287C14.9459 51.2144 14.6631 50.5951 14.4499 50.0522C13.5738 47.8215 12.1168 46.3661 9.94235 45.5499C8.9611 45.1815 8.45639 44.8859 7.88214 44.3434C6.80082 43.3217 6.31748 42.0435 6.43869 40.5263C6.48039 40.0042 6.54582 39.119 6.58399 38.5592C6.71261 36.6763 6.13483 35.0195 4.74847 33.2955C3.7751 32.0851 3.52773 31.4187 3.52773 30.008C3.52773 28.5973 3.7751 27.9309 4.74847 26.7205C6.13483 24.9965 6.71261 23.3397 6.58399 21.4568C6.54582 20.897 6.48039 20.0118 6.43869 19.4897C6.31748 17.9725 6.80082 16.6943 7.88214 15.6726C8.45639 15.13 8.9611 14.8345 9.94235 14.4661C11.019 14.0619 11.6972 13.6474 12.5054 12.8995C13.3738 12.0958 13.9605 11.2101 14.4499 9.9638C14.6631 9.42089 14.9459 8.80154 15.0783 8.58727C15.4663 7.95994 16.3323 7.23797 17.1758 6.83865C17.882 6.5045 18.066 6.4681 19.0175 6.47491C19.5989 6.47914 20.6078 6.52587 21.2595 6.57882C23.2533 6.74085 24.9399 6.20123 26.5627 4.8821C27.3659 4.22906 28.1951 3.77256 28.8985 3.59586C29.5846 3.42362 31.0242 3.53281 31.7617 3.81319ZM27.1822 18.752C25.1873 18.9976 23.332 20.5926 22.7132 22.594C22.4956 23.2983 22.4825 23.712 22.4825 29.937C22.4825 35.4055 22.5125 36.6487 22.6578 37.2062C23.2981 39.6641 25.3935 41.2795 27.9409 41.2795C30.413 41.2795 32.337 39.955 33.2101 37.6522C33.452 37.0142 33.4608 36.7909 33.4971 30.376C33.5222 25.9522 33.4926 23.5555 33.4078 23.1475C32.9681 21.0303 30.9888 19.0375 29.0875 18.7975C28.7818 18.7589 28.3995 18.7117 28.238 18.6927C28.0765 18.6736 27.6015 18.7003 27.1822 18.752ZM15.9349 19.047C15.303 19.3584 15.0827 19.8502 15.0827 20.9496C15.0827 21.8939 15.0798 21.9027 14.7597 21.9702C13.705 22.1926 13.2045 22.7531 13.2038 23.7126C13.2031 24.6667 13.7015 25.2719 14.6128 25.4233L15.0239 25.4916L15.0544 31.5561L15.0848 37.6206L14.702 37.703C13.7002 37.9187 13.2045 38.4952 13.2038 39.4458C13.2032 40.151 13.5229 40.7118 14.0745 40.9735C14.657 41.2498 18.9146 41.2498 19.4971 40.9735C20.0487 40.7118 20.3684 40.151 20.3678 39.4458C20.3671 38.5196 19.8893 37.9427 18.9329 37.7136L18.6136 37.6371L18.5806 28.8619L18.5477 20.0867L18.2815 19.6588C17.8157 18.9101 16.7675 18.6368 15.9349 19.047ZM37.6327 19.0726C36.9964 19.4128 36.773 19.9071 36.716 21.1014C36.6416 22.6546 36.7465 23.1322 37.2782 23.6638C37.8915 24.2768 38.4927 24.38 39.2449 24.0016C40.0741 23.5843 40.2188 23.2121 40.2182 21.4975C40.2178 20.2969 40.183 20.0296 39.9843 19.704C39.4951 18.9018 38.4682 18.6261 37.6327 19.0726ZM45.2106 19.0724C45.0168 19.192 44.7705 19.39 44.6632 19.5122C44.5559 19.6344 42.74 24.0405 40.628 29.3035C36.5611 39.4376 36.5426 39.4932 36.9651 40.2995C37.5674 41.4491 39.3308 41.4384 39.9976 40.2812C40.1091 40.0876 41.9003 35.6782 43.9779 30.4822C48.0285 20.3527 48.0034 20.4295 47.509 19.6298C47.0567 18.8983 45.9337 18.6259 45.2106 19.0724ZM29.0721 22.5239C29.2917 22.6698 29.5901 23.0243 29.7355 23.312C29.9996 23.8345 29.9998 23.8395 29.9998 30.008C29.9998 36.1782 29.9997 36.1813 29.7355 36.6981C29.36 37.4328 28.969 37.6785 28.0898 37.7326C27.4693 37.7708 27.2957 37.7357 26.9567 37.5033C26.7366 37.3523 26.4459 37.0797 26.3107 36.8974C26.0683 36.5702 26.065 36.478 26.065 30.008C26.065 23.538 26.0683 23.4457 26.3107 23.1186C26.7567 22.517 27.2648 22.2588 28.003 22.2588C28.5025 22.2588 28.7746 22.3263 29.0721 22.5239ZM45.3012 35.9918C44.4769 36.3658 44.3306 36.7379 44.3302 38.4635C44.3298 39.663 44.3692 40.0064 44.5443 40.3329C45.1276 41.4201 46.8587 41.434 47.5285 40.3571C47.7665 39.9745 47.7947 39.7802 47.7947 38.5203C47.7947 36.8449 47.6372 36.4505 46.7981 36.0253C46.1659 35.705 45.9439 35.7001 45.3012 35.9918Z" fill="#4E86F8"/>
</svg>
