<svg width="60" height="49" viewBox="0 0 60 49" fill="none" xmlns="http://www.w3.org/2000/svg">
<path fill-rule="evenodd" clip-rule="evenodd" d="M26.5405 1.01636C19.0131 1.26792 13.8554 2.4563 12.51 4.24919C11.3487 5.79686 8.98529 10.4752 6.18414 16.7708L5.27145 18.8222L4.5383 19.3166C1.2071 21.563 -0.191657 25.204 0.0209471 31.0745C0.1354 34.2323 0.969401 39.681 1.45066 40.4153C1.55456 40.5738 1.81384 40.7762 2.02691 40.8652L2.41413 41.0269L2.46256 43.2878C2.50794 45.4114 2.52905 45.5879 2.81084 46.1986C3.23699 47.122 3.7532 47.655 4.64818 48.0956L5.42683 48.479L9.46069 48.5178C14.6863 48.5681 15.262 48.4722 16.3663 47.3684C17.1884 46.5466 17.3877 45.9951 17.4326 44.4157L17.4715 43.0483L17.9603 43.2702C18.4292 43.4829 18.9181 43.492 29.9998 43.492C41.0816 43.492 41.5704 43.4829 42.0394 43.2702L42.5282 43.0483L42.5671 44.4157C42.612 45.9951 42.8112 46.5466 43.6334 47.3684C44.7377 48.4722 45.3134 48.5681 50.539 48.5178L54.5729 48.479L55.3515 48.0956C56.2465 47.655 56.7627 47.122 57.1888 46.1986C57.4706 45.5879 57.4917 45.4114 57.5371 43.2878L57.5856 41.0269L57.9728 40.8652C58.1858 40.7762 58.4451 40.5738 58.549 40.4153C59.0303 39.681 59.8643 34.2323 59.9787 31.0745C60.1909 25.2184 58.8241 21.6358 55.5054 19.3483C54.6972 18.7912 54.6765 18.7639 54.1632 17.5716C51.8253 12.1404 48.6193 5.73789 47.4923 4.24919C46.3553 2.74736 42.3826 1.61607 36.7427 1.18786C35.1048 1.0636 28.4673 0.952011 26.5405 1.01636ZM38.1499 3.80586C41.5437 4.19808 43.9284 4.77106 45.1413 5.48552C45.8694 5.91431 47.7335 9.43269 50.7671 16.1031C51.28 17.2311 51.3999 17.5885 51.2494 17.542C51.1393 17.508 50.4951 17.3745 49.8179 17.2454C45.2124 16.3673 39.845 16.0411 29.9998 16.0411C20.1547 16.0411 14.7873 16.3673 10.1818 17.2454C9.50454 17.3745 8.8604 17.508 8.75029 17.542C8.59983 17.5885 8.71968 17.231 9.23284 16.1031C11.641 10.8086 13.8644 6.45294 14.4871 5.80987C15.131 5.14499 17.2302 4.46875 19.9149 4.06129C20.8711 3.91617 22.3465 3.76589 24.4883 3.59557C24.7785 3.57248 27.6017 3.56767 30.7621 3.58479C35.135 3.6087 36.9005 3.66145 38.1499 3.80586ZM38.3418 18.6493C46.4042 18.9748 51.3915 19.7713 53.5513 21.0781C55.1316 22.0343 56.1143 23.1743 56.7536 24.7932C57.2824 26.1325 57.4448 26.0312 54.7678 26.0312C50.7296 26.0312 50.7704 26.0094 46.0947 30.657L42.5474 34.183V34.6904C42.5474 35.1113 42.6154 35.2659 42.9461 35.5964L43.3448 35.995H50.1651H56.9856L56.9101 36.4932C56.8686 36.7671 56.7708 37.3079 56.6929 37.6947L56.5513 38.398L51.2204 38.4566L45.8895 38.5152L43.3986 39.7754L40.9078 41.0355H29.9998H19.0919L16.6011 39.7754L14.1102 38.5152L8.77925 38.4566L3.44842 38.398L3.30676 37.6947C3.2289 37.3079 3.1311 36.7671 3.08958 36.4932L3.01406 35.995H9.83453H16.6549L17.0536 35.5964C17.3843 35.2659 17.4523 35.1113 17.4523 34.6904V34.183L13.905 30.657C9.22932 26.0094 9.27013 26.0312 5.23193 26.0312C2.55485 26.0312 2.71726 26.1325 3.24613 24.7932C4.12212 22.5748 5.83245 21.0509 8.31171 20.2802C10.9482 19.4606 15.5029 18.8891 21.2635 18.6554C24.6541 18.5178 34.9946 18.514 38.3418 18.6493ZM15.3884 26.4298C14.9773 26.8408 14.8972 27.188 15.0968 27.694C15.2523 28.0885 21.3757 35.4191 21.8104 35.7313L22.1777 35.995H29.9998H37.822L38.1893 35.7313C38.624 35.4191 44.7474 28.0885 44.9029 27.694C45.1025 27.188 45.0224 26.8408 44.6113 26.4298L44.2126 26.0312H29.9998H15.7871L15.3884 26.4298ZM8.23501 28.8754C8.78664 29.1336 9.35116 29.6192 11.0201 31.2714C12.1714 32.411 13.1134 33.3863 13.1134 33.4384C13.1134 33.558 2.67821 33.565 2.67247 33.4454C2.67012 33.397 2.6197 32.4901 2.56048 31.43C2.50126 30.3698 2.48449 29.2716 2.52319 28.9894L2.59355 28.4766L5.06834 28.514C7.48849 28.5507 7.55862 28.5586 8.23501 28.8754ZM40.883 28.7067C40.7987 28.8244 39.8642 29.9585 38.8062 31.2269L36.8828 33.5334H29.9998H23.1169L21.1935 31.2269C20.1355 29.9585 19.201 28.8244 19.1167 28.7067C18.9687 28.5001 19.3397 28.4929 29.9998 28.4929C40.66 28.4929 41.031 28.5001 40.883 28.7067ZM57.4776 28.9976C57.5157 29.2752 57.4984 30.3698 57.4392 31.43C57.38 32.4901 57.3296 33.397 57.3272 33.4454C57.3215 33.565 46.8863 33.558 46.8863 33.4384C46.8863 33.2553 51.0536 29.2264 51.4597 29.0169C52.3218 28.5721 52.7698 28.5087 55.1083 28.5007L57.4084 28.4929L57.4776 28.9976ZM14.2332 41.4162L15.0056 41.7971L14.9684 43.5362L14.9311 45.2752L14.5481 45.6171L14.1651 45.9587H9.95438H5.74368L5.38285 45.5981L5.02202 45.2374V43.1364V41.0355H9.2414H13.4608L14.2332 41.4162ZM54.9777 43.1364V45.2374L54.6168 45.5981L54.256 45.9587H50.0453H45.8346L45.4516 45.6171L45.0686 45.2752L45.0313 43.536L44.994 41.7967L45.7349 41.4231L46.4758 41.0495L50.7267 41.0425L54.9777 41.0355V43.1364Z" fill="#4E86F8"/>
</svg>
