<svg width="54" height="54" viewBox="0 0 54 54" fill="none" xmlns="http://www.w3.org/2000/svg">
<mask id="path-1-outside-1_0_584" maskUnits="userSpaceOnUse" x="0" y="-0.00146484" width="54" height="54" fill="black">
<rect fill="white" y="-0.00146484" width="54" height="54"/>
<path fill-rule="evenodd" clip-rule="evenodd" d="M17.8254 1.04219C16.5843 1.20308 15.7263 1.63626 14.7983 2.57044C13.4044 3.97386 12.9267 6.10813 13.5811 8.0094C13.8717 8.85344 14.3215 9.51344 15.1068 10.2477L15.7799 10.8771L9.77749 10.9073L3.77522 10.9376L3.18018 11.2164C2.38435 11.5893 1.69338 12.2464 1.3395 12.9665L1.04906 13.5579L1.01855 17.9818C0.98206 23.2754 0.855398 22.8337 2.41025 22.8337H3.40446L3.43256 36.4853L3.46066 50.1369L3.7359 50.7134C4.12459 51.5271 4.65021 52.086 5.41867 52.5025L6.08197 52.862H27H47.918L48.4026 52.638C48.9789 52.3717 49.6901 51.7519 50.021 51.2279C50.6153 50.2869 50.5917 50.9056 50.5917 36.2828V22.8337H51.5878C53.1449 22.8337 53.0179 23.276 52.9814 17.9818L52.9509 13.5579L52.6605 12.9665C52.3066 12.2464 51.6156 11.5893 50.8198 11.2164L50.2248 10.9376L44.2225 10.9073L38.2201 10.8771L38.8932 10.2477C39.6785 9.51344 40.1283 8.85344 40.4189 8.0094C41.607 4.55745 39.092 1.03297 35.4406 1.03297C33.5698 1.03297 32.2607 1.7592 30.8365 3.58711C29.7254 5.01327 27.7833 8.08486 27.0544 9.56909C27.0161 9.64697 26.9838 9.64697 26.9456 9.56909C25.775 7.18558 23.1212 3.28295 21.9974 2.29227C20.8872 1.31365 19.3302 0.847034 17.8254 1.04219ZM20.1141 2.87051C20.4901 3.05561 20.943 3.40641 21.2916 3.78279C22.386 4.96432 24.2126 7.72599 25.2107 9.70807L25.7244 10.728L22.2467 10.7572C20.334 10.7734 18.6641 10.761 18.5359 10.7298C18.213 10.6511 16.3241 9.21357 15.84 8.67788C14.6827 7.39741 14.5356 5.59539 15.4737 4.19103C15.928 3.51091 16.7302 2.89211 17.4685 2.65209C18.2098 2.41102 19.3759 2.50734 20.1141 2.87051ZM37.0006 2.85637C37.7534 3.22446 38.4406 3.91412 38.8143 4.6763C39.0673 5.19218 39.1094 5.40495 39.1099 6.17059C39.1103 6.96978 39.074 7.13716 38.7635 7.76823C38.3804 8.54624 37.8127 9.10583 36.3343 10.1622L35.4691 10.7804H31.8625H28.2559L28.6653 9.96811C29.2306 8.8461 29.9104 7.70911 30.9364 6.16871C32.9368 3.16524 33.8505 2.45494 35.6125 2.53344C36.2223 2.56059 36.5534 2.63762 37.0006 2.85637ZM22.5962 16.9124V21.2625L12.5566 21.2358L2.51699 21.2091V17.8551C2.51699 14.1903 2.55736 13.87 3.09703 13.2557C3.7403 12.5233 3.08928 12.5672 13.343 12.5646L22.5962 12.5622V16.9124ZM29.7262 31.954V51.3458L27.0262 51.3178L24.3263 51.2898L24.2997 31.926L24.2733 12.5622H26.9997H29.7262V31.954ZM50.0345 12.6737C50.4541 12.8322 50.901 13.2795 51.1269 13.7675C51.3037 14.149 51.3213 14.5047 51.3234 17.7241L51.3257 21.2615H41.3123H31.2989V16.9118V12.5622H40.5191C46.7786 12.5622 49.8341 12.598 50.0345 12.6737ZM22.701 37.0879V51.3422L14.8109 51.3416C9.70692 51.3413 6.78312 51.3028 6.53084 51.2328C6.02807 51.0932 5.54963 50.6871 5.29096 50.1803C5.09059 49.7876 5.08587 49.4709 5.08587 36.3061V22.8337H13.8935H22.701V37.0879ZM48.9141 36.3337V49.8338L48.6137 50.3073C48.0232 51.2382 48.6024 51.1811 39.3988 51.2131L31.2989 51.2412V37.0374V22.8337H40.1065H48.9141V36.3337Z"/>
</mask>
<path fill-rule="evenodd" clip-rule="evenodd" d="M17.8254 1.04219C16.5843 1.20308 15.7263 1.63626 14.7983 2.57044C13.4044 3.97386 12.9267 6.10813 13.5811 8.0094C13.8717 8.85344 14.3215 9.51344 15.1068 10.2477L15.7799 10.8771L9.77749 10.9073L3.77522 10.9376L3.18018 11.2164C2.38435 11.5893 1.69338 12.2464 1.3395 12.9665L1.04906 13.5579L1.01855 17.9818C0.98206 23.2754 0.855398 22.8337 2.41025 22.8337H3.40446L3.43256 36.4853L3.46066 50.1369L3.7359 50.7134C4.12459 51.5271 4.65021 52.086 5.41867 52.5025L6.08197 52.862H27H47.918L48.4026 52.638C48.9789 52.3717 49.6901 51.7519 50.021 51.2279C50.6153 50.2869 50.5917 50.9056 50.5917 36.2828V22.8337H51.5878C53.1449 22.8337 53.0179 23.276 52.9814 17.9818L52.9509 13.5579L52.6605 12.9665C52.3066 12.2464 51.6156 11.5893 50.8198 11.2164L50.2248 10.9376L44.2225 10.9073L38.2201 10.8771L38.8932 10.2477C39.6785 9.51344 40.1283 8.85344 40.4189 8.0094C41.607 4.55745 39.092 1.03297 35.4406 1.03297C33.5698 1.03297 32.2607 1.7592 30.8365 3.58711C29.7254 5.01327 27.7833 8.08486 27.0544 9.56909C27.0161 9.64697 26.9838 9.64697 26.9456 9.56909C25.775 7.18558 23.1212 3.28295 21.9974 2.29227C20.8872 1.31365 19.3302 0.847034 17.8254 1.04219ZM20.1141 2.87051C20.4901 3.05561 20.943 3.40641 21.2916 3.78279C22.386 4.96432 24.2126 7.72599 25.2107 9.70807L25.7244 10.728L22.2467 10.7572C20.334 10.7734 18.6641 10.761 18.5359 10.7298C18.213 10.6511 16.3241 9.21357 15.84 8.67788C14.6827 7.39741 14.5356 5.59539 15.4737 4.19103C15.928 3.51091 16.7302 2.89211 17.4685 2.65209C18.2098 2.41102 19.3759 2.50734 20.1141 2.87051ZM37.0006 2.85637C37.7534 3.22446 38.4406 3.91412 38.8143 4.6763C39.0673 5.19218 39.1094 5.40495 39.1099 6.17059C39.1103 6.96978 39.074 7.13716 38.7635 7.76823C38.3804 8.54624 37.8127 9.10583 36.3343 10.1622L35.4691 10.7804H31.8625H28.2559L28.6653 9.96811C29.2306 8.8461 29.9104 7.70911 30.9364 6.16871C32.9368 3.16524 33.8505 2.45494 35.6125 2.53344C36.2223 2.56059 36.5534 2.63762 37.0006 2.85637ZM22.5962 16.9124V21.2625L12.5566 21.2358L2.51699 21.2091V17.8551C2.51699 14.1903 2.55736 13.87 3.09703 13.2557C3.7403 12.5233 3.08928 12.5672 13.343 12.5646L22.5962 12.5622V16.9124ZM29.7262 31.954V51.3458L27.0262 51.3178L24.3263 51.2898L24.2997 31.926L24.2733 12.5622H26.9997H29.7262V31.954ZM50.0345 12.6737C50.4541 12.8322 50.901 13.2795 51.1269 13.7675C51.3037 14.149 51.3213 14.5047 51.3234 17.7241L51.3257 21.2615H41.3123H31.2989V16.9118V12.5622H40.5191C46.7786 12.5622 49.8341 12.598 50.0345 12.6737ZM22.701 37.0879V51.3422L14.8109 51.3416C9.70692 51.3413 6.78312 51.3028 6.53084 51.2328C6.02807 51.0932 5.54963 50.6871 5.29096 50.1803C5.09059 49.7876 5.08587 49.4709 5.08587 36.3061V22.8337H13.8935H22.701V37.0879ZM48.9141 36.3337V49.8338L48.6137 50.3073C48.0232 51.2382 48.6024 51.1811 39.3988 51.2131L31.2989 51.2412V37.0374V22.8337H40.1065H48.9141V36.3337Z" fill="#4E86F8"/>
<path fill-rule="evenodd" clip-rule="evenodd" d="M17.8254 1.04219C16.5843 1.20308 15.7263 1.63626 14.7983 2.57044C13.4044 3.97386 12.9267 6.10813 13.5811 8.0094C13.8717 8.85344 14.3215 9.51344 15.1068 10.2477L15.7799 10.8771L9.77749 10.9073L3.77522 10.9376L3.18018 11.2164C2.38435 11.5893 1.69338 12.2464 1.3395 12.9665L1.04906 13.5579L1.01855 17.9818C0.98206 23.2754 0.855398 22.8337 2.41025 22.8337H3.40446L3.43256 36.4853L3.46066 50.1369L3.7359 50.7134C4.12459 51.5271 4.65021 52.086 5.41867 52.5025L6.08197 52.862H27H47.918L48.4026 52.638C48.9789 52.3717 49.6901 51.7519 50.021 51.2279C50.6153 50.2869 50.5917 50.9056 50.5917 36.2828V22.8337H51.5878C53.1449 22.8337 53.0179 23.276 52.9814 17.9818L52.9509 13.5579L52.6605 12.9665C52.3066 12.2464 51.6156 11.5893 50.8198 11.2164L50.2248 10.9376L44.2225 10.9073L38.2201 10.8771L38.8932 10.2477C39.6785 9.51344 40.1283 8.85344 40.4189 8.0094C41.607 4.55745 39.092 1.03297 35.4406 1.03297C33.5698 1.03297 32.2607 1.7592 30.8365 3.58711C29.7254 5.01327 27.7833 8.08486 27.0544 9.56909C27.0161 9.64697 26.9838 9.64697 26.9456 9.56909C25.775 7.18558 23.1212 3.28295 21.9974 2.29227C20.8872 1.31365 19.3302 0.847034 17.8254 1.04219ZM20.1141 2.87051C20.4901 3.05561 20.943 3.40641 21.2916 3.78279C22.386 4.96432 24.2126 7.72599 25.2107 9.70807L25.7244 10.728L22.2467 10.7572C20.334 10.7734 18.6641 10.761 18.5359 10.7298C18.213 10.6511 16.3241 9.21357 15.84 8.67788C14.6827 7.39741 14.5356 5.59539 15.4737 4.19103C15.928 3.51091 16.7302 2.89211 17.4685 2.65209C18.2098 2.41102 19.3759 2.50734 20.1141 2.87051ZM37.0006 2.85637C37.7534 3.22446 38.4406 3.91412 38.8143 4.6763C39.0673 5.19218 39.1094 5.40495 39.1099 6.17059C39.1103 6.96978 39.074 7.13716 38.7635 7.76823C38.3804 8.54624 37.8127 9.10583 36.3343 10.1622L35.4691 10.7804H31.8625H28.2559L28.6653 9.96811C29.2306 8.8461 29.9104 7.70911 30.9364 6.16871C32.9368 3.16524 33.8505 2.45494 35.6125 2.53344C36.2223 2.56059 36.5534 2.63762 37.0006 2.85637ZM22.5962 16.9124V21.2625L12.5566 21.2358L2.51699 21.2091V17.8551C2.51699 14.1903 2.55736 13.87 3.09703 13.2557C3.7403 12.5233 3.08928 12.5672 13.343 12.5646L22.5962 12.5622V16.9124ZM29.7262 31.954V51.3458L27.0262 51.3178L24.3263 51.2898L24.2997 31.926L24.2733 12.5622H26.9997H29.7262V31.954ZM50.0345 12.6737C50.4541 12.8322 50.901 13.2795 51.1269 13.7675C51.3037 14.149 51.3213 14.5047 51.3234 17.7241L51.3257 21.2615H41.3123H31.2989V16.9118V12.5622H40.5191C46.7786 12.5622 49.8341 12.598 50.0345 12.6737ZM22.701 37.0879V51.3422L14.8109 51.3416C9.70692 51.3413 6.78312 51.3028 6.53084 51.2328C6.02807 51.0932 5.54963 50.6871 5.29096 50.1803C5.09059 49.7876 5.08587 49.4709 5.08587 36.3061V22.8337H13.8935H22.701V37.0879ZM48.9141 36.3337V49.8338L48.6137 50.3073C48.0232 51.2382 48.6024 51.1811 39.3988 51.2131L31.2989 51.2412V37.0374V22.8337H40.1065H48.9141V36.3337Z" stroke="#4E86F8" stroke-width="1.2" mask="url(#path-1-outside-1_0_584)"/>
</svg>
