<svg width="229" height="46" viewBox="0 0 229 46" fill="none" xmlns="http://www.w3.org/2000/svg">
<path d="M47.4068 9.48828H40.5685C40.3361 9.48828 40.1416 9.68274 40.1416 9.91513V10.2453C40.1416 10.4777 40.3361 10.6721 40.5685 10.6721H43.3957V20.6678C43.3957 20.9002 43.5902 21.0946 43.8225 21.0946H44.1527C44.3851 21.0946 44.5795 20.9002 44.5795 20.6678V10.6721H47.4068C47.6391 10.6721 47.8336 10.4777 47.8336 10.2453V9.91513C47.8336 9.66012 47.6281 9.48828 47.4068 9.48828Z" fill="white" stroke="white" stroke-width="0.5" stroke-linejoin="round"/>
<path d="M56.013 10.7523L56.013 10.7523L56.0116 10.751C55.1638 9.91563 54.1342 9.48828 52.9476 9.48828H49.3634C49.131 9.48828 48.9365 9.68274 48.9365 9.91513V20.6678C48.9365 20.9002 49.131 21.0946 49.3634 21.0946H49.6935C49.9259 21.0946 50.1204 20.9002 50.1204 20.6678V18.1589H52.9476C54.1331 18.1589 55.1759 17.7322 56.0136 16.8824C56.8492 16.0464 57.2888 15.0048 57.2888 13.8177C57.2888 12.6308 56.8612 11.6006 56.013 10.7523ZM52.9476 16.975H50.1204V10.6603H52.9476C53.8136 10.6603 54.5624 10.9647 55.1744 11.5877L55.1744 11.5877L55.176 11.5893C55.7901 12.2034 56.1049 12.9536 56.1049 13.8177C56.1049 14.6951 55.8009 15.4321 55.1776 16.0445L55.176 16.0461C54.5619 16.6602 53.8117 16.975 52.9476 16.975Z" fill="white" stroke="white" stroke-width="0.5" stroke-linejoin="round"/>
<path d="M62.5093 9.72087L62.5092 9.72083L62.5064 9.72687L57.4838 20.4795L57.4834 20.4793L57.4782 20.4925C57.4342 20.6025 57.4175 20.761 57.5221 20.9004L57.7221 20.7504L57.5221 20.9004C57.5945 20.997 57.7222 21.0829 57.8753 21.0829H58.2408C58.41 21.0829 58.5535 20.9906 58.6295 20.8386L58.6296 20.8386L58.6323 20.8328L59.3431 19.3144H66.8773L67.5858 20.828C67.6525 20.984 67.8171 21.0829 67.9795 21.0829H68.345C68.4981 21.0829 68.6258 20.997 68.6983 20.9004L68.4983 20.7504L68.6983 20.9004C68.7985 20.7667 68.7925 20.5946 68.7355 20.4772L63.7043 9.7315C63.6377 9.57552 63.473 9.47656 63.3106 9.47656H62.898C62.7287 9.47656 62.5853 9.56888 62.5093 9.72087ZM66.3255 18.1541H59.8949L63.1102 11.2612L66.3255 18.1541Z" fill="white" stroke="white" stroke-width="0.5" stroke-linejoin="round"/>
<path d="M79.2512 9.48828H78.9211C78.6887 9.48828 78.4942 9.68274 78.4942 9.91513V14.6995H71.2009V9.91513C71.2009 9.68274 71.0065 9.48828 70.7741 9.48828H70.4439C70.2115 9.48828 70.0171 9.68274 70.0171 9.91513V20.6678C70.0171 20.9002 70.2116 21.0946 70.4439 21.0946H70.7741C71.0065 21.0946 71.2009 20.9002 71.2009 20.6678V15.8834H78.4942V20.6678C78.4942 20.9002 78.6887 21.0946 78.9211 21.0946H79.2512C79.4836 21.0946 79.6781 20.9002 79.6781 20.6678V9.91513C79.6781 9.66012 79.4725 9.48828 79.2512 9.48828Z" fill="white" stroke="white" stroke-width="0.5" stroke-linejoin="round"/>
<path d="M91.9216 19.0436C91.9125 19.0299 91.902 19.0171 91.8904 19.0055L91.6546 18.7697C91.4862 18.6013 91.2218 18.6013 91.0534 18.7697C90.0865 19.7366 88.9122 20.2174 87.5635 20.2174C86.2041 20.2174 85.0291 19.7256 84.0612 18.7691C83.0948 17.8025 82.614 16.6285 82.614 15.2679C82.614 13.9095 83.1052 12.7462 84.0617 11.778C85.0285 10.8229 86.2029 10.342 87.5635 10.342C88.9222 10.342 90.0856 10.8334 91.054 11.7903C91.2098 11.9455 91.4926 11.9724 91.6608 11.7835L91.8904 11.5539C92.0588 11.3856 92.0588 11.1212 91.8904 10.9528C90.7 9.76241 89.2452 9.1582 87.5635 9.1582C85.8712 9.1582 84.4039 9.76157 83.2243 10.9533C82.0342 12.1436 81.4302 13.5982 81.4302 15.2797C81.4302 16.972 82.0335 18.4393 83.2252 19.6189C84.4159 20.8093 85.8825 21.413 87.5635 21.413C89.2452 21.413 90.7 20.8088 91.8904 19.6184C91.9892 19.5196 92.0108 19.3976 92.0108 19.312C92.0108 19.1897 91.9535 19.0914 91.9216 19.0436Z" fill="white" stroke="white" stroke-width="0.5" stroke-linejoin="round"/>
<path d="M95.2751 10.9519L95.2751 10.9519L95.2741 10.9529C94.0837 12.1432 93.4795 13.598 93.4795 15.2798C93.4795 16.9721 94.0829 18.4393 95.2745 19.6189C96.3225 20.6667 97.5745 21.253 99.0209 21.3837V21.9648C99.0209 22.1972 99.2153 22.3917 99.4477 22.3917H99.7779C100.01 22.3917 100.205 22.1972 100.205 21.9648V21.397C101.643 21.2748 102.905 20.6768 103.951 19.6303C105.142 18.4395 105.746 16.9728 105.746 15.2916C105.746 13.61 105.142 12.1554 103.952 10.9651C102.905 9.90694 101.643 9.30836 100.205 9.18615V8.60654C100.205 8.37415 100.01 8.17969 99.7779 8.17969H99.4477C99.2153 8.17969 99.0209 8.37415 99.0209 8.60654V9.18789C97.5833 9.32005 96.3218 9.91678 95.2751 10.9519ZM100.205 20.2084V10.3631C101.308 10.4816 102.29 10.9549 103.113 11.7887L103.115 11.7898C104.081 12.7567 104.562 13.931 104.562 15.2798C104.562 16.6393 104.07 17.8145 103.114 18.7826L103.113 18.7827C102.289 19.6172 101.316 20.0904 100.205 20.2084ZM96.1116 11.7893C96.9354 10.9656 97.9088 10.4927 99.0209 10.3653V20.206C97.9086 20.0786 96.935 19.6055 96.111 18.7815C95.1443 17.8148 94.6633 16.6406 94.6633 15.2798C94.6633 13.9211 95.1547 12.7577 96.1116 11.7893Z" fill="white" stroke="white" stroke-width="0.5" stroke-linejoin="round"/>
<path d="M112.983 9.1582C111.291 9.1582 109.824 9.76157 108.644 10.9533C107.454 12.1436 106.85 13.5982 106.85 15.2797C106.85 16.972 107.453 18.4393 108.645 19.6189C109.836 20.8093 111.302 21.413 112.983 21.413C114.665 21.413 116.12 20.8088 117.31 19.6184C118.501 18.4277 119.105 16.9609 119.105 15.2797C119.105 13.5979 118.501 12.1432 117.31 10.9528C116.12 9.76241 114.665 9.1582 112.983 9.1582ZM112.983 10.342C114.342 10.342 115.505 10.8334 116.474 11.7903C117.44 12.7571 117.921 13.9312 117.921 15.2797C117.921 16.639 117.429 17.8141 116.473 18.782C115.506 19.7486 114.332 20.2292 112.983 20.2292C111.624 20.2292 110.449 19.7374 109.481 18.7809C108.515 17.8143 108.034 16.6403 108.034 15.2797C108.034 13.921 108.525 12.7576 109.482 11.7892C110.449 10.8229 111.623 10.342 112.983 10.342Z" fill="white" stroke="white" stroke-width="0.5" stroke-linejoin="round"/>
<path d="M124.867 16.975H122.04V10.6603H124.867C125.733 10.6603 126.482 10.9647 127.094 11.5877L127.094 11.5877L127.095 11.5893C127.71 12.2034 128.024 12.9536 128.024 13.8177C128.024 14.6951 127.72 15.4321 127.097 16.0445L127.097 16.0445L127.094 16.0477C126.481 16.671 125.744 16.975 124.867 16.975ZM124.867 9.48828H121.283C121.05 9.48828 120.856 9.68274 120.856 9.91513V20.6678C120.856 20.9002 121.05 21.0946 121.283 21.0946H121.613C121.845 21.0946 122.04 20.9002 122.04 20.6678V18.1589H124.867C126.053 18.1589 127.095 17.7322 127.933 16.8824C128.769 16.0464 129.208 15.0048 129.208 13.8177C129.208 12.6322 128.782 11.5893 127.932 10.7517C127.094 9.9147 126.052 9.48828 124.867 9.48828Z" fill="white" stroke="white" stroke-width="0.5" stroke-linejoin="round"/>
<path d="M141.48 9.65903L141.48 9.65901L141.478 9.66224L136.822 16.0801L132.167 9.66224L132.167 9.66222L132.165 9.65903C132.082 9.54891 131.961 9.48828 131.823 9.48828H131.411C131.178 9.48828 130.984 9.68274 130.984 9.91513V20.6678C130.984 20.9002 131.178 21.0946 131.411 21.0946H131.741C131.973 21.0946 132.168 20.9002 132.168 20.6678V11.6769L136.266 17.3363L136.266 17.3363L136.269 17.3397C136.351 17.4498 136.473 17.5104 136.61 17.5104H137.058C137.196 17.5104 137.317 17.4498 137.4 17.3397L137.4 17.3397L137.402 17.3363L141.501 11.6769V20.6678C141.501 20.9002 141.695 21.0946 141.928 21.0946H142.258C142.49 21.0946 142.685 20.9002 142.685 20.6678V9.91513C142.685 9.89689 142.683 9.87871 142.679 9.8609C142.634 9.65872 142.463 9.48828 142.234 9.48828H141.821C141.684 9.48828 141.563 9.54891 141.48 9.65903Z" fill="white" stroke="white" stroke-width="0.5" stroke-linejoin="round"/>
<path d="M148.873 9.72087L148.872 9.72083L148.87 9.72687L143.847 20.4795L143.847 20.4793L143.841 20.4925C143.797 20.6025 143.781 20.761 143.885 20.9004L144.085 20.7504L143.885 20.9004C143.958 20.997 144.086 21.0829 144.239 21.0829H144.604C144.773 21.0829 144.917 20.9906 144.993 20.8386L144.993 20.8386L144.996 20.8328L145.706 19.3144H153.241L153.949 20.828C154.016 20.984 154.18 21.0829 154.343 21.0829H154.708C154.861 21.0829 154.989 20.997 155.062 20.9004L154.862 20.7504L155.062 20.9004C155.162 20.7667 155.156 20.5946 155.099 20.4772L150.068 9.7315C150.001 9.57552 149.836 9.47656 149.674 9.47656H149.261C149.092 9.47656 148.949 9.56888 148.873 9.72087ZM152.677 18.1541H146.246L149.462 11.2612L152.677 18.1541Z" fill="white" stroke="white" stroke-width="0.5" stroke-linejoin="round"/>
<path d="M164.635 19.899H163.093V9.91513C163.093 9.68274 162.899 9.48828 162.667 9.48828H162.336C162.104 9.48828 161.91 9.68274 161.91 9.91513V19.899H157.552V9.91513C157.552 9.68274 157.358 9.48828 157.125 9.48828H156.795C156.563 9.48828 156.368 9.68274 156.368 9.91513V20.6678C156.368 20.9002 156.563 21.0946 156.795 21.0946H163.867V22.283C163.867 22.5154 164.061 22.7099 164.294 22.7099H164.635C164.868 22.7099 165.062 22.5154 165.062 22.283V20.3259C165.062 20.0935 164.868 19.899 164.635 19.899Z" fill="white" stroke="white" stroke-width="0.5" stroke-linejoin="round"/>
<path d="M174.375 9.65903L174.375 9.65901L174.372 9.66226L167.668 18.9068V9.91513C167.668 9.68274 167.474 9.48828 167.241 9.48828H166.911C166.679 9.48828 166.484 9.68274 166.484 9.91513V20.6678C166.484 20.9002 166.679 21.0946 166.911 21.0946H167.324C167.462 21.0946 167.583 21.034 167.665 20.9239L167.665 20.9239L167.668 20.9206L174.372 11.6761V20.6678C174.372 20.9002 174.566 21.0946 174.799 21.0946H175.129C175.361 21.0946 175.556 20.9002 175.556 20.6678V9.91513C175.556 9.66012 175.35 9.48828 175.129 9.48828H174.716C174.579 9.48828 174.457 9.54891 174.375 9.65903Z" fill="white" stroke="white" stroke-width="0.5" stroke-linejoin="round"/>
<path d="M179.382 21.1406L179.382 21.1407L179.384 21.1369L181.022 18.2952C181.364 18.3763 181.723 18.4206 182.091 18.4206H185.249V20.9295C185.249 21.1619 185.443 21.3563 185.675 21.3563H186.006C186.238 21.3563 186.432 21.1619 186.432 20.9295V10.1769C186.432 9.92184 186.227 9.75 186.006 9.75H182.091C180.905 9.75 179.862 10.1769 179.025 11.0271C178.19 11.8736 177.75 12.9027 177.75 14.0912C177.75 15.2767 178.177 16.3196 179.026 17.1572C179.298 17.429 179.595 17.6603 179.91 17.851L178.256 20.7206C178.22 20.7819 178.195 20.8545 178.195 20.9354C178.195 21.0172 178.22 21.0906 178.257 21.1524L178.472 21.0238L178.257 21.1524C178.347 21.3028 178.499 21.3563 178.625 21.3563H179.014C179.173 21.3563 179.308 21.2636 179.382 21.1406ZM182.091 10.922H185.249V17.2368H182.091C181.214 17.2368 180.477 16.9327 179.864 16.3094L179.864 16.3094L179.863 16.3078C179.249 15.6937 178.934 14.9435 178.934 14.0794C178.934 13.202 179.238 12.4649 179.861 11.8525L179.861 11.8525L179.863 11.851C180.477 11.2365 181.216 10.922 182.091 10.922Z" fill="white" stroke="white" stroke-width="0.5" stroke-linejoin="round"/>
<path d="M7.27441 0C9.76214 0.966794 12.1555 2.16939 14.3131 3.67853C15.1385 4.25625 15.9166 4.90471 16.5886 5.62391C17.5437 4.60996 18.6991 3.74928 19.9017 2.99471C21.7881 1.81569 23.8042 0.813519 25.9147 0.0117873C25.6789 0.754568 25.4431 1.49735 25.2073 2.24013C23.0025 3.23051 20.8449 4.37415 19.0056 5.89508C18.4397 6.37848 17.9091 6.89725 17.4729 7.48676C17.1074 7.95836 16.8716 8.48892 16.6004 9.00769C16.3411 8.5125 16.117 8.00552 15.7751 7.55749C15.0323 6.53175 14.0184 5.70644 12.9573 4.96366C11.4128 3.90254 9.72677 3.01828 7.99361 2.25192C7.74602 1.48556 7.51022 0.742781 7.27441 0Z" fill="white"/>
<path d="M10.3636 24.4652C10.9177 24.4652 11.6605 23.8638 12.3797 22.8381C13.0517 21.4587 13.4997 20.1382 13.7355 18.9002C12.1321 19.6312 9.67973 20.8338 8.37102 21.7652C8.37102 22.1189 8.54787 22.9089 9.12559 23.6398C9.32602 23.8992 9.82121 24.4652 10.3636 24.4652ZM13.5823 14.7265C13.4526 14.2549 13.2757 13.8068 13.0635 13.3588C11.5072 10.1519 8.00552 8.02966 5.34094 6.80348C4.39773 6.36725 3.4781 6.01354 2.67637 5.73057C2.79427 6.14323 2.92396 6.57947 3.06544 7.01571C4.33878 11.0126 5.34094 12.2741 5.70644 12.6278C6.04835 12.9579 7.192 13.7951 10.4461 14.3492C11.743 14.585 12.922 14.6793 13.5823 14.7265ZM10.3636 26.387C7.41601 26.387 5.48243 21.6001 6.99157 20.4211C9.09022 18.7941 14.0775 16.6601 14.0775 16.6601C14.0775 16.6601 6.89725 16.4478 4.38594 14.0073C1.86285 11.5667 0 2.97168 0 2.97168C0 2.97168 22.1537 7.51089 14.0421 23.8167C12.7216 26.045 11.4954 26.387 10.3636 26.387Z" fill="white"/>
<path d="M22.861 24.5004C22.3068 24.5004 21.564 23.8991 20.8448 22.8733C20.1728 21.4939 19.7248 20.1734 19.489 18.9354C21.0924 19.6664 23.5448 20.869 24.8535 21.8004C24.8535 22.1541 24.6766 22.9441 24.0989 23.6751C23.9103 23.9227 23.4033 24.5004 22.861 24.5004ZM19.6422 14.7499C19.7719 14.2783 19.9488 13.8303 20.161 13.3823C21.7173 10.1753 25.219 8.0531 27.8836 6.82692C28.8268 6.39069 29.7464 6.03698 30.5481 5.75401C30.4302 6.16667 30.3006 6.60291 30.1591 7.03914C28.8857 11.036 27.8836 12.2976 27.5181 12.6513C27.1762 12.9814 26.0325 13.8185 22.7784 14.3726C21.4933 14.6084 20.3025 14.7027 19.6422 14.7499ZM22.861 26.4104C25.8085 26.4104 27.7421 21.6236 26.2329 20.4446C24.1343 18.8175 19.1471 16.6835 19.1471 16.6835C19.1471 16.6835 26.3273 16.4713 28.8386 14.0307C31.3617 11.5901 33.2245 2.99512 33.2245 2.99512C33.2245 2.99512 11.0826 7.53434 19.1942 23.8519C20.5147 26.0685 21.7409 26.4104 22.861 26.4104Z" fill="white"/>
<path d="M10.3636 24.4652C10.9177 24.4652 11.6605 23.8638 12.3797 22.8381C13.0517 21.4587 13.4997 20.1382 13.7355 18.9002C12.1321 19.6312 9.67973 20.8338 8.37102 21.7652C8.37102 22.1189 8.54787 22.9089 9.12559 23.6398C9.32602 23.8992 9.82121 24.4652 10.3636 24.4652ZM13.5823 14.7265C13.4526 14.2549 13.2757 13.8068 13.0635 13.3588C11.5072 10.1519 8.00552 8.02966 5.34094 6.80348C4.39773 6.36725 3.4781 6.01354 2.67637 5.73057C2.79427 6.14323 2.92396 6.57947 3.06544 7.01571C4.33878 11.0126 5.34094 12.2741 5.70644 12.6278C6.04835 12.9579 7.192 13.7951 10.4461 14.3492C11.743 14.585 12.922 14.6793 13.5823 14.7265ZM10.3636 26.387C7.41601 26.387 5.48243 21.6001 6.99157 20.4211C9.09022 18.7941 14.0775 16.6601 14.0775 16.6601C14.0775 16.6601 6.89725 16.4478 4.38594 14.0073C1.86285 11.5667 0 2.97168 0 2.97168C0 2.97168 22.1537 7.51089 14.0421 23.8167C12.7216 26.045 11.4954 26.387 10.3636 26.387Z" fill="white"/>
<path d="M22.861 24.5004C22.3068 24.5004 21.564 23.8991 20.8448 22.8733C20.1728 21.4939 19.7248 20.1734 19.489 18.9354C21.0924 19.6664 23.5448 20.869 24.8535 21.8004C24.8535 22.1541 24.6766 22.9441 24.0989 23.6751C23.9103 23.9227 23.4033 24.5004 22.861 24.5004ZM19.6422 14.7499C19.7719 14.2783 19.9488 13.8303 20.161 13.3823C21.7173 10.1753 25.219 8.0531 27.8836 6.82692C28.8268 6.39069 29.7464 6.03698 30.5481 5.75401C30.4302 6.16667 30.3006 6.60291 30.1591 7.03914C28.8857 11.036 27.8836 12.2976 27.5181 12.6513C27.1762 12.9814 26.0325 13.8185 22.7784 14.3726C21.4933 14.6084 20.3025 14.7027 19.6422 14.7499ZM22.861 26.4104C25.8085 26.4104 27.7421 21.6236 26.2329 20.4446C24.1343 18.8175 19.1471 16.6835 19.1471 16.6835C19.1471 16.6835 26.3273 16.4713 28.8386 14.0307C31.3617 11.5901 33.2245 2.99512 33.2245 2.99512C33.2245 2.99512 11.0826 7.53434 19.1942 23.8519C20.5147 26.0685 21.7409 26.4104 22.861 26.4104Z" fill="white"/>
<path d="M6.996 34.6V43H5.88V35.656H2.016V43H0.9V34.6H6.996ZM12.0024 36.844C12.8424 36.844 13.5584 37.152 14.1504 37.768C14.7424 38.376 15.0384 39.12 15.0384 40C15.0384 40.88 14.7424 41.628 14.1504 42.244C13.5584 42.852 12.8424 43.156 12.0024 43.156C11.0104 43.156 10.2544 42.76 9.73444 41.968V45.4H8.69044V37H9.73444V38.032C10.2544 37.24 11.0104 36.844 12.0024 36.844ZM11.8704 42.148C12.4704 42.148 12.9744 41.944 13.3824 41.536C13.7904 41.12 13.9944 40.608 13.9944 40C13.9944 39.392 13.7904 38.884 13.3824 38.476C12.9744 38.06 12.4704 37.852 11.8704 37.852C11.2624 37.852 10.7544 38.06 10.3464 38.476C9.93844 38.884 9.73444 39.392 9.73444 40C9.73444 40.608 9.93844 41.12 10.3464 41.536C10.7544 41.944 11.2624 42.148 11.8704 42.148ZM21.3482 42.244C20.7322 42.852 19.9842 43.156 19.1042 43.156C18.2242 43.156 17.4762 42.852 16.8602 42.244C16.2522 41.636 15.9482 40.888 15.9482 40C15.9482 39.112 16.2522 38.364 16.8602 37.756C17.4762 37.148 18.2242 36.844 19.1042 36.844C19.9842 36.844 20.7322 37.148 21.3482 37.756C21.9642 38.364 22.2722 39.112 22.2722 40C22.2722 40.888 21.9642 41.636 21.3482 42.244ZM19.1042 42.136C19.7042 42.136 20.2082 41.932 20.6162 41.524C21.0242 41.116 21.2282 40.608 21.2282 40C21.2282 39.392 21.0242 38.884 20.6162 38.476C20.2082 38.068 19.7042 37.864 19.1042 37.864C18.5122 37.864 18.0122 38.068 17.6042 38.476C17.1962 38.884 16.9922 39.392 16.9922 40C16.9922 40.608 17.1962 41.116 17.6042 41.524C18.0122 41.932 18.5122 42.136 19.1042 42.136ZM27.4989 39.916C28.1149 40.172 28.4229 40.636 28.4229 41.308C28.4229 41.804 28.2549 42.212 27.9189 42.532C27.5909 42.844 27.1189 43 26.5029 43H23.5029V37H26.2629C26.8629 37 27.3269 37.152 27.6549 37.456C27.9829 37.752 28.1469 38.144 28.1469 38.632C28.1469 39.208 27.9309 39.636 27.4989 39.916ZM26.2149 37.936H24.5229V39.508H26.2149C26.8229 39.508 27.1269 39.24 27.1269 38.704C27.1269 38.192 26.8229 37.936 26.2149 37.936ZM26.4429 42.052C26.7469 42.052 26.9789 41.98 27.1389 41.836C27.3069 41.692 27.3909 41.488 27.3909 41.224C27.3909 40.976 27.3069 40.784 27.1389 40.648C26.9789 40.504 26.7469 40.432 26.4429 40.432H24.5229V42.052H26.4429ZM30.2818 40.48C30.3858 41.016 30.6298 41.432 31.0138 41.728C31.4058 42.024 31.8858 42.172 32.4538 42.172C33.2458 42.172 33.8218 41.88 34.1818 41.296L35.0698 41.8C34.4858 42.704 33.6058 43.156 32.4298 43.156C31.4778 43.156 30.7018 42.86 30.1018 42.268C29.5098 41.668 29.2138 40.912 29.2138 40C29.2138 39.096 29.5058 38.344 30.0898 37.744C30.6738 37.144 31.4298 36.844 32.3578 36.844C33.2378 36.844 33.9538 37.156 34.5058 37.78C35.0658 38.396 35.3458 39.14 35.3458 40.012C35.3458 40.164 35.3338 40.32 35.3098 40.48H30.2818ZM32.3578 37.828C31.7978 37.828 31.3338 37.988 30.9658 38.308C30.5978 38.62 30.3698 39.04 30.2818 39.568H34.2898C34.2018 39 33.9778 38.568 33.6178 38.272C33.2578 37.976 32.8378 37.828 32.3578 37.828ZM39.8579 36.844C40.6979 36.844 41.4139 37.152 42.0059 37.768C42.5979 38.376 42.8939 39.12 42.8939 40C42.8939 40.88 42.5979 41.628 42.0059 42.244C41.4139 42.852 40.6979 43.156 39.8579 43.156C38.8659 43.156 38.1099 42.76 37.5899 41.968V45.4H36.5459V37H37.5899V38.032C38.1099 37.24 38.8659 36.844 39.8579 36.844ZM39.7259 42.148C40.3259 42.148 40.8299 41.944 41.2379 41.536C41.6459 41.12 41.8499 40.608 41.8499 40C41.8499 39.392 41.6459 38.884 41.2379 38.476C40.8299 38.06 40.3259 37.852 39.7259 37.852C39.1179 37.852 38.6099 38.06 38.2019 38.476C37.7939 38.884 37.5899 39.392 37.5899 40C37.5899 40.608 37.7939 41.12 38.2019 41.536C38.6099 41.944 39.1179 42.148 39.7259 42.148ZM49.2157 43H47.9197L45.1837 40.156V43H44.1397V37H45.1837V39.652L47.7757 37H49.1197L46.2517 39.904L49.2157 43ZM54.6038 37H55.6478V43H54.6038V41.968C54.0838 42.76 53.3278 43.156 52.3358 43.156C51.4958 43.156 50.7798 42.852 50.1878 42.244C49.5958 41.628 49.2998 40.88 49.2998 40C49.2998 39.12 49.5958 38.376 50.1878 37.768C50.7798 37.152 51.4958 36.844 52.3358 36.844C53.3278 36.844 54.0838 37.24 54.6038 38.032V37ZM52.4678 42.148C53.0758 42.148 53.5838 41.944 53.9918 41.536C54.3998 41.12 54.6038 40.608 54.6038 40C54.6038 39.392 54.3998 38.884 53.9918 38.476C53.5838 38.06 53.0758 37.852 52.4678 37.852C51.8678 37.852 51.3638 38.06 50.9558 38.476C50.5478 38.884 50.3438 39.392 50.3438 40C50.3438 40.608 50.5478 41.12 50.9558 41.536C51.3638 41.944 51.8678 42.148 52.4678 42.148ZM64.3815 37H65.4255V43H64.3815V40.492H61.2735V43H60.2295V37H61.2735V39.496H64.3815V37ZM71.9827 37H73.0267V43H71.9827V41.968C71.4627 42.76 70.7067 43.156 69.7147 43.156C68.8747 43.156 68.1587 42.852 67.5667 42.244C66.9747 41.628 66.6787 40.88 66.6787 40C66.6787 39.12 66.9747 38.376 67.5667 37.768C68.1587 37.152 68.8747 36.844 69.7147 36.844C70.7067 36.844 71.4627 37.24 71.9827 38.032V37ZM69.8467 42.148C70.4547 42.148 70.9627 41.944 71.3707 41.536C71.7787 41.12 71.9827 40.608 71.9827 40C71.9827 39.392 71.7787 38.884 71.3707 38.476C70.9627 38.06 70.4547 37.852 69.8467 37.852C69.2467 37.852 68.7427 38.06 68.3347 38.476C67.9267 38.884 67.7227 39.392 67.7227 40C67.7227 40.608 67.9267 41.12 68.3347 41.536C68.7427 41.944 69.2467 42.148 69.8467 42.148ZM82.8044 37V43H81.7604V37.996H78.6524V43H77.6084V37H82.8044ZM89.4576 42.244C88.8416 42.852 88.0936 43.156 87.2136 43.156C86.3336 43.156 85.5856 42.852 84.9696 42.244C84.3616 41.636 84.0576 40.888 84.0576 40C84.0576 39.112 84.3616 38.364 84.9696 37.756C85.5856 37.148 86.3336 36.844 87.2136 36.844C88.0936 36.844 88.8416 37.148 89.4576 37.756C90.0736 38.364 90.3816 39.112 90.3816 40C90.3816 40.888 90.0736 41.636 89.4576 42.244ZM87.2136 42.136C87.8136 42.136 88.3176 41.932 88.7256 41.524C89.1336 41.116 89.3376 40.608 89.3376 40C89.3376 39.392 89.1336 38.884 88.7256 38.476C88.3176 38.068 87.8136 37.864 87.2136 37.864C86.6216 37.864 86.1216 38.068 85.7136 38.476C85.3056 38.884 85.1016 39.392 85.1016 40C85.1016 40.608 85.3056 41.116 85.7136 41.524C86.1216 41.932 86.6216 42.136 87.2136 42.136ZM96.4054 37V43H95.3614V38.008H92.9974V40.456C92.9974 41.44 92.7974 42.128 92.3974 42.52C92.0054 42.904 91.4494 43.064 90.7294 43V42.016C91.1374 42.072 91.4414 41.984 91.6414 41.752C91.8494 41.512 91.9534 41.072 91.9534 40.432V37H96.4054ZM102.343 37H103.183V43H102.151V38.788L98.8273 43H97.9873V37H99.0193V41.212L102.343 37ZM108.708 37V38.008H105.816V43H104.772V37H108.708ZM112.936 36.844C113.776 36.844 114.492 37.152 115.084 37.768C115.676 38.376 115.972 39.12 115.972 40C115.972 40.88 115.676 41.628 115.084 42.244C114.492 42.852 113.776 43.156 112.936 43.156C111.944 43.156 111.188 42.76 110.668 41.968V45.4H109.624V37H110.668V38.032C111.188 37.24 111.944 36.844 112.936 36.844ZM112.804 42.148C113.404 42.148 113.908 41.944 114.316 41.536C114.724 41.12 114.928 40.608 114.928 40C114.928 39.392 114.724 38.884 114.316 38.476C113.908 38.06 113.404 37.852 112.804 37.852C112.196 37.852 111.688 38.06 111.28 38.476C110.872 38.884 110.668 39.392 110.668 40C110.668 40.608 110.872 41.12 111.28 41.536C111.688 41.944 112.196 42.148 112.804 42.148ZM122.186 37H123.23V43H122.186V41.968C121.666 42.76 120.91 43.156 119.918 43.156C119.078 43.156 118.362 42.852 117.77 42.244C117.178 41.628 116.882 40.88 116.882 40C116.882 39.12 117.178 38.376 117.77 37.768C118.362 37.152 119.078 36.844 119.918 36.844C120.91 36.844 121.666 37.24 122.186 38.032V37ZM120.05 42.148C120.658 42.148 121.166 41.944 121.574 41.536C121.982 41.12 122.186 40.608 122.186 40C122.186 39.392 121.982 38.884 121.574 38.476C121.166 38.06 120.658 37.852 120.05 37.852C119.45 37.852 118.946 38.06 118.538 38.476C118.13 38.884 117.926 39.392 117.926 40C117.926 40.608 118.13 41.12 118.538 41.536C118.946 41.944 119.45 42.148 120.05 42.148ZM130.836 37.9C131.396 38.476 131.676 39.176 131.676 40C131.676 40.824 131.396 41.524 130.836 42.1C130.276 42.676 129.528 43.016 128.592 43.12V45.4H127.56V43.12C126.624 43.016 125.876 42.676 125.316 42.1C124.756 41.524 124.476 40.824 124.476 40C124.476 39.176 124.756 38.476 125.316 37.9C125.876 37.324 126.624 36.984 127.56 36.88V34.6H128.592V36.88C129.528 36.984 130.276 37.324 130.836 37.9ZM125.508 40C125.508 40.552 125.688 41.02 126.048 41.404C126.416 41.788 126.92 42.024 127.56 42.112V37.888C126.92 37.968 126.416 38.2 126.048 38.584C125.688 38.968 125.508 39.44 125.508 40ZM128.592 42.112C129.232 42.024 129.732 41.788 130.092 41.404C130.452 41.02 130.632 40.552 130.632 40C130.632 39.448 130.452 38.98 130.092 38.596C129.732 38.212 129.232 37.976 128.592 37.888V42.112ZM133.641 40.48C133.745 41.016 133.989 41.432 134.373 41.728C134.765 42.024 135.245 42.172 135.813 42.172C136.605 42.172 137.181 41.88 137.541 41.296L138.429 41.8C137.845 42.704 136.965 43.156 135.789 43.156C134.837 43.156 134.061 42.86 133.461 42.268C132.869 41.668 132.573 40.912 132.573 40C132.573 39.096 132.865 38.344 133.449 37.744C134.033 37.144 134.789 36.844 135.717 36.844C136.597 36.844 137.313 37.156 137.865 37.78C138.425 38.396 138.705 39.14 138.705 40.012C138.705 40.164 138.693 40.32 138.669 40.48H133.641ZM135.717 37.828C135.157 37.828 134.693 37.988 134.325 38.308C133.957 38.62 133.729 39.04 133.641 39.568H137.649C137.561 39 137.337 38.568 136.977 38.272C136.617 37.976 136.197 37.828 135.717 37.828ZM148.101 37V43H147.057V37.996H143.949V43H142.905V37H148.101ZM154.754 42.244C154.138 42.852 153.39 43.156 152.51 43.156C151.63 43.156 150.882 42.852 150.266 42.244C149.658 41.636 149.354 40.888 149.354 40C149.354 39.112 149.658 38.364 150.266 37.756C150.882 37.148 151.63 36.844 152.51 36.844C153.39 36.844 154.138 37.148 154.754 37.756C155.37 38.364 155.678 39.112 155.678 40C155.678 40.888 155.37 41.636 154.754 42.244ZM152.51 42.136C153.11 42.136 153.614 41.932 154.022 41.524C154.43 41.116 154.634 40.608 154.634 40C154.634 39.392 154.43 38.884 154.022 38.476C153.614 38.068 153.11 37.864 152.51 37.864C151.918 37.864 151.418 38.068 151.01 38.476C150.602 38.884 150.398 39.392 150.398 40C150.398 40.608 150.602 41.116 151.01 41.524C151.418 41.932 151.918 42.136 152.51 42.136ZM163.905 39.916C164.521 40.172 164.829 40.636 164.829 41.308C164.829 41.804 164.661 42.212 164.325 42.532C163.997 42.844 163.525 43 162.909 43H159.909V37H162.669C163.269 37 163.733 37.152 164.061 37.456C164.389 37.752 164.553 38.144 164.553 38.632C164.553 39.208 164.337 39.636 163.905 39.916ZM162.621 37.936H160.929V39.508H162.621C163.229 39.508 163.533 39.24 163.533 38.704C163.533 38.192 163.229 37.936 162.621 37.936ZM162.849 42.052C163.153 42.052 163.385 41.98 163.545 41.836C163.713 41.692 163.797 41.488 163.797 41.224C163.797 40.976 163.713 40.784 163.545 40.648C163.385 40.504 163.153 40.432 162.849 40.432H160.929V42.052H162.849ZM168.776 43.156C167.872 43.156 167.12 42.856 166.52 42.256C165.92 41.648 165.62 40.896 165.62 40C165.62 39.104 165.92 38.356 166.52 37.756C167.12 37.148 167.872 36.844 168.776 36.844C169.368 36.844 169.9 36.988 170.372 37.276C170.844 37.556 171.196 37.936 171.428 38.416L170.552 38.92C170.4 38.6 170.164 38.344 169.844 38.152C169.532 37.96 169.176 37.864 168.776 37.864C168.176 37.864 167.672 38.068 167.264 38.476C166.864 38.884 166.664 39.392 166.664 40C166.664 40.6 166.864 41.104 167.264 41.512C167.672 41.92 168.176 42.124 168.776 42.124C169.176 42.124 169.536 42.032 169.856 41.848C170.176 41.656 170.42 41.4 170.588 41.08L171.476 41.596C171.22 42.068 170.852 42.448 170.372 42.736C169.892 43.016 169.36 43.156 168.776 43.156ZM173.157 40.48C173.261 41.016 173.505 41.432 173.889 41.728C174.281 42.024 174.761 42.172 175.329 42.172C176.121 42.172 176.697 41.88 177.057 41.296L177.945 41.8C177.361 42.704 176.481 43.156 175.305 43.156C174.353 43.156 173.577 42.86 172.977 42.268C172.385 41.668 172.089 40.912 172.089 40C172.089 39.096 172.381 38.344 172.965 37.744C173.549 37.144 174.305 36.844 175.233 36.844C176.113 36.844 176.829 37.156 177.381 37.78C177.941 38.396 178.221 39.14 178.221 40.012C178.221 40.164 178.209 40.32 178.185 40.48H173.157ZM175.233 37.828C174.673 37.828 174.209 37.988 173.841 38.308C173.473 38.62 173.245 39.04 173.157 39.568H177.165C177.077 39 176.853 38.568 176.493 38.272C176.133 37.976 175.713 37.828 175.233 37.828ZM180.405 36.1V35.188H183.645V36.1H180.405ZM183.777 37H184.617V43H183.585V38.788L180.261 43H179.421V37H180.453V41.212L183.777 37ZM192.362 34.6C193.138 34.6 193.782 34.86 194.294 35.38C194.814 35.892 195.074 36.532 195.074 37.3C195.074 38.06 194.814 38.7 194.294 39.22C193.782 39.74 193.138 40 192.362 40H190.43V43H189.314V34.6H192.362ZM192.362 38.956C192.826 38.956 193.21 38.8 193.514 38.488C193.818 38.168 193.97 37.772 193.97 37.3C193.97 36.82 193.818 36.424 193.514 36.112C193.21 35.8 192.826 35.644 192.362 35.644H190.43V38.956H192.362ZM200.891 42.244C200.275 42.852 199.527 43.156 198.647 43.156C197.767 43.156 197.019 42.852 196.403 42.244C195.795 41.636 195.491 40.888 195.491 40C195.491 39.112 195.795 38.364 196.403 37.756C197.019 37.148 197.767 36.844 198.647 36.844C199.527 36.844 200.275 37.148 200.891 37.756C201.507 38.364 201.815 39.112 201.815 40C201.815 40.888 201.507 41.636 200.891 42.244ZM198.647 42.136C199.247 42.136 199.751 41.932 200.159 41.524C200.567 41.116 200.771 40.608 200.771 40C200.771 39.392 200.567 38.884 200.159 38.476C199.751 38.068 199.247 37.864 198.647 37.864C198.055 37.864 197.555 38.068 197.147 38.476C196.739 38.884 196.535 39.392 196.535 40C196.535 40.608 196.739 41.116 197.147 41.524C197.555 41.932 198.055 42.136 198.647 42.136ZM205.866 43.156C204.962 43.156 204.21 42.856 203.61 42.256C203.01 41.648 202.71 40.896 202.71 40C202.71 39.104 203.01 38.356 203.61 37.756C204.21 37.148 204.962 36.844 205.866 36.844C206.458 36.844 206.99 36.988 207.462 37.276C207.934 37.556 208.286 37.936 208.518 38.416L207.642 38.92C207.49 38.6 207.254 38.344 206.934 38.152C206.622 37.96 206.266 37.864 205.866 37.864C205.266 37.864 204.762 38.068 204.354 38.476C203.954 38.884 203.754 39.392 203.754 40C203.754 40.6 203.954 41.104 204.354 41.512C204.762 41.92 205.266 42.124 205.866 42.124C206.266 42.124 206.626 42.032 206.946 41.848C207.266 41.656 207.51 41.4 207.678 41.08L208.566 41.596C208.31 42.068 207.942 42.448 207.462 42.736C206.982 43.016 206.45 43.156 205.866 43.156ZM212.335 43.156C211.431 43.156 210.679 42.856 210.079 42.256C209.479 41.648 209.179 40.896 209.179 40C209.179 39.104 209.479 38.356 210.079 37.756C210.679 37.148 211.431 36.844 212.335 36.844C212.927 36.844 213.459 36.988 213.931 37.276C214.403 37.556 214.755 37.936 214.987 38.416L214.111 38.92C213.959 38.6 213.723 38.344 213.403 38.152C213.091 37.96 212.735 37.864 212.335 37.864C211.735 37.864 211.231 38.068 210.823 38.476C210.423 38.884 210.223 39.392 210.223 40C210.223 40.6 210.423 41.104 210.823 41.512C211.231 41.92 211.735 42.124 212.335 42.124C212.735 42.124 213.095 42.032 213.415 41.848C213.735 41.656 213.979 41.4 214.147 41.08L215.035 41.596C214.779 42.068 214.411 42.448 213.931 42.736C213.451 43.016 212.919 43.156 212.335 43.156ZM220.433 37H221.273V43H220.241V38.788L216.917 43H216.077V37H217.109V41.212L220.433 37ZM227.218 37H228.058V43H227.026V38.788L223.702 43H222.862V37H223.894V41.212L227.218 37Z" fill="white"/>
</svg>
