<svg width="290" height="42" viewBox="0 0 290 42" fill="none" xmlns="http://www.w3.org/2000/svg">
<path d="M73.5867 15.1362H62.972C62.6834 15.1362 62.4475 15.3827 62.4475 15.6656V16.1872C62.4475 16.4701 62.6834 16.7166 62.972 16.7166H67.4986V32.6535C67.4986 32.9364 67.7345 33.1829 68.0232 33.1829H68.5356C68.8242 33.1829 69.0601 32.9364 69.0601 32.6535V16.7166H73.5867C73.8753 16.7166 74.1112 16.4701 74.1112 16.1872V15.6656C74.1112 15.3532 73.8643 15.1362 73.5867 15.1362Z" fill="white" stroke="white" stroke-width="0.5" stroke-linejoin="round"/>
<path d="M86.8494 17.0924L86.8481 17.091C85.5578 15.7971 83.9939 15.1362 82.1873 15.1362H76.6237C76.3351 15.1362 76.0992 15.3827 76.0992 15.6656V32.6535C76.0992 32.9364 76.3351 33.1829 76.6237 33.1829H77.1361C77.4248 33.1829 77.6607 32.9364 77.6607 32.6535V28.5448H82.1873C83.9927 28.5448 85.5765 27.8846 86.85 26.5694C88.1214 25.275 88.7878 23.6664 88.7878 21.8312C88.7878 19.9962 88.1399 18.4058 86.8494 17.0924ZM82.1873 26.9644H77.6607V16.698H82.1873C83.5662 16.698 84.7638 17.1927 85.7408 18.2049L85.7408 18.2049L85.7424 18.2065C86.7216 19.2031 87.2263 20.4256 87.2263 21.8312C87.2263 23.2569 86.7389 24.4594 85.7439 25.4543L85.7424 25.4559C84.7633 26.4524 83.5643 26.9644 82.1873 26.9644Z" fill="white" stroke="white" stroke-width="0.5" stroke-linejoin="round"/>
<path d="M97.1523 15.4261L97.1522 15.426L97.1494 15.432L89.3531 32.4199L89.3528 32.4197L89.3477 32.4327C89.2914 32.576 89.275 32.7672 89.3974 32.9333C89.4886 33.057 89.649 33.1653 89.8366 33.1653H90.4039C90.6145 33.1653 90.7901 33.0502 90.8845 32.8579L90.8846 32.858L90.8873 32.8522L92.0282 30.3713H103.896L105.035 32.847C105.114 33.0366 105.316 33.1653 105.521 33.1653H106.088C106.276 33.1653 106.436 33.057 106.527 32.9333C106.645 32.7727 106.639 32.5611 106.57 32.4174L98.7591 15.437C98.6805 15.2474 98.4776 15.1187 98.2734 15.1187H97.6329C97.4222 15.1187 97.2467 15.2338 97.1523 15.4261ZM103.173 28.8282H92.7517L97.9623 17.4589L103.173 28.8282Z" fill="white" stroke="white" stroke-width="0.5" stroke-linejoin="round"/>
<path d="M123.017 15.1362H122.504C122.216 15.1362 121.98 15.3827 121.98 15.6656V23.3694H110.383V15.6656C110.383 15.3827 110.147 15.1362 109.858 15.1362H109.346C109.057 15.1362 108.821 15.3827 108.821 15.6656V32.6535C108.821 32.9364 109.057 33.1829 109.346 33.1829H109.858C110.147 33.1829 110.383 32.9364 110.383 32.6535V24.9498H121.98V32.6535C121.98 32.9364 122.216 33.1829 122.504 33.1829H123.017C123.306 33.1829 123.541 32.9364 123.541 32.6535V15.6656C123.541 15.3532 123.295 15.1362 123.017 15.1362Z" fill="white" stroke="white" stroke-width="0.5" stroke-linejoin="round"/>
<path d="M142.571 30.1686C142.562 30.1549 142.552 30.1421 142.541 30.1304L142.175 29.7578C141.967 29.5464 141.641 29.5464 141.434 29.7578C139.906 31.3122 138.049 32.0859 135.92 32.0859C133.775 32.0859 131.916 31.2945 130.388 29.7573C128.861 28.2031 128.099 26.3107 128.099 24.1214C128.099 21.9343 128.878 20.0596 130.389 18.5036C131.916 16.9679 133.773 16.1941 135.92 16.1941C138.065 16.1941 139.905 16.9852 141.434 18.5228C141.629 18.7209 141.98 18.7484 142.181 18.5155L142.541 18.1497C142.746 17.9407 142.746 17.6171 142.541 17.4081C140.719 15.5541 138.495 14.6138 135.92 14.6138C133.328 14.6138 131.085 15.5532 129.281 17.4086C127.46 19.2624 126.538 21.5232 126.538 24.14C126.538 26.7744 127.459 29.0548 129.282 30.8911C131.104 32.7452 133.346 33.6849 135.92 33.6849C138.495 33.6849 140.719 32.7446 142.541 30.8906C142.658 30.7712 142.685 30.6224 142.685 30.5105C142.685 30.3622 142.616 30.2372 142.571 30.1686Z" fill="white" stroke="white" stroke-width="0.5" stroke-linejoin="round"/>
<path d="M147.985 17.4082L147.984 17.4092C146.163 19.2631 145.241 21.5242 145.241 24.1412C145.241 26.7755 146.162 29.0559 147.985 30.8922C149.619 32.555 151.575 33.4708 153.842 33.651V34.7027C153.842 34.9856 154.078 35.2321 154.367 35.2321H154.879C155.168 35.2321 155.404 34.9856 155.404 34.7027V33.6713C157.657 33.5063 159.629 32.5718 161.262 30.9104C163.084 29.0561 164.005 26.7763 164.005 24.1598C164.005 21.543 163.083 19.2821 161.262 17.4284C159.63 15.7485 157.657 14.8133 155.404 14.6483V13.5983C155.404 13.3153 155.168 13.0688 154.879 13.0688H154.367C154.078 13.0688 153.842 13.3153 153.842 13.5983V14.6502C151.59 14.8319 149.618 15.7651 147.985 17.4082ZM155.404 32.087V16.2141C157.209 16.376 158.815 17.1429 160.154 18.5222L160.155 18.5234C161.682 20.0779 162.444 21.9706 162.444 24.1412C162.444 26.3294 161.664 28.2229 160.154 29.7787L160.154 29.7787C158.815 31.1589 157.224 31.9257 155.404 32.087ZM149.092 18.5228C150.431 17.1605 152.022 16.3939 153.842 16.2164V32.0846C152.022 31.907 150.43 31.1403 149.091 29.7776C147.564 28.2233 146.802 26.3307 146.802 24.1412C146.802 21.9538 147.581 20.0789 149.092 18.5228Z" fill="white" stroke="white" stroke-width="0.5" stroke-linejoin="round"/>
<path d="M175.377 14.6138C172.785 14.6138 170.542 15.5532 168.738 17.4086C166.917 19.2624 165.995 21.5233 165.995 24.14C165.995 26.7744 166.916 29.0548 168.739 30.8911C170.561 32.7452 172.803 33.6849 175.377 33.6849C177.952 33.6849 180.176 32.7446 181.998 30.8906C183.819 29.0363 184.741 26.7565 184.741 24.14C184.741 21.523 183.819 19.262 181.998 17.4081C180.176 15.5541 177.952 14.6138 175.377 14.6138ZM175.377 16.1941C177.522 16.1941 179.362 16.9852 180.891 18.5228C182.418 20.0773 183.18 21.9697 183.18 24.14C183.18 26.328 182.4 28.2214 180.89 29.777C179.363 31.331 177.506 32.1046 175.377 32.1046C173.232 32.1046 171.373 31.3131 169.845 29.776C168.318 28.2217 167.556 26.3293 167.556 24.14C167.556 21.9527 168.335 20.0778 169.846 18.5217C171.373 16.9679 173.23 16.1941 175.377 16.1941Z" fill="white" stroke="white" stroke-width="0.5" stroke-linejoin="round"/>
<path d="M193.824 26.9644H189.297V16.698H193.824C195.203 16.698 196.4 17.1927 197.377 18.2049L197.377 18.2049L197.379 18.2065C198.358 19.2031 198.863 20.4256 198.863 21.8312C198.863 23.2569 198.375 24.4594 197.38 25.4543L197.38 25.4543L197.377 25.4575C196.4 26.47 195.22 26.9644 193.824 26.9644ZM193.824 15.1362H188.26C187.971 15.1362 187.736 15.3827 187.736 15.6656V32.6535C187.736 32.9364 187.971 33.1829 188.26 33.1829H188.772C189.061 33.1829 189.297 32.9364 189.297 32.6535V28.5448H193.824C195.629 28.5448 197.213 27.8846 198.486 26.5694C199.758 25.275 200.424 23.6664 200.424 21.8312C200.424 19.9976 199.777 18.3878 198.485 17.0917C197.212 15.7962 195.629 15.1362 193.824 15.1362Z" fill="white" stroke="white" stroke-width="0.5" stroke-linejoin="round"/>
<path d="M219.72 15.3497L219.72 15.3497L219.718 15.3529L212.381 25.6474L205.045 15.3529L205.045 15.3529L205.043 15.3497C204.941 15.2121 204.794 15.1362 204.622 15.1362H203.981C203.692 15.1362 203.457 15.3827 203.457 15.6656V32.6535C203.457 32.9364 203.692 33.1829 203.981 33.1829H204.494C204.782 33.1829 205.018 32.9364 205.018 32.6535V18.0129L211.629 27.3035L211.629 27.3035L211.631 27.3068C211.732 27.4444 211.88 27.5203 212.052 27.5203H212.747C212.919 27.5203 213.067 27.4444 213.168 27.3068L213.168 27.3069L213.171 27.3035L219.781 18.0129V32.6535C219.781 32.9364 220.017 33.1829 220.306 33.1829H220.818C221.107 33.1829 221.343 32.9364 221.343 32.6535V15.6656C221.343 15.6477 221.341 15.6298 221.337 15.6123C221.28 15.3513 221.066 15.1362 220.782 15.1362H220.141C219.969 15.1362 219.822 15.2121 219.72 15.3497Z" fill="white" stroke="white" stroke-width="0.5" stroke-linejoin="round"/>
<path d="M231.209 15.4261L231.209 15.426L231.206 15.432L223.41 32.4199L223.41 32.4197L223.404 32.4327C223.348 32.576 223.332 32.7672 223.454 32.9333C223.545 33.057 223.706 33.1653 223.893 33.1653H224.461C224.671 33.1653 224.847 33.0502 224.941 32.8579L224.941 32.858L224.944 32.8522L226.085 30.3713H237.953L239.092 32.847C239.17 33.0366 239.373 33.1653 239.577 33.1653H240.145C240.332 33.1653 240.493 33.057 240.584 32.9333C240.702 32.7727 240.696 32.5611 240.627 32.4174L232.816 15.437C232.737 15.2474 232.534 15.1187 232.33 15.1187H231.69C231.479 15.1187 231.303 15.2338 231.209 15.4261ZM237.211 28.8282H226.79L232.001 17.4589L237.211 28.8282Z" fill="white" stroke="white" stroke-width="0.5" stroke-linejoin="round"/>
<path d="M255.554 31.5839H253.023V15.6656C253.023 15.3827 252.787 15.1362 252.498 15.1362H251.986C251.697 15.1362 251.461 15.3827 251.461 15.6656V31.5839H244.421V15.6656C244.421 15.3827 244.185 15.1362 243.897 15.1362H243.384C243.096 15.1362 242.86 15.3827 242.86 15.6656V32.6535C242.86 32.9364 243.096 33.1829 243.384 33.1829H254.499V35.2054C254.499 35.4883 254.735 35.7348 255.024 35.7348H255.554C255.843 35.7348 256.079 35.4883 256.079 35.2054V32.1133C256.079 31.8304 255.843 31.5839 255.554 31.5839Z" fill="white" stroke="white" stroke-width="0.5" stroke-linejoin="round"/>
<path d="M270.782 15.3497L270.782 15.3497L270.779 15.3529L260.124 30.3072V15.6656C260.124 15.3827 259.888 15.1362 259.599 15.1362H259.087C258.798 15.1362 258.563 15.3827 258.563 15.6656V32.6535C258.563 32.9364 258.798 33.1829 259.087 33.1829H259.728C259.9 33.1829 260.047 33.107 260.148 32.9695L260.149 32.9695L260.151 32.9662L270.806 18.012V32.6535C270.806 32.9364 271.042 33.1829 271.331 33.1829H271.843C272.132 33.1829 272.368 32.9364 272.368 32.6535V15.6656C272.368 15.3532 272.121 15.1362 271.843 15.1362H271.202C271.03 15.1362 270.883 15.2121 270.782 15.3497Z" fill="white" stroke="white" stroke-width="0.5" stroke-linejoin="round"/>
<path d="M278.326 33.3249L278.326 33.3249L278.328 33.3212L280.923 28.7401C281.474 28.8813 282.054 28.9589 282.65 28.9589H287.689V33.0676C287.689 33.3505 287.925 33.597 288.213 33.597H288.726C289.014 33.597 289.25 33.3505 289.25 33.0676V16.0797C289.25 15.7672 289.003 15.5503 288.726 15.5503H282.65C280.844 15.5503 279.26 16.2107 277.986 17.5264C276.716 18.8381 276.049 20.4273 276.049 22.2639C276.049 24.0975 276.696 25.7073 277.988 27.0034C278.437 27.4599 278.93 27.8427 279.454 28.1515L276.815 32.8124C276.769 32.8906 276.74 32.9798 276.74 33.0769C276.74 33.1749 276.769 33.2648 276.816 33.3435C276.925 33.5282 277.108 33.597 277.269 33.597H277.873C278.067 33.597 278.234 33.4815 278.326 33.3249ZM282.65 17.112H287.689V27.3785H282.65C281.253 27.3785 280.073 26.8841 279.096 25.8715L279.096 25.8715L279.095 25.87C278.115 24.8733 277.611 23.6509 277.611 22.2453C277.611 20.8195 278.098 19.617 279.093 18.6221L279.093 18.6221L279.095 18.6205C280.074 17.6237 281.255 17.112 282.65 17.112Z" fill="white" stroke="white" stroke-width="0.5" stroke-linejoin="round"/>
<path d="M11.2913 0C15.1528 1.52742 18.868 3.42738 22.2171 5.81164C23.4982 6.72437 24.7061 7.74886 25.7492 8.88511C27.2316 7.28318 29.0251 5.92341 30.8919 4.73128C33.82 2.86857 36.9495 1.28526 40.2255 0.0186225C39.8594 1.19213 39.4934 2.36564 39.1274 3.53914C35.7051 5.10381 32.356 6.91064 29.501 9.31353C28.6225 10.0772 27.799 10.8968 27.1218 11.8282C26.5545 12.5733 26.1884 13.4115 25.7675 14.2311C25.3649 13.4487 25.0172 12.6478 24.4864 11.9399C23.3335 10.3194 21.7596 9.01549 20.1125 7.84199C17.715 6.16555 15.0979 4.76852 12.4077 3.55776C12.0233 2.347 11.6573 1.1735 11.2913 0Z" fill="white"/>
<path d="M16.0867 38.6534C16.9469 38.6534 18.0999 37.7034 19.2162 36.0829C20.2594 33.9035 20.9549 31.8173 21.3209 29.8615C18.8319 31.0163 15.0253 32.9163 12.9938 34.3878C12.9938 34.9466 13.2684 36.1946 14.1651 37.3495C14.4762 37.7593 15.2449 38.6534 16.0867 38.6534ZM21.083 23.2675C20.8816 22.5224 20.6071 21.8146 20.2777 21.1067C17.8619 16.0402 12.4265 12.6873 8.29043 10.7501C6.82634 10.0609 5.39885 9.50206 4.15437 9.05501C4.33738 9.70696 4.53869 10.3962 4.75831 11.0854C6.73483 17.3999 8.29043 19.393 8.85777 19.9518C9.3885 20.4734 11.1637 21.7959 16.2148 22.6714C18.228 23.0439 20.0581 23.193 21.083 23.2675ZM16.0867 41.6896C11.5114 41.6896 8.51005 34.127 10.8526 32.2643C14.1102 29.6938 21.8516 26.3223 21.8516 26.3223C21.8516 26.3223 10.7062 25.987 6.80804 22.1312C2.89159 18.2754 0 4.69629 0 4.69629C0 4.69629 34.3879 11.8677 21.7967 37.6289C19.747 41.1494 17.8436 41.6896 16.0867 41.6896Z" fill="white"/>
<path d="M35.4851 38.7096C34.6249 38.7096 33.472 37.7597 32.3556 36.1391C31.3124 33.9597 30.617 31.8735 30.251 29.9177C32.7399 31.0725 36.5466 32.9725 38.578 34.444C38.578 35.0029 38.3035 36.2509 37.4067 37.4058C37.1139 37.7969 36.3269 38.7096 35.4851 38.7096ZM30.4889 23.3051C30.6902 22.56 30.9647 21.8521 31.2941 21.1443C33.7099 16.0778 39.1453 12.7249 43.2814 10.7877C44.7455 10.0985 46.173 9.53966 47.4175 9.09261C47.2344 9.74456 47.0331 10.4338 46.8135 11.123C44.837 17.4375 43.2814 19.4306 42.7141 19.9894C42.1833 20.511 40.4081 21.8335 35.357 22.709C33.3622 23.0815 31.5137 23.2305 30.4889 23.3051ZM35.4851 41.7272C40.0604 41.7272 43.0618 34.1646 40.7192 32.3019C37.4616 29.7314 29.7202 26.3599 29.7202 26.3599C29.7202 26.3599 40.8656 26.0246 44.7638 22.1688C48.6802 18.313 51.5718 4.73389 51.5718 4.73389C51.5718 4.73389 17.2022 11.9053 29.7934 37.6852C31.8432 41.187 33.7465 41.7272 35.4851 41.7272Z" fill="white"/>
<path d="M16.0867 38.6534C16.9469 38.6534 18.0999 37.7034 19.2162 36.0829C20.2594 33.9035 20.9549 31.8173 21.3209 29.8615C18.8319 31.0163 15.0253 32.9163 12.9938 34.3878C12.9938 34.9466 13.2684 36.1946 14.1651 37.3495C14.4762 37.7593 15.2449 38.6534 16.0867 38.6534ZM21.083 23.2675C20.8816 22.5224 20.6071 21.8146 20.2777 21.1067C17.8619 16.0402 12.4265 12.6873 8.29043 10.7501C6.82634 10.0609 5.39885 9.50206 4.15437 9.05501C4.33738 9.70696 4.53869 10.3962 4.75831 11.0854C6.73483 17.3999 8.29043 19.393 8.85777 19.9518C9.3885 20.4734 11.1637 21.7959 16.2148 22.6714C18.228 23.0439 20.0581 23.193 21.083 23.2675ZM16.0867 41.6896C11.5114 41.6896 8.51005 34.127 10.8526 32.2643C14.1102 29.6938 21.8516 26.3223 21.8516 26.3223C21.8516 26.3223 10.7062 25.987 6.80804 22.1312C2.89159 18.2754 0 4.69629 0 4.69629C0 4.69629 34.3879 11.8677 21.7967 37.6289C19.747 41.1494 17.8436 41.6896 16.0867 41.6896Z" fill="white"/>
<path d="M35.4851 38.7096C34.6249 38.7096 33.472 37.7597 32.3556 36.1391C31.3124 33.9597 30.617 31.8735 30.251 29.9177C32.7399 31.0725 36.5466 32.9725 38.578 34.444C38.578 35.0029 38.3035 36.2509 37.4067 37.4058C37.1139 37.7969 36.3269 38.7096 35.4851 38.7096ZM30.4889 23.3051C30.6902 22.56 30.9647 21.8521 31.2941 21.1443C33.7099 16.0778 39.1453 12.7249 43.2814 10.7877C44.7455 10.0985 46.173 9.53966 47.4175 9.09261C47.2344 9.74456 47.0331 10.4338 46.8135 11.123C44.837 17.4375 43.2814 19.4306 42.7141 19.9894C42.1833 20.511 40.4081 21.8335 35.357 22.709C33.3622 23.0815 31.5137 23.2305 30.4889 23.3051ZM35.4851 41.7272C40.0604 41.7272 43.0618 34.1646 40.7192 32.3019C37.4616 29.7314 29.7202 26.3599 29.7202 26.3599C29.7202 26.3599 40.8656 26.0246 44.7638 22.1688C48.6802 18.313 51.5718 4.73389 51.5718 4.73389C51.5718 4.73389 17.2022 11.9053 29.7934 37.6852C31.8432 41.187 33.7465 41.7272 35.4851 41.7272Z" fill="white"/>
</svg>
