<svg width="313" height="69" viewBox="0 0 313 69" fill="none" xmlns="http://www.w3.org/2000/svg">
<path d="M79.5523 16.2428H68.077C67.8635 16.2428 67.6803 16.426 67.6803 16.6395V17.1935C67.6803 17.407 67.8635 17.5903 68.077 17.5903H73.1409V34.6834C73.1409 34.8969 73.3242 35.0802 73.5377 35.0802H74.0917C74.3052 35.0802 74.4884 34.8969 74.4884 34.6834V17.5903H79.5523C79.7658 17.5903 79.9491 17.407 79.9491 17.1935V16.6395C79.9491 16.4019 79.7614 16.2428 79.5523 16.2428Z" fill="#4E86F8" stroke="#4E86F8" stroke-width="0.2" stroke-linejoin="round"/>
<path d="M93.7694 18.2703L93.7689 18.2698C92.4051 16.9261 90.7576 16.2428 88.8514 16.2428H82.8368C82.6233 16.2428 82.44 16.426 82.44 16.6395V34.6834C82.44 34.8969 82.6233 35.0802 82.8368 35.0802H83.3908C83.6043 35.0802 83.7876 34.8969 83.7876 34.6834V30.1537H88.8514C90.7571 30.1537 92.425 29.4707 93.7697 28.1061C95.1136 26.7621 95.8168 25.0947 95.8168 23.1884C95.8168 21.2821 95.1334 19.6343 93.7694 18.2703ZM88.8514 28.8062H83.7876V17.5705H88.8514C90.3883 17.5705 91.7275 18.1142 92.8162 19.2223L92.8168 19.2229C93.9063 20.3124 94.4693 21.6523 94.4693 23.1884C94.4693 24.7448 93.9257 26.0643 92.8175 27.1531L92.8168 27.1538C91.7273 28.2432 90.3875 28.8062 88.8514 28.8062Z" fill="#4E86F8" stroke="#4E86F8" stroke-width="0.2" stroke-linejoin="round"/>
<path d="M105.179 16.4537L105.179 16.4536L105.178 16.4561L96.7497 34.4999L96.7496 34.4998L96.7475 34.5051C96.6997 34.6244 96.6931 34.7632 96.7801 34.8792C96.8543 34.9781 96.9807 35.0577 97.1173 35.0577H97.7306C97.8887 35.0577 98.0215 34.9756 98.0971 34.8244L98.0971 34.8244L98.0982 34.822L99.377 32.0899H112.427L113.704 34.8197C113.761 34.9578 113.918 35.0577 114.073 35.0577H114.686C114.823 35.0577 114.949 34.9781 115.024 34.8792C115.109 34.7653 115.106 34.6059 115.053 34.4987L106.607 16.4583C106.55 16.3202 106.394 16.2203 106.238 16.2203H105.546C105.388 16.2203 105.255 16.3024 105.179 16.4537ZM111.799 30.782H100.005L105.902 18.1397L111.799 30.782Z" fill="#4E86F8" stroke="#4E86F8" stroke-width="0.2" stroke-linejoin="round"/>
<path d="M132.989 16.2428H132.435C132.221 16.2428 132.038 16.426 132.038 16.6395V24.9877H119.16V16.6395C119.16 16.426 118.977 16.2428 118.763 16.2428H118.209C117.996 16.2428 117.813 16.426 117.813 16.6395V34.6834C117.813 34.8969 117.996 35.0802 118.209 35.0802H118.763C118.977 35.0802 119.16 34.8969 119.16 34.6834V26.3352H132.038V34.6834C132.038 34.8969 132.221 35.0802 132.435 35.0802H132.989C133.202 35.0802 133.385 34.8969 133.385 34.6834V16.6395C133.385 16.4019 133.198 16.2428 132.989 16.2428Z" fill="#4E86F8" stroke="#4E86F8" stroke-width="0.2" stroke-linejoin="round"/>
<path d="M153.985 32.1362C153.982 32.1308 153.978 32.1257 153.973 32.121L153.577 31.7253C153.419 31.5675 153.178 31.5675 153.02 31.7253C151.338 33.408 149.286 34.2483 146.938 34.2483C144.571 34.2483 142.519 33.3885 140.835 31.7251C139.153 30.0426 138.313 27.9907 138.313 25.6231C138.313 23.2564 139.172 21.224 140.836 19.5407C142.518 17.8779 144.57 17.0376 146.938 17.0376C149.305 17.0376 151.337 17.8971 153.02 19.5607C153.173 19.7132 153.437 19.7242 153.58 19.5576L153.973 19.1648C154.131 19.0071 154.131 18.7657 153.973 18.6079C152.035 16.6701 149.675 15.69 146.938 15.69C144.181 15.69 141.801 16.6698 139.883 18.6081C137.945 20.5459 136.965 22.9059 136.965 25.6429C136.965 28.3993 137.945 30.7794 139.883 32.6978C141.821 34.6357 144.201 35.6156 146.938 35.6156C149.675 35.6156 152.035 34.6355 153.973 32.6977C154.058 32.613 154.081 32.5039 154.081 32.4094C154.081 32.3002 154.028 32.2006 153.985 32.1362Z" fill="#4E86F8" stroke="#4E86F8" stroke-width="0.2" stroke-linejoin="round"/>
<path d="M160.103 18.6051L160.103 18.6055C158.165 20.5434 157.185 22.9034 157.185 25.6405C157.185 28.3969 158.165 30.777 160.103 32.6955C161.878 34.4709 164.007 35.4292 166.484 35.5876V36.8586C166.484 37.0721 166.667 37.2554 166.881 37.2554H167.435C167.648 37.2554 167.831 37.0721 167.831 36.8586V35.6081C170.29 35.4681 172.437 34.49 174.212 32.7151C176.15 30.7771 177.13 28.3972 177.13 25.6603C177.13 22.9233 176.15 20.5633 174.213 18.6255C172.438 16.8309 170.29 15.8526 167.831 15.7126V14.4423C167.831 14.2288 167.648 14.0455 167.435 14.0455H166.881C166.667 14.0455 166.484 14.2288 166.484 14.4423V15.7133C164.025 15.8723 161.878 16.8499 160.103 18.6051ZM167.831 34.2594V17.0415C169.9 17.1806 171.739 18.0184 173.259 19.5577L173.26 19.5581C174.942 21.2408 175.783 23.2928 175.783 25.6405C175.783 28.0077 174.923 30.06 173.259 31.7431L173.259 31.7432C171.739 33.2828 169.918 34.1205 167.831 34.2594ZM161.056 19.558C162.576 18.0378 164.397 17.2001 166.484 17.0424V34.2584C164.396 34.1007 162.576 33.263 161.055 31.7427C159.373 30.0601 158.532 28.0082 158.532 25.6405C158.532 23.2737 159.392 21.2412 161.056 19.558Z" fill="#4E86F8" stroke="#4E86F8" stroke-width="0.2" stroke-linejoin="round"/>
<path d="M189.596 15.69C186.84 15.69 184.46 16.6698 182.541 18.6081C180.603 20.5459 179.623 22.9059 179.623 25.6429C179.623 28.3993 180.603 30.7794 182.541 32.6978C184.479 34.6357 186.859 35.6156 189.596 35.6156C192.333 35.6156 194.693 34.6355 196.631 32.6977C198.569 30.7597 199.549 28.3798 199.549 25.6429C199.549 22.9058 198.569 20.5458 196.631 18.6079C194.693 16.6701 192.333 15.69 189.596 15.69ZM189.596 17.0376C191.963 17.0376 193.995 17.8971 195.679 19.5607C197.361 21.2434 198.201 23.2952 198.201 25.6429C198.201 28.01 197.342 30.0622 195.678 31.7453C193.996 33.4278 191.944 34.2681 189.596 34.2681C187.229 34.2681 185.177 33.4083 183.494 31.7449C181.811 30.0624 180.971 28.0105 180.971 25.6429C180.971 23.2761 181.83 21.2436 183.494 19.5603C185.177 17.8779 187.228 17.0376 189.596 17.0376Z" fill="#4E86F8" stroke="#4E86F8" stroke-width="0.2" stroke-linejoin="round"/>
<path d="M209.538 28.8062H204.474V17.5705H209.538C211.075 17.5705 212.414 18.1142 213.503 19.2223L213.503 19.2229C214.593 20.3124 215.156 21.6523 215.156 23.1884C215.156 24.7448 214.612 26.0643 213.504 27.1531L213.503 27.1544C212.414 28.2626 211.094 28.8062 209.538 28.8062ZM209.538 16.2428H203.523C203.31 16.2428 203.127 16.426 203.127 16.6395V34.6834C203.127 34.8969 203.31 35.0802 203.523 35.0802H204.077C204.291 35.0802 204.474 34.8969 204.474 34.6834V30.1537H209.538C211.444 30.1537 213.112 29.4707 214.456 28.1061C215.8 26.7621 216.503 25.0947 216.503 23.1884C216.503 21.2826 215.82 19.6148 214.456 18.2701C213.111 16.9257 211.444 16.2428 209.538 16.2428Z" fill="#4E86F8" stroke="#4E86F8" stroke-width="0.2" stroke-linejoin="round"/>
<path d="M237.671 16.4015L237.67 16.4028L229.6 27.529L221.529 16.4028L221.529 16.4028L221.528 16.4015C221.45 16.2972 221.341 16.2428 221.211 16.2428H220.518C220.305 16.2428 220.122 16.426 220.122 16.6395V34.6834C220.122 34.8969 220.305 35.0802 220.518 35.0802H221.072C221.286 35.0802 221.469 34.8969 221.469 34.6834V18.6101L228.925 28.9055L228.925 28.9055L228.926 28.9068C229.004 29.0112 229.113 29.0655 229.244 29.0655H229.995C230.126 29.0655 230.235 29.0112 230.313 28.9068L230.314 28.9055L237.77 18.6101V34.6834C237.77 34.8969 237.953 35.0802 238.167 35.0802H238.721C238.934 35.0802 239.117 34.8969 239.117 34.6834V16.6395C239.117 16.6323 239.117 16.625 239.115 16.6179C239.067 16.4014 238.893 16.2428 238.681 16.2428H237.989C237.858 16.2428 237.749 16.2972 237.671 16.4015Z" fill="#4E86F8" stroke="#4E86F8" stroke-width="0.2" stroke-linejoin="round"/>
<path d="M250.104 16.4537L250.104 16.4536L250.103 16.4561L241.675 34.4999L241.675 34.4998L241.673 34.5051C241.625 34.6244 241.618 34.7632 241.705 34.8792C241.779 34.9781 241.906 35.0577 242.042 35.0577H242.656C242.814 35.0577 242.947 34.9756 243.022 34.8244L243.022 34.8244L243.023 34.822L244.302 32.0899H257.352L258.629 34.8196C258.686 34.9578 258.843 35.0577 258.998 35.0577H259.611C259.748 35.0577 259.874 34.9781 259.949 34.8792C260.034 34.7653 260.031 34.6059 259.978 34.4987L251.532 16.4583C251.475 16.3202 251.319 16.2203 251.163 16.2203H250.471C250.313 16.2203 250.18 16.3024 250.104 16.4537ZM256.704 30.782H244.91L250.807 18.1397L256.704 30.782Z" fill="#4E86F8" stroke="#4E86F8" stroke-width="0.2" stroke-linejoin="round"/>
<path d="M276.272 33.7128H273.365V16.6395C273.365 16.426 273.182 16.2428 272.968 16.2428H272.414C272.201 16.2428 272.017 16.426 272.017 16.6395V33.7128H264.066V16.6395C264.066 16.426 263.883 16.2428 263.669 16.2428H263.115C262.902 16.2428 262.718 16.426 262.718 16.6395V34.6834C262.718 34.8969 262.902 35.0802 263.115 35.0802H275.302V37.3939C275.302 37.6074 275.485 37.7907 275.698 37.7907H276.272C276.486 37.7907 276.669 37.6074 276.669 37.3939V34.1096C276.669 33.8961 276.486 33.7128 276.272 33.7128Z" fill="#4E86F8" stroke="#4E86F8" stroke-width="0.2" stroke-linejoin="round"/>
<path d="M292.873 16.4015L292.872 16.4028L281.043 32.7132V16.6395C281.043 16.426 280.86 16.2428 280.647 16.2428H280.093C279.879 16.2428 279.696 16.426 279.696 16.6395V34.6834C279.696 34.8969 279.879 35.0802 280.093 35.0802H280.785C280.916 35.0802 281.024 35.0257 281.103 34.9214L281.104 34.9201L292.932 18.6097V34.6834C292.932 34.8969 293.115 35.0802 293.329 35.0802H293.883C294.096 35.0802 294.28 34.8969 294.28 34.6834V16.6395C294.28 16.4019 294.092 16.2428 293.883 16.2428H293.19C293.06 16.2428 292.951 16.2972 292.873 16.4015Z" fill="#4E86F8" stroke="#4E86F8" stroke-width="0.2" stroke-linejoin="round"/>
<path d="M300.743 35.3108L300.743 35.3108L300.744 35.3093L303.614 30.3312C304.233 30.4986 304.889 30.5912 305.564 30.5912H311.182V35.1209C311.182 35.3344 311.365 35.5177 311.579 35.5177H312.133C312.346 35.5177 312.529 35.3344 312.529 35.1209V17.077C312.529 16.8394 312.342 16.6803 312.133 16.6803H305.564C303.658 16.6803 301.99 17.3634 300.646 18.7281C299.302 20.0914 298.599 21.7387 298.599 23.6456C298.599 25.5514 299.282 27.2192 300.646 28.5639C301.162 29.0793 301.732 29.504 302.34 29.8379L299.404 34.9309C299.404 34.9312 299.404 34.9315 299.404 34.9317C299.367 34.9939 299.346 35.0607 299.346 35.1308C299.346 35.2012 299.367 35.2682 299.404 35.3306C299.486 35.4661 299.622 35.5177 299.747 35.5177H300.4C300.539 35.5177 300.668 35.4353 300.743 35.3108ZM305.564 18.008H311.182V29.2437H305.564C304.008 29.2437 302.688 28.7001 301.599 27.5919L301.599 27.5913C300.509 26.5018 299.946 25.1619 299.946 23.6259C299.946 22.0694 300.49 20.7499 301.598 19.6611L301.599 19.6604C302.688 18.5708 304.008 18.008 305.564 18.008Z" fill="#4E86F8" stroke="#4E86F8" stroke-width="0.2" stroke-linejoin="round"/>
<path d="M12.2065 0C16.3812 1.62236 20.3975 3.64042 24.0181 6.17289C25.4031 7.14235 26.7089 8.23052 27.8366 9.4374C29.4392 7.7359 31.3781 6.2916 33.3962 5.02537C36.5617 3.04688 39.945 1.36515 43.4865 0.0197801C43.0908 1.26623 42.6951 2.51268 42.2994 3.75913C38.5996 5.42106 34.979 7.3402 31.8925 9.89245C30.9428 10.7036 30.0525 11.5742 29.3205 12.5634C28.7071 13.3548 28.3114 14.2451 27.8564 15.1157C27.4211 14.2847 27.0452 13.4339 26.4714 12.6821C25.225 10.9608 23.5235 9.57588 21.7429 8.32944C19.151 6.5488 16.3218 5.06493 13.4134 3.77891C12.9979 2.49289 12.6022 1.24645 12.2065 0Z" fill="#4E86F8"/>
<path d="M17.3909 41.0542C18.3208 41.0542 19.5673 40.0452 20.7741 38.3239C21.9019 36.009 22.6537 33.7931 23.0494 31.7157C20.3587 32.9424 16.2434 34.9604 14.0473 36.5234C14.0473 37.117 14.344 38.4426 15.3135 39.6692C15.6498 40.1045 16.4808 41.0542 17.3909 41.0542ZM22.7922 24.7119C22.5746 23.9205 22.2778 23.1686 21.9217 22.4168C19.3101 17.0353 13.4339 13.474 8.96255 11.4164C7.37976 10.6844 5.83654 10.0908 4.49117 9.61599C4.68902 10.3085 4.90665 11.0405 5.14407 11.7725C7.28084 18.4796 8.96255 20.5966 9.57589 21.1901C10.1496 21.7441 12.0688 23.1489 17.5294 24.0788C19.7058 24.4744 21.6842 24.6327 22.7922 24.7119ZM17.3909 44.2791C12.4447 44.2791 9.19997 36.2465 11.7324 34.268C15.2542 31.5376 23.6232 27.9566 23.6232 27.9566C23.6232 27.9566 11.5742 27.6005 7.35998 23.505C3.12602 19.4095 0 4.98633 0 4.98633C0 4.98633 37.1758 12.6035 23.5638 39.966C21.3479 43.7054 19.2903 44.2791 17.3909 44.2791Z" fill="#4E86F8"/>
<path d="M38.3632 41.1121C37.4333 41.1121 36.1868 40.103 34.9799 38.3817C33.8522 36.0669 33.1004 33.851 32.7047 31.7736C35.3954 33.0002 39.5107 35.0183 41.7068 36.5813C41.7068 37.1749 41.41 38.5005 40.4406 39.7271C40.124 40.1426 39.2733 41.1121 38.3632 41.1121ZM32.9619 24.7499C33.1795 23.9585 33.4763 23.2067 33.8324 22.4549C36.444 17.0734 42.3201 13.5121 46.7915 11.4545C48.3743 10.7225 49.9175 10.1289 51.2629 9.65407C51.0651 10.3465 50.8474 11.0786 50.61 11.8106C48.4732 18.5177 46.7915 20.6347 46.1782 21.2282C45.6044 21.7822 43.6853 23.1869 38.2247 24.1168C36.0681 24.5125 34.0698 24.6708 32.9619 24.7499ZM38.3632 44.3172C43.3094 44.3172 46.5541 36.2845 44.0216 34.3061C40.4999 31.5757 32.1309 27.9947 32.1309 27.9947C32.1309 27.9947 44.1799 27.6385 48.3941 23.5431C52.6281 19.4476 55.7541 5.02441 55.7541 5.02441C55.7541 5.02441 18.5981 12.6416 32.2101 40.0239C34.426 43.7435 36.4836 44.3172 38.3632 44.3172Z" fill="#4E86F8"/>
<path d="M17.3909 41.0542C18.3208 41.0542 19.5673 40.0452 20.7741 38.3239C21.9019 36.009 22.6537 33.7931 23.0494 31.7157C20.3587 32.9424 16.2434 34.9604 14.0473 36.5234C14.0473 37.117 14.344 38.4426 15.3135 39.6692C15.6498 40.1045 16.4808 41.0542 17.3909 41.0542ZM22.7922 24.7119C22.5746 23.9205 22.2778 23.1686 21.9217 22.4168C19.3101 17.0353 13.4339 13.474 8.96255 11.4164C7.37976 10.6844 5.83654 10.0908 4.49117 9.61599C4.68902 10.3085 4.90665 11.0405 5.14407 11.7725C7.28084 18.4796 8.96255 20.5966 9.57589 21.1901C10.1496 21.7441 12.0688 23.1489 17.5294 24.0788C19.7058 24.4744 21.6842 24.6327 22.7922 24.7119ZM17.3909 44.2791C12.4447 44.2791 9.19997 36.2465 11.7324 34.268C15.2542 31.5376 23.6232 27.9566 23.6232 27.9566C23.6232 27.9566 11.5742 27.6005 7.35998 23.505C3.12602 19.4095 0 4.98633 0 4.98633C0 4.98633 37.1758 12.6035 23.5638 39.966C21.3479 43.7054 19.2903 44.2791 17.3909 44.2791Z" fill="#4E86F8"/>
<path d="M38.3632 41.1121C37.4333 41.1121 36.1868 40.103 34.9799 38.3817C33.8522 36.0669 33.1004 33.851 32.7047 31.7736C35.3954 33.0002 39.5107 35.0183 41.7068 36.5813C41.7068 37.1749 41.41 38.5005 40.4406 39.7271C40.124 40.1426 39.2733 41.1121 38.3632 41.1121ZM32.9619 24.7499C33.1795 23.9585 33.4763 23.2067 33.8324 22.4549C36.444 17.0734 42.3201 13.5121 46.7915 11.4545C48.3743 10.7225 49.9175 10.1289 51.2629 9.65407C51.0651 10.3465 50.8474 11.0786 50.61 11.8106C48.4732 18.5177 46.7915 20.6347 46.1782 21.2282C45.6044 21.7822 43.6853 23.1869 38.2247 24.1168C36.0681 24.5125 34.0698 24.6708 32.9619 24.7499ZM38.3632 44.3172C43.3094 44.3172 46.5541 36.2845 44.0216 34.3061C40.4999 31.5757 32.1309 27.9947 32.1309 27.9947C32.1309 27.9947 44.1799 27.6385 48.3941 23.5431C52.6281 19.4476 55.7541 5.02441 55.7541 5.02441C55.7541 5.02441 18.5981 12.6416 32.2101 40.0239C34.426 43.7435 36.4836 44.3172 38.3632 44.3172Z" fill="#4E86F8"/>
<path d="M13.28 53.4748V64.6748H12.16V54.5308H6.4V64.6748H5.28V53.4748H13.28ZM19.9705 56.4828C21.1118 56.4828 22.0825 56.8881 22.8825 57.6988C23.6932 58.5095 24.0985 59.5015 24.0985 60.6748C24.0985 61.8481 23.6932 62.8401 22.8825 63.6508C22.0825 64.4615 21.1118 64.8668 19.9705 64.8668C18.5518 64.8668 17.4745 64.2801 16.7385 63.1068V67.8748H15.6825V56.6748H16.7385V58.2428C17.4745 57.0695 18.5518 56.4828 19.9705 56.4828ZM17.6505 62.9308C18.2585 63.5388 19.0052 63.8428 19.8905 63.8428C20.7758 63.8428 21.5225 63.5388 22.1305 62.9308C22.7385 62.3121 23.0425 61.5601 23.0425 60.6748C23.0425 59.7895 22.7385 59.0428 22.1305 58.4348C21.5225 57.8161 20.7758 57.5068 19.8905 57.5068C19.0052 57.5068 18.2585 57.8161 17.6505 58.4348C17.0425 59.0428 16.7385 59.7895 16.7385 60.6748C16.7385 61.5601 17.0425 62.3121 17.6505 62.9308ZM32.5584 63.6668C31.7477 64.4668 30.7557 64.8668 29.5824 64.8668C28.409 64.8668 27.4117 64.4668 26.5904 63.6668C25.7797 62.8561 25.3744 61.8588 25.3744 60.6748C25.3744 59.4908 25.7797 58.4988 26.5904 57.6988C27.4117 56.8881 28.409 56.4828 29.5824 56.4828C30.7557 56.4828 31.7477 56.8881 32.5584 57.6988C33.3797 58.4988 33.7904 59.4908 33.7904 60.6748C33.7904 61.8588 33.3797 62.8561 32.5584 63.6668ZM27.3424 62.9308C27.9504 63.5388 28.697 63.8428 29.5824 63.8428C30.4677 63.8428 31.2144 63.5388 31.8224 62.9308C32.4304 62.3121 32.7344 61.5601 32.7344 60.6748C32.7344 59.7895 32.4304 59.0428 31.8224 58.4348C31.2144 57.8161 30.4677 57.5068 29.5824 57.5068C28.697 57.5068 27.9504 57.8161 27.3424 58.4348C26.7344 59.0428 26.4304 59.7895 26.4304 60.6748C26.4304 61.5601 26.7344 62.3121 27.3424 62.9308ZM40.6455 60.5628C41.5202 60.8828 41.9575 61.5068 41.9575 62.4348C41.9575 63.0855 41.7388 63.6241 41.3015 64.0508C40.8748 64.4668 40.2562 64.6748 39.4455 64.6748H35.5575V56.6748H39.1255C39.9042 56.6748 40.5068 56.8775 40.9335 57.2828C41.3602 57.6775 41.5735 58.1895 41.5735 58.8188C41.5735 59.6188 41.2642 60.2001 40.6455 60.5628ZM39.1255 57.6988H36.6135V60.1308H39.1255C40.0535 60.1308 40.5175 59.7148 40.5175 58.8828C40.5175 58.5095 40.3948 58.2215 40.1495 58.0188C39.9148 57.8055 39.5735 57.6988 39.1255 57.6988ZM39.4455 63.6508C39.9148 63.6508 40.2722 63.5388 40.5175 63.3148C40.7735 63.0908 40.9015 62.7761 40.9015 62.3708C40.9015 61.9975 40.7735 61.7041 40.5175 61.4908C40.2722 61.2668 39.9148 61.1548 39.4455 61.1548H36.6135V63.6508H39.4455ZM47.2535 56.4828C48.4375 56.4828 49.3922 56.9041 50.1175 57.7468C50.8535 58.5788 51.2215 59.5655 51.2215 60.7068C51.2215 60.8241 51.2108 60.9895 51.1895 61.2028H44.1655C44.2722 62.0135 44.6135 62.6588 45.1895 63.1388C45.7762 63.6081 46.4962 63.8428 47.3495 63.8428C47.9575 63.8428 48.4802 63.7201 48.9175 63.4748C49.3655 63.2188 49.7015 62.8881 49.9255 62.4828L50.8535 63.0268C50.5015 63.5921 50.0215 64.0401 49.4135 64.3708C48.8055 64.7015 48.1122 64.8668 47.3335 64.8668C46.0748 64.8668 45.0508 64.4721 44.2615 63.6828C43.4722 62.8935 43.0775 61.8908 43.0775 60.6748C43.0775 59.4801 43.4668 58.4828 44.2455 57.6828C45.0242 56.8828 46.0268 56.4828 47.2535 56.4828ZM47.2535 57.5068C46.4215 57.5068 45.7228 57.7575 45.1575 58.2588C44.6028 58.7495 44.2722 59.3895 44.1655 60.1788H50.1335C50.0268 59.3361 49.7015 58.6801 49.1575 58.2108C48.6135 57.7415 47.9788 57.5068 47.2535 57.5068ZM57.1893 56.4828C58.3306 56.4828 59.3013 56.8881 60.1013 57.6988C60.9119 58.5095 61.3173 59.5015 61.3173 60.6748C61.3173 61.8481 60.9119 62.8401 60.1013 63.6508C59.3013 64.4615 58.3306 64.8668 57.1893 64.8668C55.7706 64.8668 54.6933 64.2801 53.9573 63.1068V67.8748H52.9013V56.6748H53.9573V58.2428C54.6933 57.0695 55.7706 56.4828 57.1893 56.4828ZM54.8693 62.9308C55.4773 63.5388 56.2239 63.8428 57.1093 63.8428C57.9946 63.8428 58.7413 63.5388 59.3493 62.9308C59.9573 62.3121 60.2613 61.5601 60.2613 60.6748C60.2613 59.7895 59.9573 59.0428 59.3493 58.4348C58.7413 57.8161 57.9946 57.5068 57.1093 57.5068C56.2239 57.5068 55.4773 57.8161 54.8693 58.4348C54.2613 59.0428 53.9573 59.7895 53.9573 60.6748C53.9573 61.5601 54.2613 62.3121 54.8693 62.9308ZM69.5371 64.6748H68.1291L64.1291 60.8188V64.6748H63.0731V56.6748H64.1291V60.2108L67.9371 56.6748H69.3771L65.2491 60.5148L69.5371 64.6748ZM77.0625 56.6748H78.1185V64.6748H77.0625V63.1068C76.3265 64.2801 75.2492 64.8668 73.8305 64.8668C72.6892 64.8668 71.7132 64.4615 70.9025 63.6508C70.1025 62.8401 69.7025 61.8481 69.7025 60.6748C69.7025 59.5015 70.1025 58.5095 70.9025 57.6988C71.7132 56.8881 72.6892 56.4828 73.8305 56.4828C75.2492 56.4828 76.3265 57.0695 77.0625 58.2428V56.6748ZM71.6705 62.9308C72.2785 63.5388 73.0252 63.8428 73.9105 63.8428C74.7958 63.8428 75.5425 63.5388 76.1505 62.9308C76.7585 62.3121 77.0625 61.5601 77.0625 60.6748C77.0625 59.7895 76.7585 59.0428 76.1505 58.4348C75.5425 57.8161 74.7958 57.5068 73.9105 57.5068C73.0252 57.5068 72.2785 57.8161 71.6705 58.4348C71.0625 59.0428 70.7585 59.7895 70.7585 60.6748C70.7585 61.5601 71.0625 62.3121 71.6705 62.9308ZM90.0184 56.6748H91.0744V64.6748H90.0184V61.1868H85.4104V64.6748H84.3544V56.6748H85.4104V60.1628H90.0184V56.6748ZM100.188 56.6748H101.244V64.6748H100.188V63.1068C99.4515 64.2801 98.3742 64.8668 96.9555 64.8668C95.8142 64.8668 94.8382 64.4615 94.0275 63.6508C93.2275 62.8401 92.8275 61.8481 92.8275 60.6748C92.8275 59.5015 93.2275 58.5095 94.0275 57.6988C94.8382 56.8881 95.8142 56.4828 96.9555 56.4828C98.3742 56.4828 99.4515 57.0695 100.188 58.2428V56.6748ZM94.7955 62.9308C95.4035 63.5388 96.1502 63.8428 97.0355 63.8428C97.9208 63.8428 98.6675 63.5388 99.2755 62.9308C99.8835 62.3121 100.188 61.5601 100.188 60.6748C100.188 59.7895 99.8835 59.0428 99.2755 58.4348C98.6675 57.8161 97.9208 57.5068 97.0355 57.5068C96.1502 57.5068 95.4035 57.8161 94.7955 58.4348C94.1875 59.0428 93.8835 59.7895 93.8835 60.6748C93.8835 61.5601 94.1875 62.3121 94.7955 62.9308ZM114.199 56.6748V64.6748H113.143V57.6988H108.535V64.6748H107.479V56.6748H114.199ZM123.137 63.6668C122.326 64.4668 121.334 64.8668 120.161 64.8668C118.987 64.8668 117.99 64.4668 117.169 63.6668C116.358 62.8561 115.953 61.8588 115.953 60.6748C115.953 59.4908 116.358 58.4988 117.169 57.6988C117.99 56.8881 118.987 56.4828 120.161 56.4828C121.334 56.4828 122.326 56.8881 123.137 57.6988C123.958 58.4988 124.369 59.4908 124.369 60.6748C124.369 61.8588 123.958 62.8561 123.137 63.6668ZM117.921 62.9308C118.529 63.5388 119.275 63.8428 120.161 63.8428C121.046 63.8428 121.793 63.5388 122.401 62.9308C123.009 62.3121 123.312 61.5601 123.312 60.6748C123.312 59.7895 123.009 59.0428 122.401 58.4348C121.793 57.8161 121.046 57.5068 120.161 57.5068C119.275 57.5068 118.529 57.8161 117.921 58.4348C117.313 59.0428 117.009 59.7895 117.009 60.6748C117.009 61.5601 117.313 62.3121 117.921 62.9308ZM132.383 56.6748V64.6748H131.327V57.6988H127.711V61.2668C127.711 62.6001 127.455 63.5175 126.943 64.0188C126.442 64.5201 125.748 64.7388 124.863 64.6748V63.6828C125.471 63.7468 125.919 63.6028 126.207 63.2508C126.506 62.8988 126.655 62.2375 126.655 61.2668V56.6748H132.383ZM140.444 56.6748H141.34V64.6748H140.284V58.5148L135.516 64.6748H134.62V56.6748H135.676V62.8348L140.444 56.6748ZM148.693 56.6748V57.6988H144.629V64.6748H143.573V56.6748H148.693ZM154.267 56.4828C155.409 56.4828 156.379 56.8881 157.179 57.6988C157.99 58.5095 158.395 59.5015 158.395 60.6748C158.395 61.8481 157.99 62.8401 157.179 63.6508C156.379 64.4615 155.409 64.8668 154.267 64.8668C152.849 64.8668 151.771 64.2801 151.035 63.1068V67.8748H149.979V56.6748H151.035V58.2428C151.771 57.0695 152.849 56.4828 154.267 56.4828ZM151.947 62.9308C152.555 63.5388 153.302 63.8428 154.187 63.8428C155.073 63.8428 155.819 63.5388 156.427 62.9308C157.035 62.3121 157.339 61.5601 157.339 60.6748C157.339 59.7895 157.035 59.0428 156.427 58.4348C155.819 57.8161 155.073 57.5068 154.187 57.5068C153.302 57.5068 152.555 57.8161 151.947 58.4348C151.339 59.0428 151.035 59.7895 151.035 60.6748C151.035 61.5601 151.339 62.3121 151.947 62.9308ZM167.031 56.6748H168.087V64.6748H167.031V63.1068C166.295 64.2801 165.218 64.8668 163.799 64.8668C162.658 64.8668 161.682 64.4615 160.871 63.6508C160.071 62.8401 159.671 61.8481 159.671 60.6748C159.671 59.5015 160.071 58.5095 160.871 57.6988C161.682 56.8881 162.658 56.4828 163.799 56.4828C165.218 56.4828 166.295 57.0695 167.031 58.2428V56.6748ZM161.639 62.9308C162.247 63.5388 162.994 63.8428 163.879 63.8428C164.765 63.8428 165.511 63.5388 166.119 62.9308C166.727 62.3121 167.031 61.5601 167.031 60.6748C167.031 59.7895 166.727 59.0428 166.119 58.4348C165.511 57.8161 164.765 57.5068 163.879 57.5068C162.994 57.5068 162.247 57.8161 161.639 58.4348C161.031 59.0428 160.727 59.7895 160.727 60.6748C160.727 61.5601 161.031 62.3121 161.639 62.9308ZM178.131 57.8268C178.899 58.6055 179.283 59.5548 179.283 60.6748C179.283 61.7948 178.899 62.7441 178.131 63.5228C177.363 64.3015 176.35 64.7441 175.091 64.8508V67.8748H174.035V64.8508C172.776 64.7441 171.763 64.3015 170.995 63.5228C170.227 62.7441 169.843 61.7948 169.843 60.6748C169.843 59.5548 170.227 58.6055 170.995 57.8268C171.763 57.0481 172.776 56.6055 174.035 56.4988V53.4748H175.091V56.4988C176.35 56.6055 177.363 57.0481 178.131 57.8268ZM171.747 58.5628C171.182 59.1388 170.899 59.8428 170.899 60.6748C170.899 61.5068 171.182 62.2161 171.747 62.8028C172.312 63.3788 173.075 63.7148 174.035 63.8108V57.5388C173.075 57.6348 172.312 57.9761 171.747 58.5628ZM175.091 63.8108C176.051 63.7148 176.814 63.3788 177.379 62.8028C177.944 62.2161 178.227 61.5068 178.227 60.6748C178.227 59.8428 177.944 59.1388 177.379 58.5628C176.814 57.9761 176.051 57.6348 175.091 57.5388V63.8108ZM184.738 56.4828C185.922 56.4828 186.877 56.9041 187.602 57.7468C188.338 58.5788 188.706 59.5655 188.706 60.7068C188.706 60.8241 188.695 60.9895 188.674 61.2028H181.65C181.757 62.0135 182.098 62.6588 182.674 63.1388C183.261 63.6081 183.981 63.8428 184.834 63.8428C185.442 63.8428 185.965 63.7201 186.402 63.4748C186.85 63.2188 187.186 62.8881 187.41 62.4828L188.338 63.0268C187.986 63.5921 187.506 64.0401 186.898 64.3708C186.29 64.7015 185.597 64.8668 184.818 64.8668C183.559 64.8668 182.535 64.4721 181.746 63.6828C180.957 62.8935 180.562 61.8908 180.562 60.6748C180.562 59.4801 180.951 58.4828 181.73 57.6828C182.509 56.8828 183.511 56.4828 184.738 56.4828ZM184.738 57.5068C183.906 57.5068 183.207 57.7575 182.642 58.2588C182.087 58.7495 181.757 59.3895 181.65 60.1788H187.618C187.511 59.3361 187.186 58.6801 186.642 58.2108C186.098 57.7415 185.463 57.5068 184.738 57.5068ZM201.106 56.6748V64.6748H200.05V57.6988H195.442V64.6748H194.386V56.6748H201.106ZM210.043 63.6668C209.232 64.4668 208.24 64.8668 207.067 64.8668C205.893 64.8668 204.896 64.4668 204.075 63.6668C203.264 62.8561 202.859 61.8588 202.859 60.6748C202.859 59.4908 203.264 58.4988 204.075 57.6988C204.896 56.8881 205.893 56.4828 207.067 56.4828C208.24 56.4828 209.232 56.8881 210.043 57.6988C210.864 58.4988 211.275 59.4908 211.275 60.6748C211.275 61.8588 210.864 62.8561 210.043 63.6668ZM204.827 62.9308C205.435 63.5388 206.181 63.8428 207.067 63.8428C207.952 63.8428 208.699 63.5388 209.307 62.9308C209.915 62.3121 210.219 61.5601 210.219 60.6748C210.219 59.7895 209.915 59.0428 209.307 58.4348C208.699 57.8161 207.952 57.5068 207.067 57.5068C206.181 57.5068 205.435 57.8161 204.827 58.4348C204.219 59.0428 203.915 59.7895 203.915 60.6748C203.915 61.5601 204.219 62.3121 204.827 62.9308ZM222.13 60.5628C223.005 60.8828 223.442 61.5068 223.442 62.4348C223.442 63.0855 223.223 63.6241 222.786 64.0508C222.359 64.4668 221.741 64.6748 220.93 64.6748H217.042V56.6748H220.61C221.389 56.6748 221.991 56.8775 222.418 57.2828C222.845 57.6775 223.058 58.1895 223.058 58.8188C223.058 59.6188 222.749 60.2001 222.13 60.5628ZM220.61 57.6988H218.098V60.1308H220.61C221.538 60.1308 222.002 59.7148 222.002 58.8828C222.002 58.5095 221.879 58.2215 221.634 58.0188C221.399 57.8055 221.058 57.6988 220.61 57.6988ZM220.93 63.6508C221.399 63.6508 221.757 63.5388 222.002 63.3148C222.258 63.0908 222.386 62.7761 222.386 62.3708C222.386 61.9975 222.258 61.7041 222.002 61.4908C221.757 61.2668 221.399 61.1548 220.93 61.1548H218.098V63.6508H220.93ZM228.77 64.8668C227.565 64.8668 226.562 64.4668 225.762 63.6668C224.962 62.8561 224.562 61.8588 224.562 60.6748C224.562 59.4908 224.962 58.4988 225.762 57.6988C226.562 56.8881 227.565 56.4828 228.77 56.4828C229.559 56.4828 230.269 56.6748 230.898 57.0588C231.527 57.4321 231.986 57.9388 232.274 58.5788L231.41 59.0748C231.197 58.5948 230.85 58.2161 230.37 57.9388C229.901 57.6508 229.367 57.5068 228.77 57.5068C227.885 57.5068 227.138 57.8161 226.53 58.4348C225.922 59.0428 225.618 59.7895 225.618 60.6748C225.618 61.5601 225.922 62.3121 226.53 62.9308C227.138 63.5388 227.885 63.8428 228.77 63.8428C229.367 63.8428 229.901 63.7041 230.37 63.4268C230.839 63.1388 231.207 62.7548 231.474 62.2748L232.354 62.7868C232.023 63.4268 231.538 63.9335 230.898 64.3068C230.258 64.6801 229.549 64.8668 228.77 64.8668ZM237.488 56.4828C238.672 56.4828 239.627 56.9041 240.352 57.7468C241.088 58.5788 241.456 59.5655 241.456 60.7068C241.456 60.8241 241.445 60.9895 241.424 61.2028H234.4C234.507 62.0135 234.848 62.6588 235.424 63.1388C236.011 63.6081 236.731 63.8428 237.584 63.8428C238.192 63.8428 238.715 63.7201 239.152 63.4748C239.6 63.2188 239.936 62.8881 240.16 62.4828L241.088 63.0268C240.736 63.5921 240.256 64.0401 239.648 64.3708C239.04 64.7015 238.347 64.8668 237.568 64.8668C236.309 64.8668 235.285 64.4721 234.496 63.6828C233.707 62.8935 233.312 61.8908 233.312 60.6748C233.312 59.4801 233.701 58.4828 234.48 57.6828C235.259 56.8828 236.261 56.4828 237.488 56.4828ZM237.488 57.5068C236.656 57.5068 235.957 57.7575 235.392 58.2588C234.837 58.7495 234.507 59.3895 234.4 60.1788H240.368C240.261 59.3361 239.936 58.6801 239.392 58.2108C238.848 57.7415 238.213 57.5068 237.488 57.5068ZM244.416 55.3948V54.4668H248.576V55.3948H244.416ZM248.96 56.6748H249.856V64.6748H248.8V58.5148L244.032 64.6748H243.136V56.6748H244.192V62.8348L248.96 56.6748ZM260.249 53.4748C261.251 53.4748 262.089 53.8108 262.761 54.4828C263.433 55.1548 263.769 55.9921 263.769 56.9948C263.769 57.9975 263.433 58.8348 262.761 59.5068C262.089 60.1788 261.251 60.5148 260.249 60.5148H257.369V64.6748H256.249V53.4748H260.249ZM260.249 59.4588C260.942 59.4588 261.513 59.2295 261.961 58.7708C262.419 58.3015 262.649 57.7095 262.649 56.9948C262.649 56.2801 262.419 55.6935 261.961 55.2348C261.513 54.7655 260.942 54.5308 260.249 54.5308H257.369V59.4588H260.249ZM271.59 63.6668C270.779 64.4668 269.787 64.8668 268.614 64.8668C267.44 64.8668 266.443 64.4668 265.622 63.6668C264.811 62.8561 264.406 61.8588 264.406 60.6748C264.406 59.4908 264.811 58.4988 265.622 57.6988C266.443 56.8881 267.44 56.4828 268.614 56.4828C269.787 56.4828 270.779 56.8881 271.59 57.6988C272.411 58.4988 272.822 59.4908 272.822 60.6748C272.822 61.8588 272.411 62.8561 271.59 63.6668ZM266.374 62.9308C266.982 63.5388 267.728 63.8428 268.614 63.8428C269.499 63.8428 270.246 63.5388 270.854 62.9308C271.462 62.3121 271.766 61.5601 271.766 60.6748C271.766 59.7895 271.462 59.0428 270.854 58.4348C270.246 57.8161 269.499 57.5068 268.614 57.5068C267.728 57.5068 266.982 57.8161 266.374 58.4348C265.766 59.0428 265.462 59.7895 265.462 60.6748C265.462 61.5601 265.766 62.3121 266.374 62.9308ZM278.317 64.8668C277.111 64.8668 276.109 64.4668 275.309 63.6668C274.509 62.8561 274.109 61.8588 274.109 60.6748C274.109 59.4908 274.509 58.4988 275.309 57.6988C276.109 56.8881 277.111 56.4828 278.317 56.4828C279.106 56.4828 279.815 56.6748 280.445 57.0588C281.074 57.4321 281.533 57.9388 281.821 58.5788L280.957 59.0748C280.743 58.5948 280.397 58.2161 279.917 57.9388C279.447 57.6508 278.914 57.5068 278.317 57.5068C277.431 57.5068 276.685 57.8161 276.077 58.4348C275.469 59.0428 275.165 59.7895 275.165 60.6748C275.165 61.5601 275.469 62.3121 276.077 62.9308C276.685 63.5388 277.431 63.8428 278.317 63.8428C278.914 63.8428 279.447 63.7041 279.917 63.4268C280.386 63.1388 280.754 62.7548 281.021 62.2748L281.901 62.7868C281.57 63.4268 281.085 63.9335 280.445 64.3068C279.805 64.6801 279.095 64.8668 278.317 64.8668ZM287.067 64.8668C285.861 64.8668 284.859 64.4668 284.059 63.6668C283.259 62.8561 282.859 61.8588 282.859 60.6748C282.859 59.4908 283.259 58.4988 284.059 57.6988C284.859 56.8881 285.861 56.4828 287.067 56.4828C287.856 56.4828 288.565 56.6748 289.195 57.0588C289.824 57.4321 290.283 57.9388 290.571 58.5788L289.707 59.0748C289.493 58.5948 289.147 58.2161 288.667 57.9388C288.197 57.6508 287.664 57.5068 287.067 57.5068C286.181 57.5068 285.435 57.8161 284.827 58.4348C284.219 59.0428 283.915 59.7895 283.915 60.6748C283.915 61.5601 284.219 62.3121 284.827 62.9308C285.435 63.5388 286.181 63.8428 287.067 63.8428C287.664 63.8428 288.197 63.7041 288.667 63.4268C289.136 63.1388 289.504 62.7548 289.771 62.2748L290.651 62.7868C290.32 63.4268 289.835 63.9335 289.195 64.3068C288.555 64.6801 287.845 64.8668 287.067 64.8668ZM297.991 56.6748H298.887V64.6748H297.831V58.5148L293.063 64.6748H292.167V56.6748H293.223V62.8348L297.991 56.6748ZM306.944 56.6748H307.84V64.6748H306.784V58.5148L302.016 64.6748H301.12V56.6748H302.176V62.8348L306.944 56.6748Z" fill="black"/>
</svg>
