<svg width="229" height="46" viewBox="0 0 229 46" fill="none" xmlns="http://www.w3.org/2000/svg">
<path d="M47.4066 9.48828H40.5683C40.3359 9.48828 40.1415 9.68274 40.1415 9.91513V10.2453C40.1415 10.4777 40.3359 10.6721 40.5683 10.6721H43.3955V20.6678C43.3955 20.9002 43.59 21.0946 43.8224 21.0946H44.1525C44.3849 21.0946 44.5794 20.9002 44.5794 20.6678V10.6721H47.4066C47.639 10.6721 47.8335 10.4777 47.8335 10.2453V9.91513C47.8335 9.66012 47.6279 9.48828 47.4066 9.48828Z" fill="#D94D4D" stroke="#D94D4D" stroke-width="0.5" stroke-linejoin="round"/>
<path d="M56.0128 10.7523L56.0128 10.7523L56.0115 10.751C55.1636 9.91563 54.1341 9.48828 52.9474 9.48828H49.3632C49.1308 9.48828 48.9364 9.68274 48.9364 9.91513V20.6678C48.9364 20.9002 49.1308 21.0946 49.3632 21.0946H49.6934C49.9257 21.0946 50.1202 20.9002 50.1202 20.6678V18.1589H52.9474C54.1329 18.1589 55.1758 17.7322 56.0135 16.8824C56.8491 16.0464 57.2886 15.0048 57.2886 13.8177C57.2886 12.6308 56.8611 11.6006 56.0128 10.7523ZM52.9474 16.975H50.1202V10.6603H52.9474C53.8135 10.6603 54.5622 10.9647 55.1743 11.5877L55.1743 11.5877L55.1759 11.5893C55.79 12.2034 56.1048 12.9536 56.1048 13.8177C56.1048 14.6951 55.8008 15.4321 55.1774 16.0445L55.1759 16.0461C54.5618 16.6602 53.8115 16.975 52.9474 16.975Z" fill="#D94D4D" stroke="#D94D4D" stroke-width="0.5" stroke-linejoin="round"/>
<path d="M62.5093 9.72087L62.5092 9.72083L62.5064 9.72687L57.4838 20.4795L57.4834 20.4793L57.4782 20.4925C57.4342 20.6025 57.4175 20.761 57.5221 20.9004L57.7221 20.7504L57.5221 20.9004C57.5945 20.997 57.7222 21.0829 57.8753 21.0829H58.2408C58.41 21.0829 58.5535 20.9906 58.6295 20.8386L58.6296 20.8386L58.6323 20.8328L59.3431 19.3144H66.8773L67.5858 20.828C67.6525 20.984 67.8171 21.0829 67.9795 21.0829H68.345C68.4981 21.0829 68.6258 20.997 68.6983 20.9004L68.4983 20.7504L68.6983 20.9004C68.7985 20.7667 68.7925 20.5946 68.7355 20.4772L63.7043 9.7315C63.6376 9.57552 63.473 9.47656 63.3106 9.47656H62.8979C62.7287 9.47656 62.5853 9.56888 62.5093 9.72087ZM66.3255 18.1541H59.8949L63.1102 11.2612L66.3255 18.1541Z" fill="#D94D4D" stroke="#D94D4D" stroke-width="0.5" stroke-linejoin="round"/>
<path d="M79.2511 9.48828H78.9209C78.6885 9.48828 78.4941 9.68274 78.4941 9.91513V14.6995H71.2008V9.91513C71.2008 9.68274 71.0063 9.48828 70.7739 9.48828H70.4438C70.2114 9.48828 70.0169 9.68274 70.0169 9.91513V20.6678C70.0169 20.9002 70.2114 21.0946 70.4438 21.0946H70.7739C71.0063 21.0946 71.2008 20.9002 71.2008 20.6678V15.8834H78.4941V20.6678C78.4941 20.9002 78.6885 21.0946 78.9209 21.0946H79.2511C79.4834 21.0946 79.6779 20.9002 79.6779 20.6678V9.91513C79.6779 9.66012 79.4724 9.48828 79.2511 9.48828Z" fill="#D94D4D" stroke="#D94D4D" stroke-width="0.5" stroke-linejoin="round"/>
<path d="M91.9214 19.0436C91.9122 19.0299 91.9018 19.0171 91.8901 19.0055L91.6543 18.7697C91.486 18.6013 91.2216 18.6013 91.0532 18.7697C90.0863 19.7366 88.912 20.2174 87.5632 20.2174C86.2039 20.2174 85.0289 19.7256 84.0609 18.7691C83.0946 17.8025 82.6138 16.6285 82.6138 15.2679C82.6138 13.9095 83.1049 12.7462 84.0615 11.778C85.0283 10.8229 86.2027 10.342 87.5632 10.342C88.9219 10.342 90.0853 10.8334 91.0537 11.7903C91.2095 11.9455 91.4924 11.9724 91.6606 11.7835L91.8901 11.5539C92.0585 11.3856 92.0585 11.1212 91.8901 10.9528C90.6998 9.76241 89.245 9.1582 87.5632 9.1582C85.8709 9.1582 84.4037 9.76157 83.2241 10.9533C82.034 12.1436 81.4299 13.5982 81.4299 15.2797C81.4299 16.972 82.0333 18.4393 83.225 19.6189C84.4157 20.8093 85.8822 21.413 87.5632 21.413C89.245 21.413 90.6998 20.8088 91.8901 19.6184C91.9889 19.5196 92.0105 19.3976 92.0105 19.312C92.0105 19.1897 91.9533 19.0914 91.9214 19.0436Z" fill="#D94D4D" stroke="#D94D4D" stroke-width="0.5" stroke-linejoin="round"/>
<path d="M95.275 10.9519L95.275 10.9519L95.274 10.9529C94.0836 12.1432 93.4794 13.598 93.4794 15.2798C93.4794 16.9721 94.0828 18.4393 95.2745 19.6189C96.3224 20.6667 97.5744 21.253 99.0208 21.3837V21.9648C99.0208 22.1972 99.2153 22.3917 99.4477 22.3917H99.7778C100.01 22.3917 100.205 22.1972 100.205 21.9648V21.397C101.643 21.2748 102.905 20.6768 103.951 19.6303C105.142 18.4395 105.746 16.9728 105.746 15.2916C105.746 13.61 105.142 12.1554 103.952 10.9651C102.905 9.90694 101.643 9.30836 100.205 9.18615V8.60654C100.205 8.37415 100.01 8.17969 99.7778 8.17969H99.4477C99.2153 8.17969 99.0208 8.37415 99.0208 8.60654V9.18789C97.5832 9.32005 96.3217 9.91678 95.275 10.9519ZM100.205 20.2084V10.3631C101.308 10.4816 102.29 10.9549 103.113 11.7887L103.114 11.7898C104.081 12.7567 104.562 13.931 104.562 15.2798C104.562 16.6393 104.07 17.8145 103.113 18.7826L103.113 18.7827C102.289 19.6172 101.316 20.0904 100.205 20.2084ZM96.1115 11.7893C96.9354 10.9656 97.9087 10.4927 99.0208 10.3653V20.206C97.9085 20.0786 96.9349 19.6055 96.111 18.7815C95.1443 17.8148 94.6633 16.6406 94.6633 15.2798C94.6633 13.9211 95.1546 12.7577 96.1115 11.7893Z" fill="#D94D4D" stroke="#D94D4D" stroke-width="0.5" stroke-linejoin="round"/>
<path d="M112.983 9.1582C111.291 9.1582 109.824 9.76157 108.644 10.9533C107.454 12.1436 106.85 13.5982 106.85 15.2797C106.85 16.972 107.453 18.4393 108.645 19.6189C109.836 20.8093 111.302 21.413 112.983 21.413C114.665 21.413 116.12 20.8088 117.31 19.6184C118.501 18.4277 119.105 16.9609 119.105 15.2797C119.105 13.5979 118.501 12.1432 117.31 10.9528C116.12 9.76241 114.665 9.1582 112.983 9.1582ZM112.983 10.342C114.342 10.342 115.505 10.8334 116.474 11.7903C117.44 12.7571 117.921 13.9312 117.921 15.2797C117.921 16.639 117.429 17.8141 116.473 18.782C115.506 19.7486 114.332 20.2292 112.983 20.2292C111.624 20.2292 110.449 19.7374 109.481 18.7809C108.515 17.8143 108.034 16.6403 108.034 15.2797C108.034 13.921 108.525 12.7576 109.482 11.7892C110.449 10.8229 111.623 10.342 112.983 10.342Z" fill="#D94D4D" stroke="#D94D4D" stroke-width="0.5" stroke-linejoin="round"/>
<path d="M124.867 16.975H122.04V10.6603H124.867C125.733 10.6603 126.482 10.9647 127.094 11.5877L127.094 11.5877L127.095 11.5893C127.709 12.2034 128.024 12.9536 128.024 13.8177C128.024 14.6951 127.72 15.4321 127.097 16.0445L127.097 16.0445L127.094 16.0477C126.481 16.671 125.744 16.975 124.867 16.975ZM124.867 9.48828H121.283C121.05 9.48828 120.856 9.68274 120.856 9.91513V20.6678C120.856 20.9002 121.05 21.0946 121.283 21.0946H121.613C121.845 21.0946 122.04 20.9002 122.04 20.6678V18.1589H124.867C126.052 18.1589 127.095 17.7322 127.933 16.8824C128.769 16.0464 129.208 15.0048 129.208 13.8177C129.208 12.6322 128.781 11.5893 127.932 10.7517C127.094 9.9147 126.052 9.48828 124.867 9.48828Z" fill="#D94D4D" stroke="#D94D4D" stroke-width="0.5" stroke-linejoin="round"/>
<path d="M141.48 9.65903L141.48 9.65901L141.477 9.66224L136.822 16.0801L132.167 9.66224L132.167 9.66222L132.165 9.65903C132.082 9.54891 131.961 9.48828 131.823 9.48828H131.411C131.178 9.48828 130.984 9.68274 130.984 9.91513V20.6678C130.984 20.9002 131.178 21.0946 131.411 21.0946H131.741C131.973 21.0946 132.168 20.9002 132.168 20.6678V11.6769L136.266 17.3363L136.266 17.3363L136.269 17.3397C136.351 17.4498 136.472 17.5104 136.61 17.5104H137.058C137.196 17.5104 137.317 17.4498 137.4 17.3397L137.4 17.3397L137.402 17.3363L141.501 11.6769V20.6678C141.501 20.9002 141.695 21.0946 141.927 21.0946H142.258C142.49 21.0946 142.684 20.9002 142.684 20.6678V9.91513C142.684 9.89689 142.682 9.87871 142.678 9.8609C142.634 9.65872 142.463 9.48828 142.234 9.48828H141.821C141.684 9.48828 141.562 9.54891 141.48 9.65903Z" fill="#D94D4D" stroke="#D94D4D" stroke-width="0.5" stroke-linejoin="round"/>
<path d="M148.872 9.72087L148.872 9.72083L148.869 9.72687L143.847 20.4795L143.846 20.4793L143.841 20.4925C143.797 20.6025 143.781 20.761 143.885 20.9004L144.085 20.7504L143.885 20.9004C143.958 20.997 144.085 21.0829 144.238 21.0829H144.604C144.773 21.0829 144.917 20.9906 144.993 20.8386L144.993 20.8386L144.995 20.8328L145.706 19.3144H153.24L153.949 20.828C154.016 20.984 154.18 21.0829 154.343 21.0829H154.708C154.861 21.0829 154.989 20.997 155.061 20.9004L154.861 20.7504L155.061 20.9004C155.162 20.7667 155.156 20.5946 155.099 20.4772L150.067 9.7315C150.001 9.57552 149.836 9.47656 149.674 9.47656H149.261C149.092 9.47656 148.948 9.56888 148.872 9.72087ZM152.677 18.1541H146.246L149.461 11.2612L152.677 18.1541Z" fill="#D94D4D" stroke="#D94D4D" stroke-width="0.5" stroke-linejoin="round"/>
<path d="M164.635 19.899H163.093V9.91513C163.093 9.68274 162.899 9.48828 162.666 9.48828H162.336C162.104 9.48828 161.909 9.68274 161.909 9.91513V19.899H157.552V9.91513C157.552 9.68274 157.357 9.48828 157.125 9.48828H156.795C156.562 9.48828 156.368 9.68274 156.368 9.91513V20.6678C156.368 20.9002 156.562 21.0946 156.795 21.0946H163.867V22.283C163.867 22.5154 164.061 22.7099 164.293 22.7099H164.635C164.868 22.7099 165.062 22.5154 165.062 22.283V20.3259C165.062 20.0935 164.868 19.899 164.635 19.899Z" fill="#D94D4D" stroke="#D94D4D" stroke-width="0.5" stroke-linejoin="round"/>
<path d="M174.375 9.65903L174.375 9.65901L174.372 9.66226L167.668 18.9068V9.91513C167.668 9.68274 167.474 9.48828 167.241 9.48828H166.911C166.679 9.48828 166.484 9.68274 166.484 9.91513V20.6678C166.484 20.9002 166.679 21.0946 166.911 21.0946H167.324C167.461 21.0946 167.583 21.034 167.665 20.9239L167.665 20.9239L167.668 20.9206L174.372 11.6761V20.6678C174.372 20.9002 174.566 21.0946 174.799 21.0946H175.129C175.361 21.0946 175.556 20.9002 175.556 20.6678V9.91513C175.556 9.66012 175.35 9.48828 175.129 9.48828H174.716C174.579 9.48828 174.457 9.54891 174.375 9.65903Z" fill="#D94D4D" stroke="#D94D4D" stroke-width="0.5" stroke-linejoin="round"/>
<path d="M179.381 21.1406L179.381 21.1407L179.384 21.1369L181.022 18.2952C181.364 18.3763 181.723 18.4206 182.091 18.4206H185.248V20.9295C185.248 21.1619 185.443 21.3563 185.675 21.3563H186.005C186.238 21.3563 186.432 21.1619 186.432 20.9295V10.1769C186.432 9.92184 186.227 9.75 186.005 9.75H182.091C180.905 9.75 179.862 10.1769 179.024 11.0271C178.19 11.8736 177.75 12.9027 177.75 14.0912C177.75 15.2767 178.177 16.3196 179.026 17.1572C179.298 17.429 179.595 17.6603 179.91 17.851L178.256 20.7206C178.219 20.7819 178.195 20.8545 178.195 20.9354C178.195 21.0172 178.22 21.0906 178.257 21.1524L178.471 21.0238L178.257 21.1524C178.347 21.3028 178.499 21.3563 178.625 21.3563H179.014C179.173 21.3563 179.308 21.2636 179.381 21.1406ZM182.091 10.922H185.248V17.2368H182.091C181.214 17.2368 180.477 16.9327 179.864 16.3094L179.864 16.3094L179.863 16.3078C179.249 15.6937 178.934 14.9435 178.934 14.0794C178.934 13.202 179.238 12.4649 179.861 11.8525L179.861 11.8525L179.863 11.851C180.477 11.2365 181.216 10.922 182.091 10.922Z" fill="#D94D4D" stroke="#D94D4D" stroke-width="0.5" stroke-linejoin="round"/>
<path d="M7.27466 0C9.76238 0.966794 12.1558 2.16939 14.3134 3.67853C15.1387 4.25625 15.9169 4.90471 16.5889 5.62391C17.5439 4.60996 18.6993 3.74928 19.9019 2.99471C21.7884 1.81569 23.8045 0.813519 25.9149 0.0117873C25.6791 0.754568 25.4433 1.49735 25.2075 2.24013C23.0027 3.23051 20.8451 4.37415 19.0059 5.89508C18.4399 6.37848 17.9094 6.89725 17.4732 7.48676C17.1077 7.95836 16.8719 8.48892 16.6007 9.00769C16.3413 8.5125 16.1173 8.00552 15.7754 7.55749C15.0326 6.53175 14.0186 5.70644 12.9575 4.96366C11.413 3.90254 9.72701 3.01828 7.99386 2.25192C7.74626 1.48556 7.51046 0.742781 7.27466 0Z" fill="#D94D4D"/>
<path d="M10.3636 24.4652C10.9177 24.4652 11.6605 23.8638 12.3797 22.8381C13.0517 21.4587 13.4997 20.1382 13.7355 18.9002C12.1321 19.6312 9.67973 20.8338 8.37102 21.7652C8.37102 22.1189 8.54787 22.9089 9.12559 23.6398C9.32602 23.8992 9.82121 24.4652 10.3636 24.4652ZM13.5823 14.7265C13.4526 14.2549 13.2757 13.8068 13.0635 13.3588C11.5072 10.1519 8.00552 8.02966 5.34094 6.80348C4.39773 6.36725 3.4781 6.01354 2.67637 5.73057C2.79427 6.14323 2.92396 6.57947 3.06544 7.01571C4.33878 11.0126 5.34094 12.2741 5.70644 12.6278C6.04835 12.9579 7.192 13.7951 10.4461 14.3492C11.743 14.585 12.922 14.6793 13.5823 14.7265ZM10.3636 26.387C7.41601 26.387 5.48243 21.6001 6.99157 20.4211C9.09022 18.7941 14.0775 16.6601 14.0775 16.6601C14.0775 16.6601 6.89725 16.4478 4.38594 14.0073C1.86285 11.5667 0 2.97168 0 2.97168C0 2.97168 22.1537 7.51089 14.0421 23.8167C12.7216 26.045 11.4954 26.387 10.3636 26.387Z" fill="#D94D4D"/>
<path d="M22.8611 24.5004C22.307 24.5004 21.5642 23.8991 20.845 22.8733C20.173 21.4939 19.725 20.1734 19.4892 18.9354C21.0926 19.6664 23.545 20.869 24.8537 21.8004C24.8537 22.1541 24.6768 22.9441 24.0991 23.6751C23.9105 23.9227 23.4035 24.5004 22.8611 24.5004ZM19.6424 14.7499C19.7721 14.2783 19.949 13.8303 20.1612 13.3823C21.7175 10.1753 25.2192 8.0531 27.8838 6.82692C28.827 6.39069 29.7466 6.03698 30.5483 5.75401C30.4304 6.16667 30.3007 6.60291 30.1593 7.03914C28.8859 11.036 27.8838 12.2976 27.5183 12.6513C27.1763 12.9814 26.0327 13.8185 22.7786 14.3726C21.4935 14.6084 20.3027 14.7027 19.6424 14.7499ZM22.8611 26.4104C25.8087 26.4104 27.7423 21.6236 26.2331 20.4446C24.1345 18.8175 19.1472 16.6835 19.1472 16.6835C19.1472 16.6835 26.3275 16.4713 28.8388 14.0307C31.3619 11.5901 33.2247 2.99512 33.2247 2.99512C33.2247 2.99512 11.0828 7.53434 19.1944 23.8519C20.5149 26.0685 21.7411 26.4104 22.8611 26.4104Z" fill="#D94D4D"/>
<path d="M10.3636 24.4652C10.9177 24.4652 11.6605 23.8638 12.3797 22.8381C13.0517 21.4587 13.4997 20.1382 13.7355 18.9002C12.1321 19.6312 9.67973 20.8338 8.37102 21.7652C8.37102 22.1189 8.54787 22.9089 9.12559 23.6398C9.32602 23.8992 9.82121 24.4652 10.3636 24.4652ZM13.5823 14.7265C13.4526 14.2549 13.2757 13.8068 13.0635 13.3588C11.5072 10.1519 8.00552 8.02966 5.34094 6.80348C4.39773 6.36725 3.4781 6.01354 2.67637 5.73057C2.79427 6.14323 2.92396 6.57947 3.06544 7.01571C4.33878 11.0126 5.34094 12.2741 5.70644 12.6278C6.04835 12.9579 7.192 13.7951 10.4461 14.3492C11.743 14.585 12.922 14.6793 13.5823 14.7265ZM10.3636 26.387C7.41601 26.387 5.48243 21.6001 6.99157 20.4211C9.09022 18.7941 14.0775 16.6601 14.0775 16.6601C14.0775 16.6601 6.89725 16.4478 4.38594 14.0073C1.86285 11.5667 0 2.97168 0 2.97168C0 2.97168 22.1537 7.51089 14.0421 23.8167C12.7216 26.045 11.4954 26.387 10.3636 26.387Z" fill="#D94D4D"/>
<path d="M22.8611 24.5004C22.307 24.5004 21.5642 23.8991 20.845 22.8733C20.173 21.4939 19.725 20.1734 19.4892 18.9354C21.0926 19.6664 23.545 20.869 24.8537 21.8004C24.8537 22.1541 24.6768 22.9441 24.0991 23.6751C23.9105 23.9227 23.4035 24.5004 22.8611 24.5004ZM19.6424 14.7499C19.7721 14.2783 19.949 13.8303 20.1612 13.3823C21.7175 10.1753 25.2192 8.0531 27.8838 6.82692C28.827 6.39069 29.7466 6.03698 30.5483 5.75401C30.4304 6.16667 30.3007 6.60291 30.1593 7.03914C28.8859 11.036 27.8838 12.2976 27.5183 12.6513C27.1763 12.9814 26.0327 13.8185 22.7786 14.3726C21.4935 14.6084 20.3027 14.7027 19.6424 14.7499ZM22.8611 26.4104C25.8087 26.4104 27.7423 21.6236 26.2331 20.4446C24.1345 18.8175 19.1472 16.6835 19.1472 16.6835C19.1472 16.6835 26.3275 16.4713 28.8388 14.0307C31.3619 11.5901 33.2247 2.99512 33.2247 2.99512C33.2247 2.99512 11.0828 7.53434 19.1944 23.8519C20.5149 26.0685 21.7411 26.4104 22.8611 26.4104Z" fill="#D94D4D"/>
<path d="M6.96 34.6V43H6.12V35.392H1.8V43H0.96V34.6H6.96ZM11.9779 36.856C12.8339 36.856 13.5619 37.16 14.1619 37.768C14.7699 38.376 15.0739 39.12 15.0739 40C15.0739 40.88 14.7699 41.624 14.1619 42.232C13.5619 42.84 12.8339 43.144 11.9779 43.144C10.9139 43.144 10.1059 42.704 9.55388 41.824V45.4H8.76188V37H9.55388V38.176C10.1059 37.296 10.9139 36.856 11.9779 36.856ZM10.2379 41.692C10.6939 42.148 11.2539 42.376 11.9179 42.376C12.5819 42.376 13.1419 42.148 13.5979 41.692C14.0539 41.228 14.2819 40.664 14.2819 40C14.2819 39.336 14.0539 38.776 13.5979 38.32C13.1419 37.856 12.5819 37.624 11.9179 37.624C11.2539 37.624 10.6939 37.856 10.2379 38.32C9.78188 38.776 9.55388 39.336 9.55388 40C9.55388 40.664 9.78188 41.228 10.2379 41.692ZM21.4188 42.244C20.8108 42.844 20.0668 43.144 19.1868 43.144C18.3068 43.144 17.5588 42.844 16.9428 42.244C16.3348 41.636 16.0308 40.888 16.0308 40C16.0308 39.112 16.3348 38.368 16.9428 37.768C17.5588 37.16 18.3068 36.856 19.1868 36.856C20.0668 36.856 20.8108 37.16 21.4188 37.768C22.0348 38.368 22.3428 39.112 22.3428 40C22.3428 40.888 22.0348 41.636 21.4188 42.244ZM17.5068 41.692C17.9628 42.148 18.5228 42.376 19.1868 42.376C19.8508 42.376 20.4108 42.148 20.8668 41.692C21.3228 41.228 21.5508 40.664 21.5508 40C21.5508 39.336 21.3228 38.776 20.8668 38.32C20.4108 37.856 19.8508 37.624 19.1868 37.624C18.5228 37.624 17.9628 37.856 17.5068 38.32C17.0508 38.776 16.8228 39.336 16.8228 40C16.8228 40.664 17.0508 41.228 17.5068 41.692ZM27.4841 39.916C28.1401 40.156 28.4681 40.624 28.4681 41.32C28.4681 41.808 28.3041 42.212 27.9761 42.532C27.6561 42.844 27.1921 43 26.5841 43H23.6681V37H26.3441C26.9281 37 27.3801 37.152 27.7001 37.456C28.0201 37.752 28.1801 38.136 28.1801 38.608C28.1801 39.208 27.9481 39.644 27.4841 39.916ZM26.3441 37.768H24.4601V39.592H26.3441C27.0401 39.592 27.3881 39.28 27.3881 38.656C27.3881 38.376 27.2961 38.16 27.1121 38.008C26.9361 37.848 26.6801 37.768 26.3441 37.768ZM26.5841 42.232C26.9361 42.232 27.2041 42.148 27.3881 41.98C27.5801 41.812 27.6761 41.576 27.6761 41.272C27.6761 40.992 27.5801 40.772 27.3881 40.612C27.2041 40.444 26.9361 40.36 26.5841 40.36H24.4601V42.232H26.5841ZM32.4401 36.856C33.3281 36.856 34.0441 37.172 34.5881 37.804C35.1401 38.428 35.4161 39.168 35.4161 40.024C35.4161 40.112 35.4081 40.236 35.3921 40.396H30.1241C30.2041 41.004 30.4601 41.488 30.8921 41.848C31.3321 42.2 31.8721 42.376 32.5121 42.376C32.9681 42.376 33.3601 42.284 33.6881 42.1C34.0241 41.908 34.2761 41.66 34.4441 41.356L35.1401 41.764C34.8761 42.188 34.5161 42.524 34.0601 42.772C33.6041 43.02 33.0841 43.144 32.5001 43.144C31.5561 43.144 30.7881 42.848 30.1961 42.256C29.6041 41.664 29.3081 40.912 29.3081 40C29.3081 39.104 29.6001 38.356 30.1841 37.756C30.7681 37.156 31.5201 36.856 32.4401 36.856ZM32.4401 37.624C31.8161 37.624 31.2921 37.812 30.8681 38.188C30.4521 38.556 30.2041 39.036 30.1241 39.628H34.6001C34.5201 38.996 34.2761 38.504 33.8681 38.152C33.4601 37.8 32.9841 37.624 32.4401 37.624ZM39.8919 36.856C40.7479 36.856 41.4759 37.16 42.0759 37.768C42.6839 38.376 42.9879 39.12 42.9879 40C42.9879 40.88 42.6839 41.624 42.0759 42.232C41.4759 42.84 40.7479 43.144 39.8919 43.144C38.8279 43.144 38.0199 42.704 37.4679 41.824V45.4H36.6759V37H37.4679V38.176C38.0199 37.296 38.8279 36.856 39.8919 36.856ZM38.1519 41.692C38.6079 42.148 39.1679 42.376 39.8319 42.376C40.4959 42.376 41.0559 42.148 41.5119 41.692C41.9679 41.228 42.1959 40.664 42.1959 40C42.1959 39.336 41.9679 38.776 41.5119 38.32C41.0559 37.856 40.4959 37.624 39.8319 37.624C39.1679 37.624 38.6079 37.856 38.1519 38.32C37.6959 38.776 37.4679 39.336 37.4679 40C37.4679 40.664 37.6959 41.228 38.1519 41.692ZM49.1528 43H48.0968L45.0968 40.108V43H44.3048V37H45.0968V39.652L47.9528 37H49.0328L45.9368 39.88L49.1528 43ZM54.7969 37H55.5889V43H54.7969V41.824C54.2449 42.704 53.4369 43.144 52.3729 43.144C51.5169 43.144 50.7849 42.84 50.1769 42.232C49.5769 41.624 49.2769 40.88 49.2769 40C49.2769 39.12 49.5769 38.376 50.1769 37.768C50.7849 37.16 51.5169 36.856 52.3729 36.856C53.4369 36.856 54.2449 37.296 54.7969 38.176V37ZM50.7529 41.692C51.2089 42.148 51.7689 42.376 52.4329 42.376C53.0969 42.376 53.6569 42.148 54.1129 41.692C54.5689 41.228 54.7969 40.664 54.7969 40C54.7969 39.336 54.5689 38.776 54.1129 38.32C53.6569 37.856 53.0969 37.624 52.4329 37.624C51.7689 37.624 51.2089 37.856 50.7529 38.32C50.2969 38.776 50.0689 39.336 50.0689 40C50.0689 40.664 50.2969 41.228 50.7529 41.692ZM64.5138 37H65.3058V43H64.5138V40.384H61.0578V43H60.2658V37H61.0578V39.616H64.5138V37ZM72.1406 37H72.9326V43H72.1406V41.824C71.5886 42.704 70.7806 43.144 69.7166 43.144C68.8606 43.144 68.1286 42.84 67.5206 42.232C66.9206 41.624 66.6206 40.88 66.6206 40C66.6206 39.12 66.9206 38.376 67.5206 37.768C68.1286 37.16 68.8606 36.856 69.7166 36.856C70.7806 36.856 71.5886 37.296 72.1406 38.176V37ZM68.0966 41.692C68.5526 42.148 69.1126 42.376 69.7766 42.376C70.4406 42.376 71.0006 42.148 71.4566 41.692C71.9126 41.228 72.1406 40.664 72.1406 40C72.1406 39.336 71.9126 38.776 71.4566 38.32C71.0006 37.856 70.4406 37.624 69.7766 37.624C69.1126 37.624 68.5526 37.856 68.0966 38.32C67.6406 38.776 67.4126 39.336 67.4126 40C67.4126 40.664 67.6406 41.228 68.0966 41.692ZM82.6495 37V43H81.8575V37.768H78.4015V43H77.6095V37H82.6495ZM89.3524 42.244C88.7444 42.844 88.0004 43.144 87.1204 43.144C86.2404 43.144 85.4924 42.844 84.8764 42.244C84.2684 41.636 83.9644 40.888 83.9644 40C83.9644 39.112 84.2684 38.368 84.8764 37.768C85.4924 37.16 86.2404 36.856 87.1204 36.856C88.0004 36.856 88.7444 37.16 89.3524 37.768C89.9684 38.368 90.2764 39.112 90.2764 40C90.2764 40.888 89.9684 41.636 89.3524 42.244ZM85.4404 41.692C85.8964 42.148 86.4564 42.376 87.1204 42.376C87.7844 42.376 88.3444 42.148 88.8004 41.692C89.2564 41.228 89.4844 40.664 89.4844 40C89.4844 39.336 89.2564 38.776 88.8004 38.32C88.3444 37.856 87.7844 37.624 87.1204 37.624C86.4564 37.624 85.8964 37.856 85.4404 38.32C84.9844 38.776 84.7564 39.336 84.7564 40C84.7564 40.664 84.9844 41.228 85.4404 41.692ZM96.2873 37V43H95.4953V37.768H92.7833V40.444C92.7833 41.444 92.5913 42.132 92.2073 42.508C91.8313 42.884 91.3113 43.048 90.6473 43V42.256C91.1033 42.304 91.4393 42.196 91.6553 41.932C91.8793 41.668 91.9913 41.172 91.9913 40.444V37H96.2873ZM102.333 37H103.005V43H102.213V38.38L98.637 43H97.965V37H98.757V41.62L102.333 37ZM108.52 37V37.768H105.472V43H104.68V37H108.52ZM112.701 36.856C113.557 36.856 114.285 37.16 114.885 37.768C115.493 38.376 115.797 39.12 115.797 40C115.797 40.88 115.493 41.624 114.885 42.232C114.285 42.84 113.557 43.144 112.701 43.144C111.637 43.144 110.829 42.704 110.277 41.824V45.4H109.485V37H110.277V38.176C110.829 37.296 111.637 36.856 112.701 36.856ZM110.961 41.692C111.417 42.148 111.977 42.376 112.641 42.376C113.305 42.376 113.865 42.148 114.321 41.692C114.777 41.228 115.005 40.664 115.005 40C115.005 39.336 114.777 38.776 114.321 38.32C113.865 37.856 113.305 37.624 112.641 37.624C111.977 37.624 111.417 37.856 110.961 38.32C110.505 38.776 110.277 39.336 110.277 40C110.277 40.664 110.505 41.228 110.961 41.692ZM122.273 37H123.065V43H122.273V41.824C121.721 42.704 120.913 43.144 119.849 43.144C118.993 43.144 118.261 42.84 117.653 42.232C117.053 41.624 116.753 40.88 116.753 40C116.753 39.12 117.053 38.376 117.653 37.768C118.261 37.16 118.993 36.856 119.849 36.856C120.913 36.856 121.721 37.296 122.273 38.176V37ZM118.229 41.692C118.685 42.148 119.245 42.376 119.909 42.376C120.573 42.376 121.133 42.148 121.589 41.692C122.045 41.228 122.273 40.664 122.273 40C122.273 39.336 122.045 38.776 121.589 38.32C121.133 37.856 120.573 37.624 119.909 37.624C119.245 37.624 118.685 37.856 118.229 38.32C117.773 38.776 117.545 39.336 117.545 40C117.545 40.664 117.773 41.228 118.229 41.692ZM130.598 37.864C131.174 38.448 131.462 39.16 131.462 40C131.462 40.84 131.174 41.552 130.598 42.136C130.022 42.72 129.262 43.052 128.318 43.132V45.4H127.526V43.132C126.582 43.052 125.822 42.72 125.246 42.136C124.67 41.552 124.382 40.84 124.382 40C124.382 39.16 124.67 38.448 125.246 37.864C125.822 37.28 126.582 36.948 127.526 36.868V34.6H128.318V36.868C129.262 36.948 130.022 37.28 130.598 37.864ZM125.81 38.416C125.386 38.848 125.174 39.376 125.174 40C125.174 40.624 125.386 41.156 125.81 41.596C126.234 42.028 126.806 42.28 127.526 42.352V37.648C126.806 37.72 126.234 37.976 125.81 38.416ZM128.318 42.352C129.038 42.28 129.61 42.028 130.034 41.596C130.458 41.156 130.67 40.624 130.67 40C130.67 39.376 130.458 38.848 130.034 38.416C129.61 37.976 129.038 37.72 128.318 37.648V42.352ZM135.553 36.856C136.441 36.856 137.157 37.172 137.701 37.804C138.253 38.428 138.529 39.168 138.529 40.024C138.529 40.112 138.521 40.236 138.505 40.396H133.237C133.317 41.004 133.573 41.488 134.005 41.848C134.445 42.2 134.985 42.376 135.625 42.376C136.081 42.376 136.473 42.284 136.801 42.1C137.137 41.908 137.389 41.66 137.557 41.356L138.253 41.764C137.989 42.188 137.629 42.524 137.173 42.772C136.717 43.02 136.197 43.144 135.613 43.144C134.669 43.144 133.901 42.848 133.309 42.256C132.717 41.664 132.421 40.912 132.421 40C132.421 39.104 132.713 38.356 133.297 37.756C133.881 37.156 134.633 36.856 135.553 36.856ZM135.553 37.624C134.929 37.624 134.405 37.812 133.981 38.188C133.565 38.556 133.317 39.036 133.237 39.628H137.713C137.633 38.996 137.389 38.504 136.981 38.152C136.573 37.8 136.097 37.624 135.553 37.624ZM147.829 37V43H147.037V37.768H143.581V43H142.789V37H147.829ZM154.532 42.244C153.924 42.844 153.18 43.144 152.3 43.144C151.42 43.144 150.672 42.844 150.056 42.244C149.448 41.636 149.144 40.888 149.144 40C149.144 39.112 149.448 38.368 150.056 37.768C150.672 37.16 151.42 36.856 152.3 36.856C153.18 36.856 153.924 37.16 154.532 37.768C155.148 38.368 155.456 39.112 155.456 40C155.456 40.888 155.148 41.636 154.532 42.244ZM150.62 41.692C151.076 42.148 151.636 42.376 152.3 42.376C152.964 42.376 153.524 42.148 153.98 41.692C154.436 41.228 154.664 40.664 154.664 40C154.664 39.336 154.436 38.776 153.98 38.32C153.524 37.856 152.964 37.624 152.3 37.624C151.636 37.624 151.076 37.856 150.62 38.32C150.164 38.776 149.936 39.336 149.936 40C149.936 40.664 150.164 41.228 150.62 41.692ZM163.597 39.916C164.253 40.156 164.581 40.624 164.581 41.32C164.581 41.808 164.417 42.212 164.089 42.532C163.769 42.844 163.305 43 162.697 43H159.781V37H162.457C163.041 37 163.493 37.152 163.813 37.456C164.133 37.752 164.293 38.136 164.293 38.608C164.293 39.208 164.061 39.644 163.597 39.916ZM162.457 37.768H160.573V39.592H162.457C163.153 39.592 163.501 39.28 163.501 38.656C163.501 38.376 163.409 38.16 163.225 38.008C163.049 37.848 162.793 37.768 162.457 37.768ZM162.697 42.232C163.049 42.232 163.317 42.148 163.501 41.98C163.693 41.812 163.789 41.576 163.789 41.272C163.789 40.992 163.693 40.772 163.501 40.612C163.317 40.444 163.049 40.36 162.697 40.36H160.573V42.232H162.697ZM168.577 43.144C167.673 43.144 166.921 42.844 166.321 42.244C165.721 41.636 165.421 40.888 165.421 40C165.421 39.112 165.721 38.368 166.321 37.768C166.921 37.16 167.673 36.856 168.577 36.856C169.169 36.856 169.701 37 170.173 37.288C170.645 37.568 170.989 37.948 171.205 38.428L170.557 38.8C170.397 38.44 170.137 38.156 169.777 37.948C169.425 37.732 169.025 37.624 168.577 37.624C167.913 37.624 167.353 37.856 166.897 38.32C166.441 38.776 166.213 39.336 166.213 40C166.213 40.664 166.441 41.228 166.897 41.692C167.353 42.148 167.913 42.376 168.577 42.376C169.025 42.376 169.425 42.272 169.777 42.064C170.129 41.848 170.405 41.56 170.605 41.2L171.265 41.584C171.017 42.064 170.653 42.444 170.173 42.724C169.693 43.004 169.161 43.144 168.577 43.144ZM175.116 36.856C176.004 36.856 176.72 37.172 177.264 37.804C177.816 38.428 178.092 39.168 178.092 40.024C178.092 40.112 178.084 40.236 178.068 40.396H172.8C172.88 41.004 173.136 41.488 173.568 41.848C174.008 42.2 174.548 42.376 175.188 42.376C175.644 42.376 176.036 42.284 176.364 42.1C176.7 41.908 176.952 41.66 177.12 41.356L177.816 41.764C177.552 42.188 177.192 42.524 176.736 42.772C176.28 43.02 175.76 43.144 175.176 43.144C174.232 43.144 173.464 42.848 172.872 42.256C172.28 41.664 171.984 40.912 171.984 40C171.984 39.104 172.276 38.356 172.86 37.756C173.444 37.156 174.196 36.856 175.116 36.856ZM175.116 37.624C174.492 37.624 173.968 37.812 173.544 38.188C173.128 38.556 172.88 39.036 172.8 39.628H177.276C177.196 38.996 176.952 38.504 176.544 38.152C176.136 37.8 175.66 37.624 175.116 37.624ZM180.312 36.04V35.344H183.432V36.04H180.312ZM183.72 37H184.392V43H183.6V38.38L180.024 43H179.352V37H180.144V41.62L183.72 37ZM192.187 34.6C192.939 34.6 193.567 34.852 194.071 35.356C194.575 35.86 194.827 36.488 194.827 37.24C194.827 37.992 194.575 38.62 194.071 39.124C193.567 39.628 192.939 39.88 192.187 39.88H190.027V43H189.187V34.6H192.187ZM192.187 39.088C192.707 39.088 193.135 38.916 193.471 38.572C193.815 38.22 193.987 37.776 193.987 37.24C193.987 36.704 193.815 36.264 193.471 35.92C193.135 35.568 192.707 35.392 192.187 35.392H190.027V39.088H192.187ZM200.692 42.244C200.084 42.844 199.34 43.144 198.46 43.144C197.58 43.144 196.832 42.844 196.216 42.244C195.608 41.636 195.304 40.888 195.304 40C195.304 39.112 195.608 38.368 196.216 37.768C196.832 37.16 197.58 36.856 198.46 36.856C199.34 36.856 200.084 37.16 200.692 37.768C201.308 38.368 201.616 39.112 201.616 40C201.616 40.888 201.308 41.636 200.692 42.244ZM196.78 41.692C197.236 42.148 197.796 42.376 198.46 42.376C199.124 42.376 199.684 42.148 200.14 41.692C200.596 41.228 200.824 40.664 200.824 40C200.824 39.336 200.596 38.776 200.14 38.32C199.684 37.856 199.124 37.624 198.46 37.624C197.796 37.624 197.236 37.856 196.78 38.32C196.324 38.776 196.096 39.336 196.096 40C196.096 40.664 196.324 41.228 196.78 41.692ZM205.738 43.144C204.834 43.144 204.082 42.844 203.482 42.244C202.882 41.636 202.582 40.888 202.582 40C202.582 39.112 202.882 38.368 203.482 37.768C204.082 37.16 204.834 36.856 205.738 36.856C206.33 36.856 206.862 37 207.334 37.288C207.806 37.568 208.15 37.948 208.366 38.428L207.718 38.8C207.558 38.44 207.298 38.156 206.938 37.948C206.586 37.732 206.186 37.624 205.738 37.624C205.074 37.624 204.514 37.856 204.058 38.32C203.602 38.776 203.374 39.336 203.374 40C203.374 40.664 203.602 41.228 204.058 41.692C204.514 42.148 205.074 42.376 205.738 42.376C206.186 42.376 206.586 42.272 206.938 42.064C207.29 41.848 207.566 41.56 207.766 41.2L208.426 41.584C208.178 42.064 207.814 42.444 207.334 42.724C206.854 43.004 206.322 43.144 205.738 43.144ZM212.3 43.144C211.396 43.144 210.644 42.844 210.044 42.244C209.444 41.636 209.144 40.888 209.144 40C209.144 39.112 209.444 38.368 210.044 37.768C210.644 37.16 211.396 36.856 212.3 36.856C212.892 36.856 213.424 37 213.896 37.288C214.368 37.568 214.712 37.948 214.928 38.428L214.28 38.8C214.12 38.44 213.86 38.156 213.5 37.948C213.148 37.732 212.748 37.624 212.3 37.624C211.636 37.624 211.076 37.856 210.62 38.32C210.164 38.776 209.936 39.336 209.936 40C209.936 40.664 210.164 41.228 210.62 41.692C211.076 42.148 211.636 42.376 212.3 42.376C212.748 42.376 213.148 42.272 213.5 42.064C213.852 41.848 214.128 41.56 214.328 41.2L214.988 41.584C214.74 42.064 214.376 42.444 213.896 42.724C213.416 43.004 212.884 43.144 212.3 43.144ZM220.493 37H221.165V43H220.373V38.38L216.797 43H216.125V37H216.917V41.62L220.493 37ZM227.208 37H227.88V43H227.088V38.38L223.512 43H222.84V37H223.632V41.62L227.208 37Z" fill="black"/>
</svg>
