<svg width="24" height="24" viewBox="0 0 24 24" fill="none" xmlns="http://www.w3.org/2000/svg">
<path d="M12.3032 16.9022L11.9998 16.6705L11.6964 16.9022L7.99639 19.7272L7.98971 19.7323L7.9832 19.7376C7.88506 19.8179 7.80259 19.8403 7.7198 19.837L7.71827 19.8369C7.59121 19.8323 7.49407 19.7978 7.41155 19.74C7.32377 19.6785 7.25003 19.5926 7.19264 19.4669L7.19206 19.4657C7.16169 19.3996 7.15031 19.3199 7.19569 19.1928L7.1994 19.1824L7.20265 19.1718L8.62765 14.5468L8.7341 14.2013L8.43937 13.992L4.81437 11.417L4.80833 11.4127L4.80217 11.4086C4.69887 11.3397 4.6559 11.269 4.63701 11.1872C4.60561 11.0511 4.61551 10.9508 4.64472 10.8705C4.67827 10.7782 4.73989 10.6854 4.84861 10.5926C4.91845 10.5335 5.00149 10.4996 5.12482 10.4996H9.59982H9.97109L10.0785 10.1442L11.5245 5.35729C11.5784 5.21149 11.65 5.12452 11.7286 5.06837L11.4378 4.66162L11.7283 5.06858C11.8247 4.99975 11.9117 4.97461 11.9998 4.97461C12.0878 4.97461 12.1747 4.9997 12.2711 5.06837C12.3496 5.12452 12.4212 5.21149 12.4751 5.35728L13.9212 10.1442L14.0285 10.4996H14.3998H18.8748C18.9982 10.4996 19.0812 10.5335 19.1511 10.5926C19.2598 10.6854 19.3214 10.7782 19.3549 10.8705C19.3841 10.9508 19.394 11.0511 19.3626 11.1872C19.3437 11.269 19.3008 11.3397 19.1975 11.4086L19.1913 11.4127L19.1853 11.417L15.5603 13.992L15.2655 14.2013L15.372 14.5468L16.797 19.1718L16.8002 19.1824L16.8039 19.1928C16.8494 19.32 16.8383 19.4002 16.8083 19.4662C16.7503 19.5922 16.6761 19.6784 16.5881 19.74C16.5056 19.7978 16.4084 19.8323 16.2814 19.8369L16.2798 19.837C16.197 19.8403 16.1146 19.8179 16.0164 19.7376L16.0099 19.7323L16.0032 19.7272L12.3032 16.9022Z" stroke="#4E86F8"/>
</svg>
