<svg width="24" height="24" viewBox="0 0 24 24" fill="none" xmlns="http://www.w3.org/2000/svg">
<path d="M11.9998 17.2996L8.29982 20.1246C8.11649 20.2746 7.91649 20.3453 7.69982 20.3366C7.48315 20.3286 7.29149 20.2663 7.12482 20.1496C6.95815 20.0329 6.82915 19.8746 6.73782 19.6746C6.64582 19.4746 6.64149 19.2579 6.72482 19.0246L8.14982 14.3996L4.52482 11.8246C4.32482 11.6913 4.19982 11.5163 4.14982 11.2996C4.09982 11.0829 4.10815 10.8829 4.17482 10.6996C4.24149 10.5163 4.35815 10.3536 4.52482 10.2116C4.69149 10.0703 4.89149 9.99961 5.12482 9.99961H9.59982L11.0498 5.19961C11.1332 4.96628 11.2625 4.78694 11.4378 4.66161C11.6125 4.53694 11.7998 4.47461 11.9998 4.47461C12.1998 4.47461 12.3872 4.53694 12.5618 4.66161C12.7372 4.78694 12.8665 4.96628 12.9498 5.19961L14.3998 9.99961H18.8748C19.1082 9.99961 19.3082 10.0703 19.4748 10.2116C19.6415 10.3536 19.7582 10.5163 19.8248 10.6996C19.8915 10.8829 19.8998 11.0829 19.8498 11.2996C19.7998 11.5163 19.6748 11.6913 19.4748 11.8246L15.8498 14.3996L17.2748 19.0246C17.3582 19.2579 17.3542 19.4746 17.2628 19.6746C17.1708 19.8746 17.0415 20.0329 16.8748 20.1496C16.7082 20.2663 16.5165 20.3286 16.2998 20.3366C16.0832 20.3453 15.8832 20.2746 15.6998 20.1246L11.9998 17.2996Z" fill="#4E86F8"/>
</svg>
