<?xml version="1.0" encoding="utf-8"?><svg viewBox="0 0 28 28" xmlns="http://www.w3.org/2000/svg" xmlns:xlink="http://www.w3.org/1999/xlink"><style>:root>svg{display:none}:root>svg:target{display:block}</style><svg viewBox="0 0 12 12" id="arrow-left" xmlns="http://www.w3.org/2000/svg"><path d="M6.35 9.65a.497.497 0 00.144-.35.455.455 0 00-.131-.35L3.912 6.5H9.5c.142 0 .26-.048.357-.144A.483.483 0 0010 6a.485.485 0 00-.143-.356A.485.485 0 009.5 5.5H3.912l2.45-2.45a.455.455 0 00.132-.35.497.497 0 00-.144-.35.474.474 0 00-.35-.137.474.474 0 00-.35.137l-3.3 3.3a.34.34 0 00-.107.156.615.615 0 000 .382.441.441 0 00.107.162l3.3 3.3a.474.474 0 00.35.138.474.474 0 00.35-.138z"/></svg><svg viewBox="0 0 20 17" id="burger" xmlns="http://www.w3.org/2000/svg"><path d="M0 2h20M0 8.667h20M0 15.333h20" stroke="currentColor" stroke-width="2.5"/></svg><svg viewBox="0 0 24 24" id="callback" xmlns="http://www.w3.org/2000/svg"><path d="M16 1H8C6.34 1 5 2.34 5 4v16c0 1.66 1.34 3 3 3h8c1.66 0 3-1.34 3-3V4c0-1.66-1.34-3-3-3zm-2 20h-4v-1h4v1zm3.25-3H6.75V4h10.5v14z"/></svg><svg viewBox="0 0 28 28" id="close" xmlns="http://www.w3.org/2000/svg"><path d="M22.167 7.478l-1.645-1.645L14 12.355 7.478 5.833 5.833 7.478 12.355 14 5.833 20.52l1.645 1.645L14 15.645l6.522 6.521 1.645-1.645L15.645 14l6.522-6.522z"/></svg><svg viewBox="0 0 24 25" id="phone" xmlns="http://www.w3.org/2000/svg"><path fill-rule="evenodd" clip-rule="evenodd" d="M4.154.064C3.573.19 3.461.278 1.94 1.799.613 3.127.51 3.241.355 3.572c-.257.544-.321.84-.349 1.609-.028.777.036 1.29.27 2.184 1.414 5.383 7.751 12.464 13.817 15.437 1.798.882 3.156 1.265 4.495 1.27.82.003 1.235-.08 1.803-.36.366-.181.462-.267 1.783-1.586 1.478-1.477 1.567-1.59 1.753-2.215.098-.33.098-.948 0-1.278-.169-.568-.238-.65-2.108-2.531-.987-.993-1.922-1.896-2.077-2.007-.934-.665-2.133-.572-2.915.224-.236.241-.327.383-.49.762-.11.256-.258.543-.328.638-.45.61-1.319.998-2.058.92-1.101-.118-2.745-1.113-4.137-2.506-1.685-1.687-2.68-3.628-2.437-4.758.113-.527.482-1.078.92-1.371.106-.072.331-.189.5-.26.488-.209.609-.277.835-.475.784-.685.955-1.966.385-2.874C9.85 4.128 6.603.844 6.207.54A2.71 2.71 0 005.104.044a2.133 2.133 0 00-.95.02z"/></svg></svg>