<svg width="24" height="25" viewBox="0 0 24 25" fill="none" xmlns="http://www.w3.org/2000/svg">
<path fill-rule="evenodd" clip-rule="evenodd" d="M4.15448 0.0635618C3.57264 0.190155 3.46055 0.277956 1.93988 1.7991C0.612839 3.12656 0.510208 3.24133 0.354521 3.57154C0.0979924 4.11572 0.0339661 4.41137 0.00619005 5.18076C-0.0218685 5.9577 0.0415928 6.47104 0.276277 7.36467C1.69008 12.7484 8.02722 19.8291 14.0926 22.8022C15.8912 23.6838 17.2493 24.0673 18.5885 24.0718C19.4083 24.0745 19.8229 23.9916 20.391 23.7113C20.7568 23.5308 20.853 23.4453 22.1735 22.126C23.6524 20.6487 23.7408 20.5369 23.9266 19.9108C24.0245 19.5813 24.0245 18.963 23.9266 18.6333C23.7581 18.0654 23.6894 17.9829 21.8191 16.1016C20.832 15.1087 19.8973 14.2059 19.7419 14.0953C18.8079 13.4303 17.6086 13.5225 16.8272 14.3194C16.5908 14.5605 16.4999 14.7017 16.3365 15.081C16.2262 15.337 16.0788 15.6242 16.0087 15.719C15.5589 16.3285 14.6902 16.7166 13.9513 16.6383C12.8498 16.5213 11.2062 15.526 9.81397 14.1327C8.12853 12.4459 7.13443 10.5051 7.37688 9.37463C7.48977 8.84824 7.85929 8.29743 8.29632 8.00399C8.403 7.93239 8.62798 7.81512 8.79629 7.74346C9.28524 7.53514 9.40552 7.46683 9.63249 7.26859C10.4159 6.58426 10.5873 5.30345 10.0171 4.39541C9.84928 4.12819 6.60306 0.843552 6.20699 0.540228C5.89124 0.298387 5.47681 0.112146 5.10376 0.044354C4.75035 -0.0198606 4.51609 -0.0151057 4.15448 0.0635618Z" fill="white"/>
</svg>
