<svg width="40" height="40" viewBox="0 0 40 40" fill="none" xmlns="http://www.w3.org/2000/svg">
<circle cx="20" cy="20" r="19.5" stroke="#4E86F8"/>
<path fill-rule="evenodd" clip-rule="evenodd" d="M19.1414 8.04871C18.0375 8.23185 17.2295 8.60805 16.5348 9.26238C15.3873 10.3432 14.9171 11.7268 14.9223 14.007C14.9263 15.7185 15.1947 17.0014 15.7876 18.1424C16.5674 19.6432 17.7785 20.463 19.4687 20.6344C20.3932 20.7282 21.3129 20.5805 22.0998 20.2119C23.0121 19.7846 23.7532 19.0323 24.2655 18.0133C24.4662 17.6142 24.7494 16.7477 24.861 16.191C25.1062 14.9694 25.118 13.0904 24.8879 11.9451C24.53 10.1648 23.4321 8.85436 21.8311 8.29682C21.0951 8.04048 19.8715 7.9276 19.1414 8.04871ZM21.0725 9.45084C22.5837 9.85219 23.4454 10.9274 23.6753 12.6988C23.7641 13.3828 23.7522 14.8839 23.6531 15.5014C23.3129 17.6206 22.4529 18.829 20.9976 19.2325C20.7776 19.2935 20.5273 19.3142 19.992 19.3157C19.1918 19.3178 18.7989 19.237 18.2694 18.961C17.8792 18.7576 17.2672 18.1309 17.0059 17.6671C16.4524 16.6847 16.1802 15.2527 16.2358 13.6162C16.2912 11.9857 16.6028 11.0531 17.3414 10.3073C17.8216 9.8224 18.397 9.52712 19.1414 9.38358C19.6152 9.29222 20.605 9.3267 21.0725 9.45084ZM16.3578 20.7128C16.2703 20.7593 16.0021 20.9175 15.7619 21.0644C14.8153 21.6427 13.6288 22.1692 12.4974 22.513C11.8099 22.7219 11.4326 22.9318 11.0467 23.3206C10.31 24.0626 10.006 25.0635 10.0001 26.7662C9.99548 28.1186 10.1203 28.8453 10.4032 29.1121C10.6151 29.3119 11.6099 29.8102 12.4974 30.1609C16.5064 31.7455 21.5456 31.9587 25.8394 30.7255C27.3969 30.2782 29.3127 29.4391 29.6483 29.0572C29.9772 28.6829 30.1082 26.7859 29.8987 25.4309C29.7214 24.2845 29.2556 23.4554 28.5185 22.9742C28.189 22.7591 27.9057 22.6421 27.119 22.3966C26.1697 22.1002 25.1405 21.6259 24.1761 21.0402C23.7507 20.7819 23.4974 20.6569 23.3714 20.6431C22.8833 20.5897 22.5155 21.1168 22.7281 21.565C22.9351 22.001 25.1319 23.148 26.7049 23.6412C27.0716 23.7562 27.4796 23.9034 27.6117 23.9683C28.0734 24.1953 28.4168 24.7093 28.5779 25.4142C28.6398 25.6854 28.6551 25.9791 28.6529 26.8582C28.6515 27.4651 28.6306 28.0215 28.6067 28.0947C28.5741 28.1941 28.4881 28.2665 28.2662 28.3811C26.4684 29.31 24.0203 29.9577 21.5806 30.1499C20.5755 30.2291 18.3806 30.1789 17.4631 30.0557C15.3107 29.7668 13.3722 29.2072 11.8153 28.4253L11.3998 28.2166L11.3624 27.9972C11.3418 27.8765 11.3264 27.3226 11.3282 26.7662C11.3318 25.6405 11.3835 25.2881 11.6189 24.7852C11.8779 24.2318 12.2204 23.96 12.9112 23.7599C13.6696 23.5401 14.4961 23.2068 15.3711 22.7677C16.5207 22.1908 17.0994 21.8219 17.2361 21.5787C17.5473 21.0249 16.9247 20.411 16.3578 20.7128Z" fill="#4E86F8"/>
</svg>
