<svg width="40" height="40" viewBox="0 0 40 40" fill="none" xmlns="http://www.w3.org/2000/svg">
<circle cx="20" cy="20" r="19.5" stroke="#4E86F8"/>
<path fill-rule="evenodd" clip-rule="evenodd" d="M13.9121 10.0305C12.4177 10.2182 11.1674 10.8325 10.1057 11.9009C9.15578 12.8568 8.58365 13.8703 8.25118 15.1864C7.67384 17.4718 8.09362 19.7221 9.49144 21.8348C10.3877 23.1895 11.5436 24.4329 13.6695 26.3293C15.0218 27.5355 19.1434 31.0517 19.3435 31.1698C19.532 31.281 19.6021 31.2943 20 31.2943C20.3977 31.2943 20.4681 31.281 20.6565 31.17C20.8571 31.0517 24.9881 27.5272 26.3305 26.3289C28.4623 24.426 29.6135 23.1877 30.5086 21.8348C31.9064 19.7221 32.3262 17.4718 31.7488 15.1864C31.4164 13.8703 30.8442 12.8568 29.8943 11.9009C28.9477 10.9484 27.9344 10.3987 26.6059 10.1172C25.9424 9.97657 24.7133 9.96429 24.129 10.0924C22.5099 10.4473 21.265 11.2595 20.129 12.7018L20 12.8656L19.871 12.7018C18.7548 11.2845 17.5288 10.4725 15.9672 10.1161C15.5011 10.0098 14.4322 9.96523 13.9121 10.0305ZM15.4805 11.4611C16.8092 11.6928 17.9594 12.4642 18.8682 13.7331C19.0252 13.9523 19.2157 14.2181 19.2915 14.3237C19.6406 14.8101 20.3594 14.8101 20.7085 14.3237C20.7843 14.2181 20.9748 13.9523 21.1318 13.7331C22.374 11.9986 24.103 11.1815 25.9871 11.4385C28.0789 11.7238 29.7123 13.1901 30.336 15.3422C30.829 17.0435 30.6115 18.8298 29.7157 20.4387C28.9651 21.7866 27.7136 23.1962 25.5333 25.1496C24.4775 26.0955 20.042 29.9109 19.9981 29.9109C19.9551 29.911 15.536 26.1067 14.4667 25.1492C11.114 22.1469 9.79066 20.2714 9.47193 18.0706C9.26607 16.6494 9.56281 15.1189 10.277 13.9183C11.3575 12.1017 13.4602 11.1088 15.4805 11.4611Z" fill="#4E86F8"/>
</svg>
