<svg width="40" height="40" viewBox="0 0 40 40" fill="none" xmlns="http://www.w3.org/2000/svg">
<circle cx="20" cy="20" r="19.5" stroke="#4E86F8"/>
<path fill-rule="evenodd" clip-rule="evenodd" d="M19.7244 8.04708C19.6608 8.0724 19.4317 8.26575 19.2152 8.47673C18.9987 8.68771 18.6861 8.95956 18.5206 9.08083C17.2519 10.0105 15.3339 10.7471 13.3671 11.0599C12.88 11.1374 12.5302 11.1579 11.6237 11.1621C10.3449 11.1681 10.2881 11.1814 10.0987 11.5184L10 11.6941L10.0155 16.5679C10.0325 21.9343 10.0223 21.7261 10.3324 22.9861C10.8301 25.0081 11.825 26.7931 13.2862 28.2855C14.8462 29.8788 16.6364 30.9151 18.7733 31.4619C19.7622 31.715 20.0425 31.7267 20.8581 31.5491C22.7062 31.1468 24.3897 30.3261 25.8341 29.1235C26.3141 28.7238 27.2397 27.7661 27.5784 27.3185C28.923 25.5421 29.6786 23.681 29.9308 21.5245C29.9878 21.0376 30 20.1169 30 16.3104C30 11.7041 29.9997 11.687 29.9031 11.5152C29.7155 11.1815 29.6571 11.168 28.3799 11.1632C26.8924 11.1577 25.9127 11.0031 24.5149 10.5533C22.9045 10.0352 21.7202 9.378 20.8099 8.49756C20.5797 8.27491 20.3336 8.07078 20.263 8.04394C20.1058 7.98418 19.8787 7.98552 19.7244 8.04708ZM20.3167 10.0495C22.1357 11.5117 25.0918 12.5328 27.8612 12.6555L28.5227 12.6848L28.5058 17.0402C28.4894 21.2858 28.4864 21.4089 28.388 21.9278C27.8394 24.8194 26.2795 27.1565 23.834 28.7505C22.9405 29.3329 21.6292 29.8686 20.5244 30.1026L20.0008 30.2135L19.4576 30.096C15.7532 29.2951 12.7458 26.4179 11.8068 22.7765C11.5015 21.5922 11.5138 21.8181 11.4965 17.0402L11.4809 12.6848L12.1424 12.6559C14.1111 12.5699 16.0183 12.0839 17.8031 11.2133C18.4808 10.8828 19.4222 10.2931 19.7935 9.96665C19.8953 9.87712 19.985 9.80306 19.9927 9.80214C20.0004 9.80117 20.1462 9.91249 20.3167 10.0495Z" fill="#4E86F8"/>
</svg>
