<svg width="40" height="40" viewBox="0 0 40 40" fill="none" xmlns="http://www.w3.org/2000/svg">
<circle cx="20" cy="20" r="19.5" stroke="#4E86F8"/>
<path fill-rule="evenodd" clip-rule="evenodd" d="M19.5123 10.0096C19.4479 10.0188 19.2573 10.0451 19.0887 10.068C18.1274 10.1984 16.9778 10.7404 16.1959 11.4318C15.2083 12.3051 14.5115 13.5627 14.2993 14.855C14.2227 15.3208 14.2327 16.3785 14.3176 16.8063C14.5978 18.2169 15.392 19.5227 16.465 20.3364L16.732 20.5389L16.62 20.5816C16.1506 20.7602 15.9444 20.8502 15.5457 21.0503C13.8122 21.9202 12.4017 23.2361 11.4 24.9181C10.5795 26.2958 10.1224 27.8311 10.0265 29.5309L10 30H10.7862H11.5724V29.8087C11.5724 28.4843 12.1228 26.653 12.8591 25.5281C13.9965 23.7903 15.5171 22.5982 17.3717 21.9905C19.1335 21.4133 20.8665 21.4133 22.6283 21.9905C24.4829 22.5982 26.0035 23.7903 27.1409 25.5281C27.8772 26.653 28.4276 28.4843 28.4276 29.8087V30H29.2138H30L29.9735 29.5309C29.8776 27.8311 29.4205 26.2958 28.6 24.9181C27.5983 23.2361 26.1878 21.9202 24.4544 21.0503C24.0556 20.8502 23.8494 20.7602 23.38 20.5816L23.268 20.5389L23.535 20.3364C24.608 19.5227 25.4022 18.2169 25.6824 16.8063C25.7673 16.3785 25.7773 15.3208 25.7007 14.855C25.5313 13.8236 25.0149 12.7345 24.3251 11.9539C23.4728 10.9892 22.2695 10.3078 21.0174 10.0806C20.7162 10.026 19.7245 9.97919 19.5123 10.0096ZM20.66 11.6103C22.9553 11.9832 24.5238 14.1483 24.1539 16.4331C23.7817 18.7326 21.6206 20.3039 19.34 19.9334C17.0447 19.5604 15.4762 17.3954 15.8461 15.1106C16.2183 12.8115 18.3797 11.2398 20.66 11.6103Z" fill="#4E86F8"/>
</svg>
