<svg width="40" height="40" viewBox="0 0 40 40" fill="none" xmlns="http://www.w3.org/2000/svg">
<circle cx="20" cy="20" r="19.5" stroke="#4E86F8"/>
<path fill-rule="evenodd" clip-rule="evenodd" d="M19.0571 10.041C18.2472 10.1589 17.4032 10.5194 16.7441 11.0287C15.8174 11.7449 15.1977 12.7545 14.9346 13.9763C14.8627 14.3103 14.8634 15.4184 14.9357 15.7614C15.4903 18.3906 17.8727 20.0741 20.4822 19.6808C22.4575 19.383 24.0381 17.8942 24.5046 15.892C24.6255 15.3729 24.6159 14.2897 24.4857 13.767C23.9983 11.8096 22.4609 10.3755 20.5111 10.0593C20.0694 9.98766 19.4748 9.98017 19.0571 10.041ZM20.6236 11.4958C21.801 11.8114 22.7859 12.8021 23.1113 13.9981C23.2185 14.3919 23.2185 15.3458 23.1113 15.7397C22.9989 16.1529 22.7307 16.6824 22.4559 17.0336C21.3711 18.4201 19.3287 18.7598 17.867 17.7971C16.7278 17.0467 16.1176 15.761 16.2822 14.4576C16.4744 12.9358 17.6084 11.7369 19.1433 11.4326C19.4412 11.3736 20.3053 11.4104 20.6236 11.4958ZM15.4431 21.1879C14.0774 21.3656 12.8254 21.9885 11.8268 22.9871C10.8991 23.9149 10.3238 25.0062 10.0816 26.298C10.0148 26.6545 10 26.943 10 27.8904V29.0475L10.1173 29.2014C10.3607 29.5208 9.99765 29.5006 15.262 29.4878C19.9563 29.4764 19.9867 29.4758 20.1062 29.3866C20.3347 29.216 20.4059 29.0768 20.4059 28.8015C20.4059 28.5261 20.3347 28.387 20.1062 28.2164C19.9869 28.1273 19.9522 28.1265 15.6726 28.1151L11.3592 28.1036L11.3832 27.4185C11.3964 27.0417 11.4374 26.5962 11.4744 26.4286C11.8979 24.5079 13.2935 23.1005 15.2372 22.6338C15.4762 22.5764 15.9198 22.5587 17.6707 22.5368C19.7437 22.5109 19.8158 22.5072 19.9321 22.4203C20.1605 22.2496 20.2318 22.1105 20.2318 21.8352C20.2318 21.5598 20.1605 21.4207 19.932 21.2501C19.815 21.1626 19.7595 21.1601 17.7795 21.1543C16.6618 21.151 15.6104 21.1662 15.4431 21.1879ZM25.0936 21.4023C24.535 21.5019 23.828 21.808 23.3666 22.15C22.2146 23.0038 21.575 24.3558 21.6603 25.7567C21.7724 27.5961 23.0183 29.0989 24.8247 29.5737C25.3876 29.7217 26.1904 29.7293 26.7543 29.592C28.6029 29.1418 29.8698 27.6385 29.9917 25.7504C30.0975 24.1118 29.1843 22.5397 27.6893 21.7871C27.1062 21.4935 26.6829 21.393 25.9572 21.3758C25.61 21.3676 25.2213 21.3795 25.0936 21.4023ZM26.4797 22.8173C27.2409 22.9962 27.958 23.5688 28.3029 24.2734C28.6323 24.946 28.6933 25.6538 28.4811 26.3415C28.1985 27.2576 27.4448 27.977 26.5109 28.2219C26.1579 28.3145 25.4953 28.3145 25.1423 28.2219C23.702 27.8441 22.8021 26.3978 23.1053 24.9482C23.3158 23.9427 24.1664 23.0581 25.1523 22.8198C25.4985 22.7361 26.1291 22.7349 26.4797 22.8173ZM25.5976 23.4199C25.382 23.4987 25.3154 23.5581 25.2091 23.7665C24.9822 24.2113 25.3211 24.7523 25.8266 24.7523C26.3468 24.7523 26.6856 24.1763 26.427 23.7316C26.2563 23.4378 25.9073 23.3067 25.5976 23.4199ZM25.6733 24.9687C25.4696 25.0148 25.3074 25.1413 25.2121 25.328C25.1319 25.4852 25.1262 25.5696 25.1384 26.4068C25.1507 27.2446 25.1587 27.3243 25.2415 27.4351C25.4122 27.6635 25.5513 27.7348 25.8266 27.7348C26.1019 27.7348 26.241 27.6635 26.4117 27.4351C26.4944 27.3245 26.5025 27.2443 26.5149 26.4227C26.5274 25.5862 26.5224 25.5184 26.4356 25.3389C26.2956 25.0499 25.9835 24.8983 25.6733 24.9687Z" fill="#4E86F8"/>
</svg>
