<svg width="40" height="40" viewBox="0 0 40 40" fill="none" xmlns="http://www.w3.org/2000/svg">
<circle cx="20" cy="20" r="19.5" stroke="#4E86F8"/>
<path fill-rule="evenodd" clip-rule="evenodd" d="M20.6312 11.0754C19.2722 11.3665 18.1952 12.455 17.9153 13.8203C17.6861 14.9383 18.0245 16.1055 18.8114 16.9107L19.0691 17.1744L18.661 17.4404C17.8848 17.9463 17.1853 18.7826 16.8263 19.6338C16.7399 19.8388 16.6691 20.0365 16.6691 20.0731C16.6691 20.1793 16.6314 20.1566 16.3012 19.8516C16.1297 19.6931 15.8133 19.4479 15.5981 19.3066L15.2068 19.0497L15.4645 18.786C16.7662 17.4541 16.7526 15.3224 15.4339 13.9573C13.8704 12.3389 11.2712 12.5709 9.99687 14.4425C9.08592 15.7805 9.24575 17.6331 10.3715 18.7852L10.6284 19.048L10.2145 19.3217C9.38504 19.8701 8.67292 20.7534 8.33499 21.653C8.0182 22.4964 8.02673 22.3908 8.00812 25.7047C7.99147 28.6686 7.99269 28.7173 8.08787 28.9038C8.15083 29.0273 8.24896 29.1261 8.36954 29.1877C8.54929 29.2793 8.64039 29.282 11.5593 29.282C14.2167 29.282 14.5814 29.2734 14.7141 29.2072C14.7966 29.166 16.0297 27.9689 17.4543 26.5469L20.0444 23.9614L20.994 24.9058C21.5162 25.4253 22.011 25.8841 22.0935 25.9253C22.2844 26.0205 22.4933 26.0206 22.6843 25.9254C22.7668 25.8843 24.5801 24.1068 26.7139 21.9756L30.5935 18.1006V18.7235C30.5935 19.2554 30.6073 19.3736 30.6879 19.5315C30.794 19.7395 31.0641 19.9054 31.2967 19.9054C31.5294 19.9054 31.7995 19.7395 31.9056 19.5315C31.9946 19.3571 32 19.2574 32 17.7956C32 16.3338 31.9946 16.2341 31.9056 16.0597C31.8449 15.9406 31.7453 15.841 31.6262 15.7802C31.4517 15.6913 31.3521 15.6858 29.8902 15.6858C28.4284 15.6858 28.3287 15.6913 28.1543 15.7802C27.9463 15.8864 27.7805 16.1565 27.7805 16.3891C27.7805 16.6217 27.9463 16.8918 28.1543 16.998C28.3123 17.0785 28.4305 17.0923 28.9622 17.0923H29.585L27.8977 18.7801C26.9697 19.7084 26.1985 20.468 26.1838 20.468C26.1693 20.468 26.1291 20.3572 26.0946 20.2218C25.8289 19.1784 25.0115 18.0621 24.0605 17.444L23.6458 17.1744L23.9036 16.9107C25.4173 15.3616 25.1076 12.777 23.2637 11.5721C22.4846 11.063 21.5299 10.8828 20.6312 11.0754ZM21.7888 12.4563C22.195 12.5417 22.5311 12.7269 22.8364 13.0336C24.0455 14.2482 23.3863 16.2947 21.6924 16.5852C21.0272 16.6992 20.3707 16.4848 19.8786 15.9926C19.0459 15.16 19.0453 13.8634 19.8773 13.0346C20.3979 12.5159 21.0846 12.3081 21.7888 12.4563ZM13.3498 14.3316C13.756 14.417 14.0921 14.6023 14.3973 14.9089C15.6065 16.1235 14.9473 18.17 13.2534 18.4605C12.5882 18.5746 11.9317 18.3601 11.4396 17.868C10.6071 17.0356 10.6071 15.743 11.4396 14.91C11.9574 14.3917 12.6453 14.1834 13.3498 14.3316ZM22.0509 18.1047C22.7269 18.2443 23.2802 18.5391 23.7893 19.0308C24.4681 19.6867 24.8737 20.6137 24.8737 21.5095V21.8048L23.6314 23.0465L22.389 24.2882L21.4396 23.3438C20.9174 22.8244 20.4226 22.3657 20.3401 22.3244C20.1492 22.2291 19.9403 22.2291 19.7494 22.3245C19.6668 22.3657 19.2038 22.7927 18.7203 23.2734L17.8412 24.1474V22.6808C17.8412 21.5277 17.8571 21.1369 17.9153 20.8528C18.1065 19.92 18.6483 19.1298 19.464 18.5936C20.2172 18.0986 21.1593 17.9205 22.0509 18.1047ZM13.6116 19.9799C14.3325 20.1288 14.8826 20.4317 15.4104 20.9702C15.7789 21.346 16.0211 21.7144 16.1842 22.1465C16.3955 22.7067 16.4347 23.052 16.4347 24.3514V25.5541L15.2747 26.7148L14.1147 27.8755H11.7585H9.4022V25.4825C9.4022 23.485 9.41443 23.0297 9.47627 22.7281C9.66751 21.7954 10.2092 21.0051 11.025 20.4689C11.7781 19.9739 12.7203 19.7958 13.6116 19.9799Z" fill="#4E86F8"/>
</svg>
