<svg width="40" height="40" viewBox="0 0 40 40" fill="none" xmlns="http://www.w3.org/2000/svg">
<circle cx="20" cy="20" r="19.5" stroke="#4E86F8"/>
<mask id="path-2-outside-1_0_161" maskUnits="userSpaceOnUse" x="8" y="7" width="24" height="25" fill="black">
<rect fill="white" x="8" y="7" width="24" height="25"/>
<path fill-rule="evenodd" clip-rule="evenodd" d="M20.8098 8.02401C20.3584 8.1426 19.9621 8.46724 19.7528 8.88984C19.6352 9.12746 19.6308 9.17366 19.6158 10.3221L19.6005 11.5089L18.2409 11.5278C16.9235 11.5461 16.8692 11.5507 16.4885 11.6779C15.9405 11.8609 15.5168 12.1219 15.1143 12.5244C13.9841 13.6546 13.7898 15.3835 14.6414 16.7319C14.7511 16.9056 15.086 17.2868 15.3856 17.5789C15.9008 18.0813 15.9275 18.1171 15.8787 18.2386C15.6972 18.6912 15.6798 18.9665 15.679 21.3994C15.6786 22.8862 15.6605 23.7932 15.6314 23.7932C15.6056 23.7932 14.5766 23.5612 13.3446 23.2776L11.1047 22.762H10.1542H9.20354L9.10179 22.8914C9.00167 23.0187 9 23.064 9 25.6877V28.3545L9.11839 28.4923C9.23629 28.6295 9.23973 28.6301 9.91635 28.6436C10.3938 28.6531 10.6324 28.6385 10.7187 28.5945C10.8077 28.5491 10.9832 28.2528 11.357 27.5164C11.6406 26.9579 11.8901 26.4838 11.9114 26.4628C11.9327 26.4419 12.695 26.7943 13.6055 27.2459C15.3964 28.1341 15.6452 28.2241 16.3167 28.2258C16.8905 28.2271 17.2435 28.1451 17.7898 27.8836C18.1832 27.6952 18.3178 27.5975 18.6492 27.2597C18.9956 26.9065 19.1051 26.7448 19.5771 25.8894C19.8714 25.356 20.1265 24.9107 20.1441 24.8998C20.1616 24.889 20.3228 25.0167 20.5023 25.1837L20.8286 25.4874L21.1998 27.5498C21.5682 29.5967 21.571 29.6186 21.571 30.4615C21.5709 31.2978 21.5728 31.3127 21.6915 31.4313L21.812 31.5518H24.5172H27.2225L27.343 31.4313C27.4558 31.3185 27.4635 31.2775 27.4635 30.7897C27.4635 30.5032 27.443 30.2303 27.418 30.1835C27.3929 30.1366 26.8638 29.7599 26.2422 29.3463L25.112 28.5943L25.097 26.4024L25.0819 24.2106L24.9504 23.8504C24.7441 23.2859 24.5367 22.984 23.9088 22.3347L23.3248 21.7308H26.6529C29.1224 21.7308 30.0332 21.7154 30.1832 21.6711C30.4529 21.5914 30.8597 21.1846 30.9394 20.9149C31.0202 20.6414 31.0202 18.8919 30.9394 18.6183C30.8745 18.3987 30.424 17.9006 30.2903 17.9006C30.2217 17.9006 30.2134 17.6744 30.2134 15.8114V13.7222L30.0929 13.6017L29.9724 13.4812H28.2388H26.5052L26.1893 12.9533C25.8203 12.3366 25.4794 11.9852 25.046 11.7747C24.6138 11.5647 24.3242 11.517 23.4836 11.517H22.7494V10.9277V10.3384H23.3387H23.928V9.9456V9.55275H23.3443H22.7606L22.7261 9.31951C22.7072 9.19124 22.6234 8.95755 22.5399 8.80022C22.2824 8.31506 21.8439 8.03767 21.2818 8.00447C21.1032 7.99391 20.8908 8.0027 20.8098 8.02401ZM21.4923 8.83553C21.6885 8.91748 21.902 9.18245 21.9449 9.39729L21.976 9.55275H21.1842C20.3232 9.55275 20.337 9.55796 20.4448 9.27359C20.6016 8.85978 21.0758 8.66145 21.4923 8.83553ZM21.9638 10.6532V10.968L21.5709 10.8392L21.1781 10.7105L20.7852 10.8392L20.3924 10.968V10.6532V10.3384H21.1781H21.9638V10.6532ZM21.5797 11.6739C21.7639 11.7333 21.9146 11.7996 21.9146 11.8213C21.9146 11.843 21.8275 11.9479 21.721 12.0544C21.3873 12.388 20.9457 12.3865 20.6261 12.0506C20.5246 11.9439 20.4415 11.8396 20.4415 11.819C20.4415 11.7758 21.0077 11.5774 21.15 11.5706C21.2021 11.5681 21.3955 11.6146 21.5797 11.6739ZM19.944 12.4741C20.2001 12.8502 20.8267 13.1231 21.3176 13.0725C21.7109 13.0319 22.1749 12.788 22.3701 12.5192L22.5285 12.3012L23.4615 12.3142C24.3634 12.3268 24.4034 12.3316 24.6651 12.4601C24.9781 12.6138 25.1715 12.8026 25.422 13.1988L25.6005 13.4812H22.3313H19.0621L18.9416 13.6017C18.8242 13.719 18.821 13.7418 18.821 14.4658V15.2094L18.3602 14.7863L17.8993 14.3633L17.6406 14.6618C17.4226 14.9136 17.3928 14.9702 17.4509 15.0233C18.5457 16.0226 20.0978 17.4747 20.0978 17.4999C20.0978 17.5183 19.7055 17.9248 19.2261 18.4033L18.3545 19.2733L17.0532 18.0702C16.3375 17.4086 15.6685 16.7738 15.5665 16.6596C14.8426 15.8491 14.6967 14.6984 15.1931 13.715C15.3884 13.3281 15.8966 12.8195 16.2987 12.6084C16.8058 12.3422 17.0319 12.3112 18.5018 12.3071L19.8277 12.3033L19.944 12.4741ZM22.7494 15.5212V16.7757L22.87 16.8962C23.0782 17.1044 23.2507 17.0622 23.613 16.7143L23.928 16.4119L24.2429 16.7143C24.6676 17.1222 24.7596 17.1222 25.1844 16.7143L25.4993 16.4119L25.8142 16.7143C26.1765 17.0622 26.3491 17.1044 26.5573 16.8962L26.6778 16.7757V15.5212V14.2668H28.0528H29.4277V16.0346V17.8024H28.7626C28.1218 17.8024 28.093 17.8068 27.9769 17.923C27.8716 18.0282 27.8564 18.0875 27.8564 18.3915C27.8564 18.7359 27.8587 18.7421 28.0756 18.974L28.2947 19.2083L27.9538 19.3181C27.4792 19.471 27.4635 19.5021 27.4635 20.2932V20.9451H24.8663H22.269L22.2368 20.8101C22.2191 20.7359 22.1943 20.6402 22.1817 20.5975C22.1638 20.5365 22.1892 20.5245 22.3012 20.5409C22.3795 20.5524 22.4905 20.5366 22.548 20.5059C22.6731 20.4389 23.1423 19.526 23.1423 19.3494C23.1423 19.1896 23.1321 19.1794 21.2149 17.4133L19.6067 15.9319V15.0993V14.2668H21.1781H22.7494V15.5212ZM25.8922 14.9579V15.6489L25.7628 15.5472C25.5351 15.3681 25.3798 15.4106 25.0285 15.7478L24.7136 16.0502L24.3987 15.7478C24.0475 15.4106 23.8922 15.3681 23.6645 15.5472L23.5351 15.6489V14.9579V14.2668H24.7136H25.8922V14.9579ZM21.4878 18.7418C21.8981 19.1235 22.239 19.4494 22.2453 19.4661C22.2516 19.4828 22.2381 19.5261 22.2152 19.5622C22.182 19.6147 22.1237 19.6025 21.923 19.5008C21.6098 19.3421 21.4525 19.3404 21.2986 19.4943C21.1468 19.6461 21.1486 19.7161 21.3211 20.3927L21.462 20.9451H20.807H20.152L19.6952 20.5226C19.444 20.2902 19.1725 20.036 19.0918 19.9577L18.9453 19.8153L19.8279 18.9316C20.3134 18.4456 20.7176 18.0479 20.7262 18.0479C20.7347 18.0479 21.0775 18.3602 21.4878 18.7418ZM30.0929 18.7087C30.2124 18.8282 30.2134 18.8368 30.2134 19.7666C30.2134 21.0214 30.2849 20.9451 29.1089 20.9451H28.2455L28.2596 20.4952L28.2738 20.0453L28.7648 19.8817C29.293 19.7058 29.4277 19.6006 29.4277 19.3641C29.4277 19.2519 29.3575 19.1448 29.1253 18.903L28.8229 18.5881H29.3976C29.9423 18.5881 29.9786 18.5944 30.0929 18.7087ZM19.1521 21.0845L19.8514 21.7308H21.021H22.1906L23.0583 22.607C23.9915 23.5495 24.1605 23.7961 24.2707 24.3771C24.2994 24.5288 24.3208 25.4645 24.3208 26.573V28.5046L24.063 28.5794C22.9939 28.8896 22.2836 29.089 22.276 29.0813C22.2711 29.0762 22.1092 28.1992 21.9164 27.1324C21.7235 26.0656 21.556 25.1596 21.5442 25.1191C21.5323 25.0786 20.5115 24.1125 19.2756 22.9723C18.0259 21.8193 16.9581 20.7949 16.8696 20.6641C16.5455 20.1851 16.38 19.3708 16.5097 18.8934L16.5669 18.6831L17.5098 19.5606C18.0284 20.0433 18.7674 20.729 19.1521 21.0845ZM18.7851 23.5925L19.558 24.3002L19.4184 24.55C19.3417 24.6874 19.0742 25.1672 18.8241 25.6161C18.3451 26.4757 18.1072 26.7743 17.6759 27.0573C17.0982 27.4365 16.2933 27.5437 15.6292 27.3301C15.4536 27.2736 14.5808 26.858 13.6895 26.4065L12.0691 25.5856L11.8069 24.661C11.6627 24.1525 11.5571 23.7241 11.5722 23.709C11.5873 23.6939 12.571 23.9056 13.7581 24.1794C14.9454 24.4532 15.994 24.6771 16.0886 24.6771C16.2158 24.6771 16.2869 24.6435 16.3622 24.5477C16.4601 24.4233 16.464 24.3614 16.464 22.9242V21.4301L17.2381 22.1574C17.6638 22.5575 18.36 23.2032 18.7851 23.5925ZM10.9944 24.6526C11.1652 25.2467 11.3056 25.7718 11.3064 25.8193C11.3073 25.8668 11.0869 26.3474 10.8166 26.8874L10.3253 27.869H10.0555H9.78568V25.7065V23.544L10.2347 23.5581L10.6838 23.5723L10.9944 24.6526ZM25.6714 29.9147C26.373 30.3823 26.6778 30.6128 26.6778 30.6758C26.6778 30.7622 26.5826 30.7662 24.5172 30.7662H22.3566V30.3261V29.8861L22.5407 29.8351C22.642 29.8071 23.1337 29.6649 23.6333 29.5191C24.133 29.3733 24.5695 29.2518 24.6033 29.249C24.6372 29.2462 25.1178 29.5458 25.6714 29.9147Z"/>
</mask>
<path fill-rule="evenodd" clip-rule="evenodd" d="M20.8098 8.02401C20.3584 8.1426 19.9621 8.46724 19.7528 8.88984C19.6352 9.12746 19.6308 9.17366 19.6158 10.3221L19.6005 11.5089L18.2409 11.5278C16.9235 11.5461 16.8692 11.5507 16.4885 11.6779C15.9405 11.8609 15.5168 12.1219 15.1143 12.5244C13.9841 13.6546 13.7898 15.3835 14.6414 16.7319C14.7511 16.9056 15.086 17.2868 15.3856 17.5789C15.9008 18.0813 15.9275 18.1171 15.8787 18.2386C15.6972 18.6912 15.6798 18.9665 15.679 21.3994C15.6786 22.8862 15.6605 23.7932 15.6314 23.7932C15.6056 23.7932 14.5766 23.5612 13.3446 23.2776L11.1047 22.762H10.1542H9.20354L9.10179 22.8914C9.00167 23.0187 9 23.064 9 25.6877V28.3545L9.11839 28.4923C9.23629 28.6295 9.23973 28.6301 9.91635 28.6436C10.3938 28.6531 10.6324 28.6385 10.7187 28.5945C10.8077 28.5491 10.9832 28.2528 11.357 27.5164C11.6406 26.9579 11.8901 26.4838 11.9114 26.4628C11.9327 26.4419 12.695 26.7943 13.6055 27.2459C15.3964 28.1341 15.6452 28.2241 16.3167 28.2258C16.8905 28.2271 17.2435 28.1451 17.7898 27.8836C18.1832 27.6952 18.3178 27.5975 18.6492 27.2597C18.9956 26.9065 19.1051 26.7448 19.5771 25.8894C19.8714 25.356 20.1265 24.9107 20.1441 24.8998C20.1616 24.889 20.3228 25.0167 20.5023 25.1837L20.8286 25.4874L21.1998 27.5498C21.5682 29.5967 21.571 29.6186 21.571 30.4615C21.5709 31.2978 21.5728 31.3127 21.6915 31.4313L21.812 31.5518H24.5172H27.2225L27.343 31.4313C27.4558 31.3185 27.4635 31.2775 27.4635 30.7897C27.4635 30.5032 27.443 30.2303 27.418 30.1835C27.3929 30.1366 26.8638 29.7599 26.2422 29.3463L25.112 28.5943L25.097 26.4024L25.0819 24.2106L24.9504 23.8504C24.7441 23.2859 24.5367 22.984 23.9088 22.3347L23.3248 21.7308H26.6529C29.1224 21.7308 30.0332 21.7154 30.1832 21.6711C30.4529 21.5914 30.8597 21.1846 30.9394 20.9149C31.0202 20.6414 31.0202 18.8919 30.9394 18.6183C30.8745 18.3987 30.424 17.9006 30.2903 17.9006C30.2217 17.9006 30.2134 17.6744 30.2134 15.8114V13.7222L30.0929 13.6017L29.9724 13.4812H28.2388H26.5052L26.1893 12.9533C25.8203 12.3366 25.4794 11.9852 25.046 11.7747C24.6138 11.5647 24.3242 11.517 23.4836 11.517H22.7494V10.9277V10.3384H23.3387H23.928V9.9456V9.55275H23.3443H22.7606L22.7261 9.31951C22.7072 9.19124 22.6234 8.95755 22.5399 8.80022C22.2824 8.31506 21.8439 8.03767 21.2818 8.00447C21.1032 7.99391 20.8908 8.0027 20.8098 8.02401ZM21.4923 8.83553C21.6885 8.91748 21.902 9.18245 21.9449 9.39729L21.976 9.55275H21.1842C20.3232 9.55275 20.337 9.55796 20.4448 9.27359C20.6016 8.85978 21.0758 8.66145 21.4923 8.83553ZM21.9638 10.6532V10.968L21.5709 10.8392L21.1781 10.7105L20.7852 10.8392L20.3924 10.968V10.6532V10.3384H21.1781H21.9638V10.6532ZM21.5797 11.6739C21.7639 11.7333 21.9146 11.7996 21.9146 11.8213C21.9146 11.843 21.8275 11.9479 21.721 12.0544C21.3873 12.388 20.9457 12.3865 20.6261 12.0506C20.5246 11.9439 20.4415 11.8396 20.4415 11.819C20.4415 11.7758 21.0077 11.5774 21.15 11.5706C21.2021 11.5681 21.3955 11.6146 21.5797 11.6739ZM19.944 12.4741C20.2001 12.8502 20.8267 13.1231 21.3176 13.0725C21.7109 13.0319 22.1749 12.788 22.3701 12.5192L22.5285 12.3012L23.4615 12.3142C24.3634 12.3268 24.4034 12.3316 24.6651 12.4601C24.9781 12.6138 25.1715 12.8026 25.422 13.1988L25.6005 13.4812H22.3313H19.0621L18.9416 13.6017C18.8242 13.719 18.821 13.7418 18.821 14.4658V15.2094L18.3602 14.7863L17.8993 14.3633L17.6406 14.6618C17.4226 14.9136 17.3928 14.9702 17.4509 15.0233C18.5457 16.0226 20.0978 17.4747 20.0978 17.4999C20.0978 17.5183 19.7055 17.9248 19.2261 18.4033L18.3545 19.2733L17.0532 18.0702C16.3375 17.4086 15.6685 16.7738 15.5665 16.6596C14.8426 15.8491 14.6967 14.6984 15.1931 13.715C15.3884 13.3281 15.8966 12.8195 16.2987 12.6084C16.8058 12.3422 17.0319 12.3112 18.5018 12.3071L19.8277 12.3033L19.944 12.4741ZM22.7494 15.5212V16.7757L22.87 16.8962C23.0782 17.1044 23.2507 17.0622 23.613 16.7143L23.928 16.4119L24.2429 16.7143C24.6676 17.1222 24.7596 17.1222 25.1844 16.7143L25.4993 16.4119L25.8142 16.7143C26.1765 17.0622 26.3491 17.1044 26.5573 16.8962L26.6778 16.7757V15.5212V14.2668H28.0528H29.4277V16.0346V17.8024H28.7626C28.1218 17.8024 28.093 17.8068 27.9769 17.923C27.8716 18.0282 27.8564 18.0875 27.8564 18.3915C27.8564 18.7359 27.8587 18.7421 28.0756 18.974L28.2947 19.2083L27.9538 19.3181C27.4792 19.471 27.4635 19.5021 27.4635 20.2932V20.9451H24.8663H22.269L22.2368 20.8101C22.2191 20.7359 22.1943 20.6402 22.1817 20.5975C22.1638 20.5365 22.1892 20.5245 22.3012 20.5409C22.3795 20.5524 22.4905 20.5366 22.548 20.5059C22.6731 20.4389 23.1423 19.526 23.1423 19.3494C23.1423 19.1896 23.1321 19.1794 21.2149 17.4133L19.6067 15.9319V15.0993V14.2668H21.1781H22.7494V15.5212ZM25.8922 14.9579V15.6489L25.7628 15.5472C25.5351 15.3681 25.3798 15.4106 25.0285 15.7478L24.7136 16.0502L24.3987 15.7478C24.0475 15.4106 23.8922 15.3681 23.6645 15.5472L23.5351 15.6489V14.9579V14.2668H24.7136H25.8922V14.9579ZM21.4878 18.7418C21.8981 19.1235 22.239 19.4494 22.2453 19.4661C22.2516 19.4828 22.2381 19.5261 22.2152 19.5622C22.182 19.6147 22.1237 19.6025 21.923 19.5008C21.6098 19.3421 21.4525 19.3404 21.2986 19.4943C21.1468 19.6461 21.1486 19.7161 21.3211 20.3927L21.462 20.9451H20.807H20.152L19.6952 20.5226C19.444 20.2902 19.1725 20.036 19.0918 19.9577L18.9453 19.8153L19.8279 18.9316C20.3134 18.4456 20.7176 18.0479 20.7262 18.0479C20.7347 18.0479 21.0775 18.3602 21.4878 18.7418ZM30.0929 18.7087C30.2124 18.8282 30.2134 18.8368 30.2134 19.7666C30.2134 21.0214 30.2849 20.9451 29.1089 20.9451H28.2455L28.2596 20.4952L28.2738 20.0453L28.7648 19.8817C29.293 19.7058 29.4277 19.6006 29.4277 19.3641C29.4277 19.2519 29.3575 19.1448 29.1253 18.903L28.8229 18.5881H29.3976C29.9423 18.5881 29.9786 18.5944 30.0929 18.7087ZM19.1521 21.0845L19.8514 21.7308H21.021H22.1906L23.0583 22.607C23.9915 23.5495 24.1605 23.7961 24.2707 24.3771C24.2994 24.5288 24.3208 25.4645 24.3208 26.573V28.5046L24.063 28.5794C22.9939 28.8896 22.2836 29.089 22.276 29.0813C22.2711 29.0762 22.1092 28.1992 21.9164 27.1324C21.7235 26.0656 21.556 25.1596 21.5442 25.1191C21.5323 25.0786 20.5115 24.1125 19.2756 22.9723C18.0259 21.8193 16.9581 20.7949 16.8696 20.6641C16.5455 20.1851 16.38 19.3708 16.5097 18.8934L16.5669 18.6831L17.5098 19.5606C18.0284 20.0433 18.7674 20.729 19.1521 21.0845ZM18.7851 23.5925L19.558 24.3002L19.4184 24.55C19.3417 24.6874 19.0742 25.1672 18.8241 25.6161C18.3451 26.4757 18.1072 26.7743 17.6759 27.0573C17.0982 27.4365 16.2933 27.5437 15.6292 27.3301C15.4536 27.2736 14.5808 26.858 13.6895 26.4065L12.0691 25.5856L11.8069 24.661C11.6627 24.1525 11.5571 23.7241 11.5722 23.709C11.5873 23.6939 12.571 23.9056 13.7581 24.1794C14.9454 24.4532 15.994 24.6771 16.0886 24.6771C16.2158 24.6771 16.2869 24.6435 16.3622 24.5477C16.4601 24.4233 16.464 24.3614 16.464 22.9242V21.4301L17.2381 22.1574C17.6638 22.5575 18.36 23.2032 18.7851 23.5925ZM10.9944 24.6526C11.1652 25.2467 11.3056 25.7718 11.3064 25.8193C11.3073 25.8668 11.0869 26.3474 10.8166 26.8874L10.3253 27.869H10.0555H9.78568V25.7065V23.544L10.2347 23.5581L10.6838 23.5723L10.9944 24.6526ZM25.6714 29.9147C26.373 30.3823 26.6778 30.6128 26.6778 30.6758C26.6778 30.7622 26.5826 30.7662 24.5172 30.7662H22.3566V30.3261V29.8861L22.5407 29.8351C22.642 29.8071 23.1337 29.6649 23.6333 29.5191C24.133 29.3733 24.5695 29.2518 24.6033 29.249C24.6372 29.2462 25.1178 29.5458 25.6714 29.9147Z" fill="#4E86F8"/>
<path fill-rule="evenodd" clip-rule="evenodd" d="M20.8098 8.02401C20.3584 8.1426 19.9621 8.46724 19.7528 8.88984C19.6352 9.12746 19.6308 9.17366 19.6158 10.3221L19.6005 11.5089L18.2409 11.5278C16.9235 11.5461 16.8692 11.5507 16.4885 11.6779C15.9405 11.8609 15.5168 12.1219 15.1143 12.5244C13.9841 13.6546 13.7898 15.3835 14.6414 16.7319C14.7511 16.9056 15.086 17.2868 15.3856 17.5789C15.9008 18.0813 15.9275 18.1171 15.8787 18.2386C15.6972 18.6912 15.6798 18.9665 15.679 21.3994C15.6786 22.8862 15.6605 23.7932 15.6314 23.7932C15.6056 23.7932 14.5766 23.5612 13.3446 23.2776L11.1047 22.762H10.1542H9.20354L9.10179 22.8914C9.00167 23.0187 9 23.064 9 25.6877V28.3545L9.11839 28.4923C9.23629 28.6295 9.23973 28.6301 9.91635 28.6436C10.3938 28.6531 10.6324 28.6385 10.7187 28.5945C10.8077 28.5491 10.9832 28.2528 11.357 27.5164C11.6406 26.9579 11.8901 26.4838 11.9114 26.4628C11.9327 26.4419 12.695 26.7943 13.6055 27.2459C15.3964 28.1341 15.6452 28.2241 16.3167 28.2258C16.8905 28.2271 17.2435 28.1451 17.7898 27.8836C18.1832 27.6952 18.3178 27.5975 18.6492 27.2597C18.9956 26.9065 19.1051 26.7448 19.5771 25.8894C19.8714 25.356 20.1265 24.9107 20.1441 24.8998C20.1616 24.889 20.3228 25.0167 20.5023 25.1837L20.8286 25.4874L21.1998 27.5498C21.5682 29.5967 21.571 29.6186 21.571 30.4615C21.5709 31.2978 21.5728 31.3127 21.6915 31.4313L21.812 31.5518H24.5172H27.2225L27.343 31.4313C27.4558 31.3185 27.4635 31.2775 27.4635 30.7897C27.4635 30.5032 27.443 30.2303 27.418 30.1835C27.3929 30.1366 26.8638 29.7599 26.2422 29.3463L25.112 28.5943L25.097 26.4024L25.0819 24.2106L24.9504 23.8504C24.7441 23.2859 24.5367 22.984 23.9088 22.3347L23.3248 21.7308H26.6529C29.1224 21.7308 30.0332 21.7154 30.1832 21.6711C30.4529 21.5914 30.8597 21.1846 30.9394 20.9149C31.0202 20.6414 31.0202 18.8919 30.9394 18.6183C30.8745 18.3987 30.424 17.9006 30.2903 17.9006C30.2217 17.9006 30.2134 17.6744 30.2134 15.8114V13.7222L30.0929 13.6017L29.9724 13.4812H28.2388H26.5052L26.1893 12.9533C25.8203 12.3366 25.4794 11.9852 25.046 11.7747C24.6138 11.5647 24.3242 11.517 23.4836 11.517H22.7494V10.9277V10.3384H23.3387H23.928V9.9456V9.55275H23.3443H22.7606L22.7261 9.31951C22.7072 9.19124 22.6234 8.95755 22.5399 8.80022C22.2824 8.31506 21.8439 8.03767 21.2818 8.00447C21.1032 7.99391 20.8908 8.0027 20.8098 8.02401ZM21.4923 8.83553C21.6885 8.91748 21.902 9.18245 21.9449 9.39729L21.976 9.55275H21.1842C20.3232 9.55275 20.337 9.55796 20.4448 9.27359C20.6016 8.85978 21.0758 8.66145 21.4923 8.83553ZM21.9638 10.6532V10.968L21.5709 10.8392L21.1781 10.7105L20.7852 10.8392L20.3924 10.968V10.6532V10.3384H21.1781H21.9638V10.6532ZM21.5797 11.6739C21.7639 11.7333 21.9146 11.7996 21.9146 11.8213C21.9146 11.843 21.8275 11.9479 21.721 12.0544C21.3873 12.388 20.9457 12.3865 20.6261 12.0506C20.5246 11.9439 20.4415 11.8396 20.4415 11.819C20.4415 11.7758 21.0077 11.5774 21.15 11.5706C21.2021 11.5681 21.3955 11.6146 21.5797 11.6739ZM19.944 12.4741C20.2001 12.8502 20.8267 13.1231 21.3176 13.0725C21.7109 13.0319 22.1749 12.788 22.3701 12.5192L22.5285 12.3012L23.4615 12.3142C24.3634 12.3268 24.4034 12.3316 24.6651 12.4601C24.9781 12.6138 25.1715 12.8026 25.422 13.1988L25.6005 13.4812H22.3313H19.0621L18.9416 13.6017C18.8242 13.719 18.821 13.7418 18.821 14.4658V15.2094L18.3602 14.7863L17.8993 14.3633L17.6406 14.6618C17.4226 14.9136 17.3928 14.9702 17.4509 15.0233C18.5457 16.0226 20.0978 17.4747 20.0978 17.4999C20.0978 17.5183 19.7055 17.9248 19.2261 18.4033L18.3545 19.2733L17.0532 18.0702C16.3375 17.4086 15.6685 16.7738 15.5665 16.6596C14.8426 15.8491 14.6967 14.6984 15.1931 13.715C15.3884 13.3281 15.8966 12.8195 16.2987 12.6084C16.8058 12.3422 17.0319 12.3112 18.5018 12.3071L19.8277 12.3033L19.944 12.4741ZM22.7494 15.5212V16.7757L22.87 16.8962C23.0782 17.1044 23.2507 17.0622 23.613 16.7143L23.928 16.4119L24.2429 16.7143C24.6676 17.1222 24.7596 17.1222 25.1844 16.7143L25.4993 16.4119L25.8142 16.7143C26.1765 17.0622 26.3491 17.1044 26.5573 16.8962L26.6778 16.7757V15.5212V14.2668H28.0528H29.4277V16.0346V17.8024H28.7626C28.1218 17.8024 28.093 17.8068 27.9769 17.923C27.8716 18.0282 27.8564 18.0875 27.8564 18.3915C27.8564 18.7359 27.8587 18.7421 28.0756 18.974L28.2947 19.2083L27.9538 19.3181C27.4792 19.471 27.4635 19.5021 27.4635 20.2932V20.9451H24.8663H22.269L22.2368 20.8101C22.2191 20.7359 22.1943 20.6402 22.1817 20.5975C22.1638 20.5365 22.1892 20.5245 22.3012 20.5409C22.3795 20.5524 22.4905 20.5366 22.548 20.5059C22.6731 20.4389 23.1423 19.526 23.1423 19.3494C23.1423 19.1896 23.1321 19.1794 21.2149 17.4133L19.6067 15.9319V15.0993V14.2668H21.1781H22.7494V15.5212ZM25.8922 14.9579V15.6489L25.7628 15.5472C25.5351 15.3681 25.3798 15.4106 25.0285 15.7478L24.7136 16.0502L24.3987 15.7478C24.0475 15.4106 23.8922 15.3681 23.6645 15.5472L23.5351 15.6489V14.9579V14.2668H24.7136H25.8922V14.9579ZM21.4878 18.7418C21.8981 19.1235 22.239 19.4494 22.2453 19.4661C22.2516 19.4828 22.2381 19.5261 22.2152 19.5622C22.182 19.6147 22.1237 19.6025 21.923 19.5008C21.6098 19.3421 21.4525 19.3404 21.2986 19.4943C21.1468 19.6461 21.1486 19.7161 21.3211 20.3927L21.462 20.9451H20.807H20.152L19.6952 20.5226C19.444 20.2902 19.1725 20.036 19.0918 19.9577L18.9453 19.8153L19.8279 18.9316C20.3134 18.4456 20.7176 18.0479 20.7262 18.0479C20.7347 18.0479 21.0775 18.3602 21.4878 18.7418ZM30.0929 18.7087C30.2124 18.8282 30.2134 18.8368 30.2134 19.7666C30.2134 21.0214 30.2849 20.9451 29.1089 20.9451H28.2455L28.2596 20.4952L28.2738 20.0453L28.7648 19.8817C29.293 19.7058 29.4277 19.6006 29.4277 19.3641C29.4277 19.2519 29.3575 19.1448 29.1253 18.903L28.8229 18.5881H29.3976C29.9423 18.5881 29.9786 18.5944 30.0929 18.7087ZM19.1521 21.0845L19.8514 21.7308H21.021H22.1906L23.0583 22.607C23.9915 23.5495 24.1605 23.7961 24.2707 24.3771C24.2994 24.5288 24.3208 25.4645 24.3208 26.573V28.5046L24.063 28.5794C22.9939 28.8896 22.2836 29.089 22.276 29.0813C22.2711 29.0762 22.1092 28.1992 21.9164 27.1324C21.7235 26.0656 21.556 25.1596 21.5442 25.1191C21.5323 25.0786 20.5115 24.1125 19.2756 22.9723C18.0259 21.8193 16.9581 20.7949 16.8696 20.6641C16.5455 20.1851 16.38 19.3708 16.5097 18.8934L16.5669 18.6831L17.5098 19.5606C18.0284 20.0433 18.7674 20.729 19.1521 21.0845ZM18.7851 23.5925L19.558 24.3002L19.4184 24.55C19.3417 24.6874 19.0742 25.1672 18.8241 25.6161C18.3451 26.4757 18.1072 26.7743 17.6759 27.0573C17.0982 27.4365 16.2933 27.5437 15.6292 27.3301C15.4536 27.2736 14.5808 26.858 13.6895 26.4065L12.0691 25.5856L11.8069 24.661C11.6627 24.1525 11.5571 23.7241 11.5722 23.709C11.5873 23.6939 12.571 23.9056 13.7581 24.1794C14.9454 24.4532 15.994 24.6771 16.0886 24.6771C16.2158 24.6771 16.2869 24.6435 16.3622 24.5477C16.4601 24.4233 16.464 24.3614 16.464 22.9242V21.4301L17.2381 22.1574C17.6638 22.5575 18.36 23.2032 18.7851 23.5925ZM10.9944 24.6526C11.1652 25.2467 11.3056 25.7718 11.3064 25.8193C11.3073 25.8668 11.0869 26.3474 10.8166 26.8874L10.3253 27.869H10.0555H9.78568V25.7065V23.544L10.2347 23.5581L10.6838 23.5723L10.9944 24.6526ZM25.6714 29.9147C26.373 30.3823 26.6778 30.6128 26.6778 30.6758C26.6778 30.7622 26.5826 30.7662 24.5172 30.7662H22.3566V30.3261V29.8861L22.5407 29.8351C22.642 29.8071 23.1337 29.6649 23.6333 29.5191C24.133 29.3733 24.5695 29.2518 24.6033 29.249C24.6372 29.2462 25.1178 29.5458 25.6714 29.9147Z" stroke="#4E86F8" stroke-width="0.4" mask="url(#path-2-outside-1_0_161)"/>
</svg>
