<svg width="40" height="40" viewBox="0 0 40 40" fill="none" xmlns="http://www.w3.org/2000/svg">
<circle cx="20" cy="20" r="19.5" stroke="#4E86F8"/>
<mask id="path-2-outside-1_0_180" maskUnits="userSpaceOnUse" x="8" y="7" width="24" height="24" fill="black">
<rect fill="white" x="8" y="7" width="24" height="24"/>
<path fill-rule="evenodd" clip-rule="evenodd" d="M17.5597 8.06075C17.0886 8.18756 16.6579 8.55559 16.4422 9.01563C16.3409 9.23183 16.3265 9.31744 16.3223 9.72797L16.3175 10.1945L13.7547 12.7576L11.1919 15.3207H10.7298C10.3184 15.3207 10.2408 15.3333 10.022 15.4359C9.73279 15.5714 9.39055 15.8779 9.23825 16.1379C9.10473 16.3657 9 16.7547 9 17.0227C9 17.2879 9.13838 17.7266 9.29738 17.9654C9.36751 18.0708 10.3108 19.0389 11.3934 20.1169C13.5332 22.2473 13.5556 22.2657 14.1012 22.3373C14.701 22.416 15.2253 22.2282 15.6319 21.789C15.9656 21.4286 16.0634 21.1607 16.0667 20.5973L16.0692 20.1583L16.3027 19.9219L16.5361 19.6855L16.6081 19.8039C16.7294 20.0034 17.0744 20.2757 17.3013 20.3511C17.6778 20.4761 18.182 20.3876 18.5188 20.1372C18.6007 20.0762 18.789 20.2851 22.5965 24.6588C24.7919 27.1808 26.6871 29.3241 26.8079 29.4217C27.8342 30.2505 29.289 30.1664 30.2298 29.224C31.2364 28.2157 31.2589 26.6804 30.2822 25.6614C30.123 25.4954 28.8325 24.3503 27.4144 23.1167C20.8437 17.4013 21.0742 17.6073 21.1425 17.5124C21.407 17.1452 21.488 16.688 21.3581 16.2968C21.2822 16.0683 21.0103 15.7234 20.8103 15.6017L20.6919 15.5297L20.9283 15.2963L21.1647 15.0629L21.5822 15.0628C22.1335 15.0627 22.4452 14.9498 22.7993 14.6219C23.366 14.0973 23.5226 13.3025 23.1975 12.6006C23.1 12.3901 22.7982 12.0695 21.0592 10.3291C19.6427 8.91137 18.9763 8.27364 18.8411 8.20604C18.4172 7.99426 17.9877 7.94557 17.5597 8.06075ZM18.3469 8.93544C18.4621 8.98937 19.165 9.66497 20.4806 10.9865C22.3625 12.8767 22.4443 12.9655 22.4848 13.1627C22.619 13.816 22.0583 14.351 21.4165 14.1823C21.2455 14.1373 21.0283 13.935 19.2784 12.191C18.2073 11.1233 17.2935 10.178 17.2479 10.0903C17.1979 9.99402 17.1651 9.84443 17.1651 9.71258C17.1651 9.08856 17.7924 8.67596 18.3469 8.93544ZM18.6478 12.7638L20.4523 14.5688L18.0138 17.0074L15.5752 19.4459L13.7702 17.6414C12.7775 16.6489 11.9652 15.8174 11.9652 15.7938C11.9652 15.7373 16.7434 10.9588 16.7998 10.9588C16.8236 10.9588 17.6552 11.7711 18.6478 12.7638ZM16.4947 12.4576C16.1859 12.6854 14.5946 14.3286 14.5637 14.4515C14.4815 14.7791 14.7619 15.0592 15.0916 14.9789C15.1677 14.9604 15.5653 14.5952 16.2089 13.9526C17.2031 12.96 17.208 12.9542 17.208 12.7701C17.208 12.6231 17.1823 12.5595 17.0824 12.4596C16.9148 12.292 16.7201 12.2913 16.4947 12.4576ZM13.6534 15.3723C13.505 15.4011 13.3404 15.6259 13.3404 15.8C13.3404 16.0158 13.5333 16.2017 13.7573 16.2017C13.9661 16.2017 14.0939 16.1132 14.1557 15.9259C14.2254 15.7148 14.1248 15.4892 13.9235 15.4051C13.8406 15.3705 13.7674 15.3448 13.7608 15.348C13.7541 15.3513 13.7058 15.3622 13.6534 15.3723ZM11.0967 16.2415C11.1844 16.2871 12.1297 17.2009 13.1974 18.2721C14.9414 20.0219 15.1437 20.2391 15.1887 20.4101C15.3574 21.0519 14.8223 21.6126 14.1691 21.4784C13.9719 21.4379 13.8831 21.3561 11.9929 19.4743C10.6713 18.1586 9.99575 17.4557 9.94182 17.3405C9.74826 16.9269 9.9224 16.4574 10.3537 16.2301C10.5353 16.1343 10.9013 16.14 11.0967 16.2415ZM20.4344 16.4132C20.5293 16.5081 20.56 16.5789 20.56 16.7025C20.56 16.86 20.5089 16.9173 19.2163 18.2099C17.9237 19.5025 17.8664 19.5536 17.7089 19.5536C17.4702 19.5536 17.294 19.3683 17.294 19.1172V18.9321L18.6162 17.6098L19.9384 16.2876H20.1236C20.271 16.2876 20.3344 16.3133 20.4344 16.4132ZM21.9651 19.5099C22.7641 20.2068 23.9467 21.2392 24.5932 21.8043L25.7686 22.8317L24.8083 23.7927C24.2802 24.3212 23.8366 24.7488 23.8225 24.7428C23.8085 24.7369 22.872 23.6684 21.7415 22.3684C20.6109 21.0685 19.5795 19.8828 19.4493 19.7337L19.2127 19.4624L19.8322 18.8418C20.173 18.5004 20.4654 18.226 20.482 18.2321C20.4987 18.238 21.166 18.8131 21.9651 19.5099ZM26.7698 23.7006L27.0706 23.9764L26.0177 25.0292L24.9649 26.082L24.69 25.7574L24.4151 25.4328L25.4202 24.4271C25.973 23.8739 26.4351 23.4221 26.4471 23.423C26.4591 23.4239 26.6043 23.5489 26.7698 23.7006ZM28.7681 25.4472C29.2999 25.9134 29.7775 26.3589 29.8296 26.4373C30.0577 26.7812 30.1196 26.9901 30.1202 27.4179C30.1208 27.7683 30.1051 27.8596 30.0096 28.0625C29.6002 28.9324 28.6893 29.3356 27.8226 29.0304C27.4923 28.914 27.2557 28.6991 26.4888 27.8185C26.0807 27.35 25.6973 26.9129 25.6367 26.8473L25.5266 26.7279L26.6182 25.6357C27.2199 25.0336 27.7302 24.5561 27.7554 24.5716C27.7806 24.5871 28.2363 24.9811 28.7681 25.4472ZM10.9461 24.9013C10.5074 25.0395 10.1906 25.3183 9.99274 25.7399C9.8997 25.9383 9.88097 26.0397 9.88097 26.3451C9.88097 26.667 9.89691 26.7442 10.0109 26.9742L10.1409 27.2364L9.95888 27.3515C9.53859 27.6174 9.15458 28.1849 9.04749 28.6985C8.98462 28.9999 8.98689 29.6197 9.05135 29.7612C9.1642 30.0089 8.84572 29.9963 15.0164 29.9963C21.187 29.9963 20.8685 30.0089 20.9814 29.7612C21.0458 29.6197 21.0481 28.9999 20.9852 28.6985C20.8782 28.1849 20.4941 27.6174 20.0739 27.3515L19.8919 27.2364L20.0218 26.9742C20.1359 26.744 20.1518 26.667 20.1518 26.3442C20.1518 26.0159 20.1367 25.9459 20.0117 25.6919C19.8487 25.3607 19.6157 25.1335 19.276 24.9742L19.0344 24.8609L15.0808 24.8526C11.8965 24.8459 11.092 24.8554 10.9461 24.9013ZM18.9711 25.7854C19.1628 25.8832 19.3138 26.1306 19.3138 26.3467C19.3138 26.5416 19.1575 26.7916 18.9698 26.8971C18.8083 26.9879 18.7986 26.9882 15.0164 26.9882C11.2341 26.9882 11.2245 26.9879 11.0629 26.8971C10.6247 26.6508 10.6152 26.0613 11.0453 25.801L11.2132 25.6994L15.0073 25.6991C18.7254 25.6989 18.8049 25.7006 18.9711 25.7854ZM19.4505 27.989C19.8346 28.1776 20.086 28.5226 20.1553 28.956L20.1843 29.1369H15.0219C10.0599 29.1369 9.85948 29.1338 9.85948 29.0587C9.85948 28.8992 9.99145 28.5439 10.1131 28.376C10.27 28.1595 10.4618 28.0212 10.7395 27.9246C10.9398 27.8549 11.251 27.8503 15.0808 27.8593L19.2063 27.8691L19.4505 27.989Z"/>
</mask>
<path fill-rule="evenodd" clip-rule="evenodd" d="M17.5597 8.06075C17.0886 8.18756 16.6579 8.55559 16.4422 9.01563C16.3409 9.23183 16.3265 9.31744 16.3223 9.72797L16.3175 10.1945L13.7547 12.7576L11.1919 15.3207H10.7298C10.3184 15.3207 10.2408 15.3333 10.022 15.4359C9.73279 15.5714 9.39055 15.8779 9.23825 16.1379C9.10473 16.3657 9 16.7547 9 17.0227C9 17.2879 9.13838 17.7266 9.29738 17.9654C9.36751 18.0708 10.3108 19.0389 11.3934 20.1169C13.5332 22.2473 13.5556 22.2657 14.1012 22.3373C14.701 22.416 15.2253 22.2282 15.6319 21.789C15.9656 21.4286 16.0634 21.1607 16.0667 20.5973L16.0692 20.1583L16.3027 19.9219L16.5361 19.6855L16.6081 19.8039C16.7294 20.0034 17.0744 20.2757 17.3013 20.3511C17.6778 20.4761 18.182 20.3876 18.5188 20.1372C18.6007 20.0762 18.789 20.2851 22.5965 24.6588C24.7919 27.1808 26.6871 29.3241 26.8079 29.4217C27.8342 30.2505 29.289 30.1664 30.2298 29.224C31.2364 28.2157 31.2589 26.6804 30.2822 25.6614C30.123 25.4954 28.8325 24.3503 27.4144 23.1167C20.8437 17.4013 21.0742 17.6073 21.1425 17.5124C21.407 17.1452 21.488 16.688 21.3581 16.2968C21.2822 16.0683 21.0103 15.7234 20.8103 15.6017L20.6919 15.5297L20.9283 15.2963L21.1647 15.0629L21.5822 15.0628C22.1335 15.0627 22.4452 14.9498 22.7993 14.6219C23.366 14.0973 23.5226 13.3025 23.1975 12.6006C23.1 12.3901 22.7982 12.0695 21.0592 10.3291C19.6427 8.91137 18.9763 8.27364 18.8411 8.20604C18.4172 7.99426 17.9877 7.94557 17.5597 8.06075ZM18.3469 8.93544C18.4621 8.98937 19.165 9.66497 20.4806 10.9865C22.3625 12.8767 22.4443 12.9655 22.4848 13.1627C22.619 13.816 22.0583 14.351 21.4165 14.1823C21.2455 14.1373 21.0283 13.935 19.2784 12.191C18.2073 11.1233 17.2935 10.178 17.2479 10.0903C17.1979 9.99402 17.1651 9.84443 17.1651 9.71258C17.1651 9.08856 17.7924 8.67596 18.3469 8.93544ZM18.6478 12.7638L20.4523 14.5688L18.0138 17.0074L15.5752 19.4459L13.7702 17.6414C12.7775 16.6489 11.9652 15.8174 11.9652 15.7938C11.9652 15.7373 16.7434 10.9588 16.7998 10.9588C16.8236 10.9588 17.6552 11.7711 18.6478 12.7638ZM16.4947 12.4576C16.1859 12.6854 14.5946 14.3286 14.5637 14.4515C14.4815 14.7791 14.7619 15.0592 15.0916 14.9789C15.1677 14.9604 15.5653 14.5952 16.2089 13.9526C17.2031 12.96 17.208 12.9542 17.208 12.7701C17.208 12.6231 17.1823 12.5595 17.0824 12.4596C16.9148 12.292 16.7201 12.2913 16.4947 12.4576ZM13.6534 15.3723C13.505 15.4011 13.3404 15.6259 13.3404 15.8C13.3404 16.0158 13.5333 16.2017 13.7573 16.2017C13.9661 16.2017 14.0939 16.1132 14.1557 15.9259C14.2254 15.7148 14.1248 15.4892 13.9235 15.4051C13.8406 15.3705 13.7674 15.3448 13.7608 15.348C13.7541 15.3513 13.7058 15.3622 13.6534 15.3723ZM11.0967 16.2415C11.1844 16.2871 12.1297 17.2009 13.1974 18.2721C14.9414 20.0219 15.1437 20.2391 15.1887 20.4101C15.3574 21.0519 14.8223 21.6126 14.1691 21.4784C13.9719 21.4379 13.8831 21.3561 11.9929 19.4743C10.6713 18.1586 9.99575 17.4557 9.94182 17.3405C9.74826 16.9269 9.9224 16.4574 10.3537 16.2301C10.5353 16.1343 10.9013 16.14 11.0967 16.2415ZM20.4344 16.4132C20.5293 16.5081 20.56 16.5789 20.56 16.7025C20.56 16.86 20.5089 16.9173 19.2163 18.2099C17.9237 19.5025 17.8664 19.5536 17.7089 19.5536C17.4702 19.5536 17.294 19.3683 17.294 19.1172V18.9321L18.6162 17.6098L19.9384 16.2876H20.1236C20.271 16.2876 20.3344 16.3133 20.4344 16.4132ZM21.9651 19.5099C22.7641 20.2068 23.9467 21.2392 24.5932 21.8043L25.7686 22.8317L24.8083 23.7927C24.2802 24.3212 23.8366 24.7488 23.8225 24.7428C23.8085 24.7369 22.872 23.6684 21.7415 22.3684C20.6109 21.0685 19.5795 19.8828 19.4493 19.7337L19.2127 19.4624L19.8322 18.8418C20.173 18.5004 20.4654 18.226 20.482 18.2321C20.4987 18.238 21.166 18.8131 21.9651 19.5099ZM26.7698 23.7006L27.0706 23.9764L26.0177 25.0292L24.9649 26.082L24.69 25.7574L24.4151 25.4328L25.4202 24.4271C25.973 23.8739 26.4351 23.4221 26.4471 23.423C26.4591 23.4239 26.6043 23.5489 26.7698 23.7006ZM28.7681 25.4472C29.2999 25.9134 29.7775 26.3589 29.8296 26.4373C30.0577 26.7812 30.1196 26.9901 30.1202 27.4179C30.1208 27.7683 30.1051 27.8596 30.0096 28.0625C29.6002 28.9324 28.6893 29.3356 27.8226 29.0304C27.4923 28.914 27.2557 28.6991 26.4888 27.8185C26.0807 27.35 25.6973 26.9129 25.6367 26.8473L25.5266 26.7279L26.6182 25.6357C27.2199 25.0336 27.7302 24.5561 27.7554 24.5716C27.7806 24.5871 28.2363 24.9811 28.7681 25.4472ZM10.9461 24.9013C10.5074 25.0395 10.1906 25.3183 9.99274 25.7399C9.8997 25.9383 9.88097 26.0397 9.88097 26.3451C9.88097 26.667 9.89691 26.7442 10.0109 26.9742L10.1409 27.2364L9.95888 27.3515C9.53859 27.6174 9.15458 28.1849 9.04749 28.6985C8.98462 28.9999 8.98689 29.6197 9.05135 29.7612C9.1642 30.0089 8.84572 29.9963 15.0164 29.9963C21.187 29.9963 20.8685 30.0089 20.9814 29.7612C21.0458 29.6197 21.0481 28.9999 20.9852 28.6985C20.8782 28.1849 20.4941 27.6174 20.0739 27.3515L19.8919 27.2364L20.0218 26.9742C20.1359 26.744 20.1518 26.667 20.1518 26.3442C20.1518 26.0159 20.1367 25.9459 20.0117 25.6919C19.8487 25.3607 19.6157 25.1335 19.276 24.9742L19.0344 24.8609L15.0808 24.8526C11.8965 24.8459 11.092 24.8554 10.9461 24.9013ZM18.9711 25.7854C19.1628 25.8832 19.3138 26.1306 19.3138 26.3467C19.3138 26.5416 19.1575 26.7916 18.9698 26.8971C18.8083 26.9879 18.7986 26.9882 15.0164 26.9882C11.2341 26.9882 11.2245 26.9879 11.0629 26.8971C10.6247 26.6508 10.6152 26.0613 11.0453 25.801L11.2132 25.6994L15.0073 25.6991C18.7254 25.6989 18.8049 25.7006 18.9711 25.7854ZM19.4505 27.989C19.8346 28.1776 20.086 28.5226 20.1553 28.956L20.1843 29.1369H15.0219C10.0599 29.1369 9.85948 29.1338 9.85948 29.0587C9.85948 28.8992 9.99145 28.5439 10.1131 28.376C10.27 28.1595 10.4618 28.0212 10.7395 27.9246C10.9398 27.8549 11.251 27.8503 15.0808 27.8593L19.2063 27.8691L19.4505 27.989Z" fill="#4E86F8"/>
<path fill-rule="evenodd" clip-rule="evenodd" d="M17.5597 8.06075C17.0886 8.18756 16.6579 8.55559 16.4422 9.01563C16.3409 9.23183 16.3265 9.31744 16.3223 9.72797L16.3175 10.1945L13.7547 12.7576L11.1919 15.3207H10.7298C10.3184 15.3207 10.2408 15.3333 10.022 15.4359C9.73279 15.5714 9.39055 15.8779 9.23825 16.1379C9.10473 16.3657 9 16.7547 9 17.0227C9 17.2879 9.13838 17.7266 9.29738 17.9654C9.36751 18.0708 10.3108 19.0389 11.3934 20.1169C13.5332 22.2473 13.5556 22.2657 14.1012 22.3373C14.701 22.416 15.2253 22.2282 15.6319 21.789C15.9656 21.4286 16.0634 21.1607 16.0667 20.5973L16.0692 20.1583L16.3027 19.9219L16.5361 19.6855L16.6081 19.8039C16.7294 20.0034 17.0744 20.2757 17.3013 20.3511C17.6778 20.4761 18.182 20.3876 18.5188 20.1372C18.6007 20.0762 18.789 20.2851 22.5965 24.6588C24.7919 27.1808 26.6871 29.3241 26.8079 29.4217C27.8342 30.2505 29.289 30.1664 30.2298 29.224C31.2364 28.2157 31.2589 26.6804 30.2822 25.6614C30.123 25.4954 28.8325 24.3503 27.4144 23.1167C20.8437 17.4013 21.0742 17.6073 21.1425 17.5124C21.407 17.1452 21.488 16.688 21.3581 16.2968C21.2822 16.0683 21.0103 15.7234 20.8103 15.6017L20.6919 15.5297L20.9283 15.2963L21.1647 15.0629L21.5822 15.0628C22.1335 15.0627 22.4452 14.9498 22.7993 14.6219C23.366 14.0973 23.5226 13.3025 23.1975 12.6006C23.1 12.3901 22.7982 12.0695 21.0592 10.3291C19.6427 8.91137 18.9763 8.27364 18.8411 8.20604C18.4172 7.99426 17.9877 7.94557 17.5597 8.06075ZM18.3469 8.93544C18.4621 8.98937 19.165 9.66497 20.4806 10.9865C22.3625 12.8767 22.4443 12.9655 22.4848 13.1627C22.619 13.816 22.0583 14.351 21.4165 14.1823C21.2455 14.1373 21.0283 13.935 19.2784 12.191C18.2073 11.1233 17.2935 10.178 17.2479 10.0903C17.1979 9.99402 17.1651 9.84443 17.1651 9.71258C17.1651 9.08856 17.7924 8.67596 18.3469 8.93544ZM18.6478 12.7638L20.4523 14.5688L18.0138 17.0074L15.5752 19.4459L13.7702 17.6414C12.7775 16.6489 11.9652 15.8174 11.9652 15.7938C11.9652 15.7373 16.7434 10.9588 16.7998 10.9588C16.8236 10.9588 17.6552 11.7711 18.6478 12.7638ZM16.4947 12.4576C16.1859 12.6854 14.5946 14.3286 14.5637 14.4515C14.4815 14.7791 14.7619 15.0592 15.0916 14.9789C15.1677 14.9604 15.5653 14.5952 16.2089 13.9526C17.2031 12.96 17.208 12.9542 17.208 12.7701C17.208 12.6231 17.1823 12.5595 17.0824 12.4596C16.9148 12.292 16.7201 12.2913 16.4947 12.4576ZM13.6534 15.3723C13.505 15.4011 13.3404 15.6259 13.3404 15.8C13.3404 16.0158 13.5333 16.2017 13.7573 16.2017C13.9661 16.2017 14.0939 16.1132 14.1557 15.9259C14.2254 15.7148 14.1248 15.4892 13.9235 15.4051C13.8406 15.3705 13.7674 15.3448 13.7608 15.348C13.7541 15.3513 13.7058 15.3622 13.6534 15.3723ZM11.0967 16.2415C11.1844 16.2871 12.1297 17.2009 13.1974 18.2721C14.9414 20.0219 15.1437 20.2391 15.1887 20.4101C15.3574 21.0519 14.8223 21.6126 14.1691 21.4784C13.9719 21.4379 13.8831 21.3561 11.9929 19.4743C10.6713 18.1586 9.99575 17.4557 9.94182 17.3405C9.74826 16.9269 9.9224 16.4574 10.3537 16.2301C10.5353 16.1343 10.9013 16.14 11.0967 16.2415ZM20.4344 16.4132C20.5293 16.5081 20.56 16.5789 20.56 16.7025C20.56 16.86 20.5089 16.9173 19.2163 18.2099C17.9237 19.5025 17.8664 19.5536 17.7089 19.5536C17.4702 19.5536 17.294 19.3683 17.294 19.1172V18.9321L18.6162 17.6098L19.9384 16.2876H20.1236C20.271 16.2876 20.3344 16.3133 20.4344 16.4132ZM21.9651 19.5099C22.7641 20.2068 23.9467 21.2392 24.5932 21.8043L25.7686 22.8317L24.8083 23.7927C24.2802 24.3212 23.8366 24.7488 23.8225 24.7428C23.8085 24.7369 22.872 23.6684 21.7415 22.3684C20.6109 21.0685 19.5795 19.8828 19.4493 19.7337L19.2127 19.4624L19.8322 18.8418C20.173 18.5004 20.4654 18.226 20.482 18.2321C20.4987 18.238 21.166 18.8131 21.9651 19.5099ZM26.7698 23.7006L27.0706 23.9764L26.0177 25.0292L24.9649 26.082L24.69 25.7574L24.4151 25.4328L25.4202 24.4271C25.973 23.8739 26.4351 23.4221 26.4471 23.423C26.4591 23.4239 26.6043 23.5489 26.7698 23.7006ZM28.7681 25.4472C29.2999 25.9134 29.7775 26.3589 29.8296 26.4373C30.0577 26.7812 30.1196 26.9901 30.1202 27.4179C30.1208 27.7683 30.1051 27.8596 30.0096 28.0625C29.6002 28.9324 28.6893 29.3356 27.8226 29.0304C27.4923 28.914 27.2557 28.6991 26.4888 27.8185C26.0807 27.35 25.6973 26.9129 25.6367 26.8473L25.5266 26.7279L26.6182 25.6357C27.2199 25.0336 27.7302 24.5561 27.7554 24.5716C27.7806 24.5871 28.2363 24.9811 28.7681 25.4472ZM10.9461 24.9013C10.5074 25.0395 10.1906 25.3183 9.99274 25.7399C9.8997 25.9383 9.88097 26.0397 9.88097 26.3451C9.88097 26.667 9.89691 26.7442 10.0109 26.9742L10.1409 27.2364L9.95888 27.3515C9.53859 27.6174 9.15458 28.1849 9.04749 28.6985C8.98462 28.9999 8.98689 29.6197 9.05135 29.7612C9.1642 30.0089 8.84572 29.9963 15.0164 29.9963C21.187 29.9963 20.8685 30.0089 20.9814 29.7612C21.0458 29.6197 21.0481 28.9999 20.9852 28.6985C20.8782 28.1849 20.4941 27.6174 20.0739 27.3515L19.8919 27.2364L20.0218 26.9742C20.1359 26.744 20.1518 26.667 20.1518 26.3442C20.1518 26.0159 20.1367 25.9459 20.0117 25.6919C19.8487 25.3607 19.6157 25.1335 19.276 24.9742L19.0344 24.8609L15.0808 24.8526C11.8965 24.8459 11.092 24.8554 10.9461 24.9013ZM18.9711 25.7854C19.1628 25.8832 19.3138 26.1306 19.3138 26.3467C19.3138 26.5416 19.1575 26.7916 18.9698 26.8971C18.8083 26.9879 18.7986 26.9882 15.0164 26.9882C11.2341 26.9882 11.2245 26.9879 11.0629 26.8971C10.6247 26.6508 10.6152 26.0613 11.0453 25.801L11.2132 25.6994L15.0073 25.6991C18.7254 25.6989 18.8049 25.7006 18.9711 25.7854ZM19.4505 27.989C19.8346 28.1776 20.086 28.5226 20.1553 28.956L20.1843 29.1369H15.0219C10.0599 29.1369 9.85948 29.1338 9.85948 29.0587C9.85948 28.8992 9.99145 28.5439 10.1131 28.376C10.27 28.1595 10.4618 28.0212 10.7395 27.9246C10.9398 27.8549 11.251 27.8503 15.0808 27.8593L19.2063 27.8691L19.4505 27.989Z" stroke="#4E86F8" stroke-width="0.4" mask="url(#path-2-outside-1_0_180)"/>
</svg>
