<svg width="40" height="40" viewBox="0 0 40 40" fill="none" xmlns="http://www.w3.org/2000/svg">
<circle cx="20" cy="20" r="19.5" stroke="#4E86F8"/>
<mask id="path-2-outside-1_0_188" maskUnits="userSpaceOnUse" x="7" y="7" width="26" height="26" fill="black">
<rect fill="white" x="7" y="7" width="26" height="26"/>
<path fill-rule="evenodd" clip-rule="evenodd" d="M17.323 8.18724C16.485 8.41755 16.2218 8.5554 15.96 8.90103C15.7055 9.23685 15.6267 9.51044 15.651 9.97336C15.6671 10.2802 15.6974 10.404 15.8042 10.6003L15.9373 10.8449L15.759 11.5267C15.6609 11.9016 15.5681 12.2083 15.5527 12.2082C15.5374 12.208 15.2925 12.1448 15.0085 12.0677C14.7246 11.9905 14.4077 11.9277 14.3045 11.9282C13.9538 11.9296 13.5197 12.1969 13.3542 12.5135C13.3137 12.591 13.2108 12.9157 13.1256 13.2352C13.0404 13.5547 12.9645 13.8217 12.957 13.8286C12.9495 13.8355 12.7333 13.8969 12.4765 13.9649C10.1646 14.5773 8.41478 16.529 8.06487 18.8852C7.64363 21.7221 9.30936 24.4743 12.0281 25.4333C12.7334 25.6821 13.143 25.7473 13.9994 25.7473C14.8558 25.7473 15.2654 25.6821 15.9707 25.4333C17.0288 25.0601 18.0304 24.3524 18.7005 23.5047C18.9658 23.169 18.9448 22.853 18.6469 22.6989C18.3671 22.5542 18.301 22.5887 17.7149 23.1848C17.4138 23.491 17.0408 23.826 16.8859 23.9294C16.178 24.4017 15.4224 24.6777 14.4831 24.8072L14.2862 24.8343L14.3852 24.6112C14.4915 24.3718 14.5239 23.8803 14.4549 23.555C14.4202 23.3912 14.4252 23.379 14.5272 23.379C14.942 23.379 15.8655 22.9674 16.3494 22.5667C16.8931 22.1166 17.3588 21.3774 17.5527 20.6568C17.6779 20.1918 17.6667 19.288 17.5301 18.8127C17.1642 17.5405 16.2227 16.5974 14.9589 16.2372C14.6601 16.152 14.4697 16.1311 13.9994 16.1318C13.3046 16.1328 12.9955 16.2036 12.3801 16.5028C11.4441 16.9581 10.7668 17.7748 10.4707 18.8055C10.3194 19.3323 10.3185 20.1948 10.4688 20.7174C10.8201 21.9393 11.7252 22.8791 12.9199 23.2624C13.2776 23.3773 13.4159 23.4869 13.5086 23.7296C13.6107 23.9973 13.5708 24.2211 13.3826 24.4354C13.0974 24.7602 12.7066 24.7429 11.9109 24.37C10.4414 23.6814 9.40755 22.3885 9.03667 20.7757C8.98377 20.5457 8.96115 20.2248 8.96199 19.7181C8.96307 19.0861 8.97926 18.9303 9.08524 18.5317C9.4764 17.0605 10.4484 15.8763 11.8113 15.2107C12.2719 14.9858 13.0693 14.743 13.3476 14.743C13.4283 14.743 13.5378 14.6916 13.6229 14.6139C13.7435 14.5037 13.7924 14.3786 13.9578 13.7573C14.1712 12.9555 14.2062 12.8656 14.3043 12.8656C14.3842 12.8656 17.1338 13.6046 17.1953 13.6427C17.2687 13.688 17.2422 13.8538 17.0494 14.555C16.9466 14.9291 16.8624 15.2981 16.8624 15.3748C16.8624 15.4906 16.9394 15.5862 17.3158 15.9383C18.238 16.8007 18.7421 17.6806 18.9756 18.8352C19.0931 19.4162 19.1914 19.5517 19.4956 19.5517C19.6535 19.5517 19.7126 19.5243 19.8242 19.3994C19.9827 19.222 19.9911 19.1148 19.8864 18.6014C19.6459 17.4218 19.0782 16.367 18.2297 15.5235L17.8595 15.1555L18.0179 14.562C18.2424 13.7205 18.2227 13.4234 17.9183 13.0616C17.7332 12.8416 17.5407 12.7454 17.0033 12.6041C16.7322 12.5328 16.5042 12.47 16.4966 12.4645C16.489 12.459 16.5439 12.2252 16.6186 11.9447L16.7545 11.4349L17.0845 11.4502C17.3469 11.4623 17.5477 11.4306 18.0654 11.2953C18.4235 11.2018 18.8085 11.0907 18.9211 11.0483C19.1172 10.9746 19.1277 10.9752 19.1741 11.0619C19.2882 11.2751 19.7031 11.599 20.2915 11.9345C20.9832 12.3288 21.1671 12.3955 21.5621 12.3959L21.8265 12.3962L21.882 12.6191C21.972 12.9797 22.1226 13.1837 22.7601 13.8081C23.2073 14.2461 23.4194 14.42 23.5817 14.4817L23.8005 14.5648L23.8003 14.9238C23.8001 15.3439 24.1103 16.5562 24.3015 16.8824C24.5054 17.2303 24.882 17.497 25.328 17.6093L25.5455 17.6641V17.9871V18.31H24.9906C24.3241 18.31 24.0788 18.3797 23.8144 18.6441C23.5404 18.9181 23.4803 19.1464 23.4803 19.9132V20.561L23.2808 20.6617C22.5228 21.0444 21.6471 21.8043 21.1339 22.5246C20.0256 24.0803 19.7179 26.0826 20.3125 27.8694C20.6086 28.7591 21.0484 29.4836 21.7056 30.1644C23.7488 32.2807 26.9345 32.614 29.3941 30.9688C29.8464 30.6662 30.6736 29.839 30.9762 29.3867C31.423 28.7186 31.7394 27.9711 31.9098 27.1808C32.0301 26.6229 32.0301 25.3918 31.9098 24.834C31.645 23.6055 31.0665 22.5629 30.1668 21.6925C29.7536 21.2927 29.1963 20.8877 28.7488 20.6617L28.5493 20.561V19.9132C28.5493 19.1464 28.4892 18.9181 28.2152 18.6441C27.9508 18.3797 27.7055 18.31 27.039 18.31H26.4842V17.8759L26.4842 17.4417L26.7075 17.2494C27.1163 16.8974 27.3284 16.3165 27.2331 15.8097C27.1388 15.3082 26.8508 14.3377 26.7405 14.1492C26.593 13.8973 26.2475 13.5945 25.9992 13.4997L25.8036 13.425L25.8023 13.0397C25.8003 12.457 25.6792 12.2348 24.9764 11.5239C24.6652 11.2091 24.3121 10.8982 24.1918 10.8331C23.9406 10.6971 23.4794 10.5998 23.2708 10.6389C23.1319 10.6649 23.1268 10.6595 23.0695 10.4177C23.0004 10.1263 22.7507 9.73033 22.5321 9.56535C22.2302 9.33757 21.2002 8.77708 20.949 8.704C20.6427 8.61482 20.2368 8.64462 19.9341 8.77853L19.729 8.86926L19.6323 8.71291C19.3754 8.29721 18.9149 8.03489 18.3878 8.00405C18.1089 7.98772 17.9482 8.01536 17.323 8.18724ZM18.6865 9.05174C18.7546 9.10243 18.8511 9.24201 18.9011 9.36198C18.9909 9.57765 18.9909 9.58253 18.9011 9.7982C18.8511 9.91816 18.7575 10.0548 18.6929 10.1018C18.5571 10.2007 17.4136 10.5188 17.1938 10.5188C16.5733 10.5188 16.338 9.6129 16.8826 9.32073C16.9619 9.2782 17.2802 9.17213 17.5899 9.08492C18.2125 8.90971 18.4848 8.9015 18.6865 9.05174ZM21.3881 9.96195C22.0509 10.3462 22.1662 10.4713 22.1659 10.8059C22.1656 11.1858 21.8893 11.4575 21.5032 11.4575C21.2915 11.4575 20.1163 10.7787 20 10.5892C19.8663 10.3714 19.8842 10.0442 20.04 9.85907C20.2022 9.66631 20.4081 9.57389 20.6225 9.5976C20.722 9.60863 21.0379 9.75896 21.3881 9.96195ZM23.7619 11.6711C23.982 11.783 24.7773 12.6423 24.8404 12.8364C24.9975 13.3194 24.5319 13.7726 24.0126 13.6423C23.8475 13.6008 22.9285 12.7074 22.841 12.5033C22.5808 11.8962 23.1655 11.3678 23.7619 11.6711ZM15.0753 14.27C14.8953 14.45 14.8852 14.7231 15.0514 14.9163C15.1454 15.0257 15.2019 15.048 15.384 15.048C15.5661 15.048 15.6226 15.0257 15.7166 14.9163C15.9752 14.6157 15.7702 14.1328 15.384 14.1328C15.257 14.1328 15.1769 14.1684 15.0753 14.27ZM25.7192 14.4125C25.9213 14.5357 25.981 14.6662 26.1697 15.3975C26.3383 16.0507 26.3411 16.2154 26.1873 16.4501C26.1013 16.5815 25.8375 16.7142 25.6628 16.7142C25.4694 16.7142 25.2285 16.58 25.1276 16.4159C25.0776 16.3348 24.9611 15.9751 24.8686 15.6167C24.7281 15.0727 24.708 14.9366 24.7469 14.7923C24.856 14.3873 25.3569 14.1916 25.7192 14.4125ZM14.5673 17.1101C15.878 17.3879 16.8174 18.654 16.7045 19.9906C16.5429 21.9017 14.5223 23.0372 12.7821 22.1946C12.3573 21.9889 11.7789 21.4068 11.5674 20.9721C11.0576 19.9246 11.2391 18.7517 12.0418 17.9041C12.4581 17.4645 12.9304 17.2128 13.6005 17.0732C13.8071 17.0302 14.2744 17.048 14.5673 17.1101ZM27.5543 19.3051C27.5938 19.3446 27.6106 19.6073 27.6106 20.1864C27.6106 20.8616 27.624 21.0306 27.6846 21.117C27.7253 21.1751 27.9523 21.3197 28.1892 21.4384C28.8067 21.7478 29.25 22.0695 29.6687 22.5118C30.2578 23.1342 30.6465 23.799 30.8676 24.5627C31.4572 26.5994 30.7424 28.7802 29.07 30.0471C28.7764 30.2695 27.8061 30.7948 27.6889 30.7948C27.6512 30.7948 27.6341 30.6661 27.6341 30.3841C27.6341 30.0337 27.615 29.9328 27.5043 29.6964C27.433 29.544 27.3801 29.4146 27.387 29.4087C27.3938 29.4028 27.5156 29.3402 27.6575 29.2694C28.5594 28.8201 29.2583 27.9664 29.5424 26.9669C29.6801 26.4824 29.6933 25.5796 29.5693 25.1156C29.4548 24.6867 29.1121 24.0157 28.8404 23.6888C28.5075 23.2881 28.1157 22.9809 27.6341 22.743C27.0284 22.4437 26.7152 22.372 26.0148 22.372C25.3151 22.372 25.0022 22.4436 24.3955 22.7424C23.6341 23.1174 23.0925 23.6658 22.7236 24.4351C22.4497 25.0064 22.3794 25.3274 22.3794 26.0074C22.3794 26.7071 22.451 27.02 22.7498 27.6267C23.1249 28.3883 23.6736 28.9301 24.4425 29.2983C24.9098 29.5221 25.2674 29.617 25.7801 29.6533C26.2759 29.6883 26.4952 29.7895 26.6244 30.0426C26.7975 30.382 26.708 30.7088 26.3745 30.9547C26.259 31.0399 26.1812 31.0519 25.7878 31.0456C23.6603 31.0112 21.6736 29.4025 21.1022 27.2512C20.9913 26.8335 20.9776 26.6965 20.9776 26.0074C20.9776 25.3199 20.9914 25.1811 21.1008 24.7713C21.3449 23.8568 21.8927 22.9319 22.5565 22.3134C22.9485 21.9481 23.2916 21.7144 23.8404 21.4389C24.0773 21.3199 24.3043 21.1751 24.345 21.117C24.4056 21.0306 24.419 20.8616 24.419 20.1864C24.419 19.6073 24.4358 19.3446 24.4753 19.3051C24.5559 19.2245 27.4737 19.2245 27.5543 19.3051ZM25.7853 20.253C25.3784 20.4785 25.5486 21.1261 26.0148 21.1261C26.2526 21.1261 26.4842 20.8969 26.4842 20.6613C26.4842 20.3089 26.0947 20.0814 25.7853 20.253ZM19.046 20.8563C18.7813 21.0862 18.8575 21.4849 19.193 21.625C19.3415 21.6871 19.3738 21.6856 19.5296 21.6094C19.9866 21.386 19.851 20.7507 19.3463 20.7507C19.2282 20.7507 19.1263 20.7865 19.046 20.8563ZM26.5827 23.3525C27.1068 23.4636 27.4938 23.6818 27.9171 24.1051C28.3404 24.5284 28.5586 24.9154 28.6697 25.4395C28.8671 26.3706 28.609 27.2178 27.9171 27.9097C27.2252 28.6016 26.378 28.8597 25.4469 28.6623C24.9228 28.5512 24.5358 28.333 24.1125 27.9097C23.6892 27.4864 23.471 27.0994 23.3599 26.5753C23.1625 25.6442 23.4206 24.797 24.1125 24.1051C24.8046 23.4131 25.6513 23.155 26.5827 23.3525Z"/>
</mask>
<path fill-rule="evenodd" clip-rule="evenodd" d="M17.323 8.18724C16.485 8.41755 16.2218 8.5554 15.96 8.90103C15.7055 9.23685 15.6267 9.51044 15.651 9.97336C15.6671 10.2802 15.6974 10.404 15.8042 10.6003L15.9373 10.8449L15.759 11.5267C15.6609 11.9016 15.5681 12.2083 15.5527 12.2082C15.5374 12.208 15.2925 12.1448 15.0085 12.0677C14.7246 11.9905 14.4077 11.9277 14.3045 11.9282C13.9538 11.9296 13.5197 12.1969 13.3542 12.5135C13.3137 12.591 13.2108 12.9157 13.1256 13.2352C13.0404 13.5547 12.9645 13.8217 12.957 13.8286C12.9495 13.8355 12.7333 13.8969 12.4765 13.9649C10.1646 14.5773 8.41478 16.529 8.06487 18.8852C7.64363 21.7221 9.30936 24.4743 12.0281 25.4333C12.7334 25.6821 13.143 25.7473 13.9994 25.7473C14.8558 25.7473 15.2654 25.6821 15.9707 25.4333C17.0288 25.0601 18.0304 24.3524 18.7005 23.5047C18.9658 23.169 18.9448 22.853 18.6469 22.6989C18.3671 22.5542 18.301 22.5887 17.7149 23.1848C17.4138 23.491 17.0408 23.826 16.8859 23.9294C16.178 24.4017 15.4224 24.6777 14.4831 24.8072L14.2862 24.8343L14.3852 24.6112C14.4915 24.3718 14.5239 23.8803 14.4549 23.555C14.4202 23.3912 14.4252 23.379 14.5272 23.379C14.942 23.379 15.8655 22.9674 16.3494 22.5667C16.8931 22.1166 17.3588 21.3774 17.5527 20.6568C17.6779 20.1918 17.6667 19.288 17.5301 18.8127C17.1642 17.5405 16.2227 16.5974 14.9589 16.2372C14.6601 16.152 14.4697 16.1311 13.9994 16.1318C13.3046 16.1328 12.9955 16.2036 12.3801 16.5028C11.4441 16.9581 10.7668 17.7748 10.4707 18.8055C10.3194 19.3323 10.3185 20.1948 10.4688 20.7174C10.8201 21.9393 11.7252 22.8791 12.9199 23.2624C13.2776 23.3773 13.4159 23.4869 13.5086 23.7296C13.6107 23.9973 13.5708 24.2211 13.3826 24.4354C13.0974 24.7602 12.7066 24.7429 11.9109 24.37C10.4414 23.6814 9.40755 22.3885 9.03667 20.7757C8.98377 20.5457 8.96115 20.2248 8.96199 19.7181C8.96307 19.0861 8.97926 18.9303 9.08524 18.5317C9.4764 17.0605 10.4484 15.8763 11.8113 15.2107C12.2719 14.9858 13.0693 14.743 13.3476 14.743C13.4283 14.743 13.5378 14.6916 13.6229 14.6139C13.7435 14.5037 13.7924 14.3786 13.9578 13.7573C14.1712 12.9555 14.2062 12.8656 14.3043 12.8656C14.3842 12.8656 17.1338 13.6046 17.1953 13.6427C17.2687 13.688 17.2422 13.8538 17.0494 14.555C16.9466 14.9291 16.8624 15.2981 16.8624 15.3748C16.8624 15.4906 16.9394 15.5862 17.3158 15.9383C18.238 16.8007 18.7421 17.6806 18.9756 18.8352C19.0931 19.4162 19.1914 19.5517 19.4956 19.5517C19.6535 19.5517 19.7126 19.5243 19.8242 19.3994C19.9827 19.222 19.9911 19.1148 19.8864 18.6014C19.6459 17.4218 19.0782 16.367 18.2297 15.5235L17.8595 15.1555L18.0179 14.562C18.2424 13.7205 18.2227 13.4234 17.9183 13.0616C17.7332 12.8416 17.5407 12.7454 17.0033 12.6041C16.7322 12.5328 16.5042 12.47 16.4966 12.4645C16.489 12.459 16.5439 12.2252 16.6186 11.9447L16.7545 11.4349L17.0845 11.4502C17.3469 11.4623 17.5477 11.4306 18.0654 11.2953C18.4235 11.2018 18.8085 11.0907 18.9211 11.0483C19.1172 10.9746 19.1277 10.9752 19.1741 11.0619C19.2882 11.2751 19.7031 11.599 20.2915 11.9345C20.9832 12.3288 21.1671 12.3955 21.5621 12.3959L21.8265 12.3962L21.882 12.6191C21.972 12.9797 22.1226 13.1837 22.7601 13.8081C23.2073 14.2461 23.4194 14.42 23.5817 14.4817L23.8005 14.5648L23.8003 14.9238C23.8001 15.3439 24.1103 16.5562 24.3015 16.8824C24.5054 17.2303 24.882 17.497 25.328 17.6093L25.5455 17.6641V17.9871V18.31H24.9906C24.3241 18.31 24.0788 18.3797 23.8144 18.6441C23.5404 18.9181 23.4803 19.1464 23.4803 19.9132V20.561L23.2808 20.6617C22.5228 21.0444 21.6471 21.8043 21.1339 22.5246C20.0256 24.0803 19.7179 26.0826 20.3125 27.8694C20.6086 28.7591 21.0484 29.4836 21.7056 30.1644C23.7488 32.2807 26.9345 32.614 29.3941 30.9688C29.8464 30.6662 30.6736 29.839 30.9762 29.3867C31.423 28.7186 31.7394 27.9711 31.9098 27.1808C32.0301 26.6229 32.0301 25.3918 31.9098 24.834C31.645 23.6055 31.0665 22.5629 30.1668 21.6925C29.7536 21.2927 29.1963 20.8877 28.7488 20.6617L28.5493 20.561V19.9132C28.5493 19.1464 28.4892 18.9181 28.2152 18.6441C27.9508 18.3797 27.7055 18.31 27.039 18.31H26.4842V17.8759L26.4842 17.4417L26.7075 17.2494C27.1163 16.8974 27.3284 16.3165 27.2331 15.8097C27.1388 15.3082 26.8508 14.3377 26.7405 14.1492C26.593 13.8973 26.2475 13.5945 25.9992 13.4997L25.8036 13.425L25.8023 13.0397C25.8003 12.457 25.6792 12.2348 24.9764 11.5239C24.6652 11.2091 24.3121 10.8982 24.1918 10.8331C23.9406 10.6971 23.4794 10.5998 23.2708 10.6389C23.1319 10.6649 23.1268 10.6595 23.0695 10.4177C23.0004 10.1263 22.7507 9.73033 22.5321 9.56535C22.2302 9.33757 21.2002 8.77708 20.949 8.704C20.6427 8.61482 20.2368 8.64462 19.9341 8.77853L19.729 8.86926L19.6323 8.71291C19.3754 8.29721 18.9149 8.03489 18.3878 8.00405C18.1089 7.98772 17.9482 8.01536 17.323 8.18724ZM18.6865 9.05174C18.7546 9.10243 18.8511 9.24201 18.9011 9.36198C18.9909 9.57765 18.9909 9.58253 18.9011 9.7982C18.8511 9.91816 18.7575 10.0548 18.6929 10.1018C18.5571 10.2007 17.4136 10.5188 17.1938 10.5188C16.5733 10.5188 16.338 9.6129 16.8826 9.32073C16.9619 9.2782 17.2802 9.17213 17.5899 9.08492C18.2125 8.90971 18.4848 8.9015 18.6865 9.05174ZM21.3881 9.96195C22.0509 10.3462 22.1662 10.4713 22.1659 10.8059C22.1656 11.1858 21.8893 11.4575 21.5032 11.4575C21.2915 11.4575 20.1163 10.7787 20 10.5892C19.8663 10.3714 19.8842 10.0442 20.04 9.85907C20.2022 9.66631 20.4081 9.57389 20.6225 9.5976C20.722 9.60863 21.0379 9.75896 21.3881 9.96195ZM23.7619 11.6711C23.982 11.783 24.7773 12.6423 24.8404 12.8364C24.9975 13.3194 24.5319 13.7726 24.0126 13.6423C23.8475 13.6008 22.9285 12.7074 22.841 12.5033C22.5808 11.8962 23.1655 11.3678 23.7619 11.6711ZM15.0753 14.27C14.8953 14.45 14.8852 14.7231 15.0514 14.9163C15.1454 15.0257 15.2019 15.048 15.384 15.048C15.5661 15.048 15.6226 15.0257 15.7166 14.9163C15.9752 14.6157 15.7702 14.1328 15.384 14.1328C15.257 14.1328 15.1769 14.1684 15.0753 14.27ZM25.7192 14.4125C25.9213 14.5357 25.981 14.6662 26.1697 15.3975C26.3383 16.0507 26.3411 16.2154 26.1873 16.4501C26.1013 16.5815 25.8375 16.7142 25.6628 16.7142C25.4694 16.7142 25.2285 16.58 25.1276 16.4159C25.0776 16.3348 24.9611 15.9751 24.8686 15.6167C24.7281 15.0727 24.708 14.9366 24.7469 14.7923C24.856 14.3873 25.3569 14.1916 25.7192 14.4125ZM14.5673 17.1101C15.878 17.3879 16.8174 18.654 16.7045 19.9906C16.5429 21.9017 14.5223 23.0372 12.7821 22.1946C12.3573 21.9889 11.7789 21.4068 11.5674 20.9721C11.0576 19.9246 11.2391 18.7517 12.0418 17.9041C12.4581 17.4645 12.9304 17.2128 13.6005 17.0732C13.8071 17.0302 14.2744 17.048 14.5673 17.1101ZM27.5543 19.3051C27.5938 19.3446 27.6106 19.6073 27.6106 20.1864C27.6106 20.8616 27.624 21.0306 27.6846 21.117C27.7253 21.1751 27.9523 21.3197 28.1892 21.4384C28.8067 21.7478 29.25 22.0695 29.6687 22.5118C30.2578 23.1342 30.6465 23.799 30.8676 24.5627C31.4572 26.5994 30.7424 28.7802 29.07 30.0471C28.7764 30.2695 27.8061 30.7948 27.6889 30.7948C27.6512 30.7948 27.6341 30.6661 27.6341 30.3841C27.6341 30.0337 27.615 29.9328 27.5043 29.6964C27.433 29.544 27.3801 29.4146 27.387 29.4087C27.3938 29.4028 27.5156 29.3402 27.6575 29.2694C28.5594 28.8201 29.2583 27.9664 29.5424 26.9669C29.6801 26.4824 29.6933 25.5796 29.5693 25.1156C29.4548 24.6867 29.1121 24.0157 28.8404 23.6888C28.5075 23.2881 28.1157 22.9809 27.6341 22.743C27.0284 22.4437 26.7152 22.372 26.0148 22.372C25.3151 22.372 25.0022 22.4436 24.3955 22.7424C23.6341 23.1174 23.0925 23.6658 22.7236 24.4351C22.4497 25.0064 22.3794 25.3274 22.3794 26.0074C22.3794 26.7071 22.451 27.02 22.7498 27.6267C23.1249 28.3883 23.6736 28.9301 24.4425 29.2983C24.9098 29.5221 25.2674 29.617 25.7801 29.6533C26.2759 29.6883 26.4952 29.7895 26.6244 30.0426C26.7975 30.382 26.708 30.7088 26.3745 30.9547C26.259 31.0399 26.1812 31.0519 25.7878 31.0456C23.6603 31.0112 21.6736 29.4025 21.1022 27.2512C20.9913 26.8335 20.9776 26.6965 20.9776 26.0074C20.9776 25.3199 20.9914 25.1811 21.1008 24.7713C21.3449 23.8568 21.8927 22.9319 22.5565 22.3134C22.9485 21.9481 23.2916 21.7144 23.8404 21.4389C24.0773 21.3199 24.3043 21.1751 24.345 21.117C24.4056 21.0306 24.419 20.8616 24.419 20.1864C24.419 19.6073 24.4358 19.3446 24.4753 19.3051C24.5559 19.2245 27.4737 19.2245 27.5543 19.3051ZM25.7853 20.253C25.3784 20.4785 25.5486 21.1261 26.0148 21.1261C26.2526 21.1261 26.4842 20.8969 26.4842 20.6613C26.4842 20.3089 26.0947 20.0814 25.7853 20.253ZM19.046 20.8563C18.7813 21.0862 18.8575 21.4849 19.193 21.625C19.3415 21.6871 19.3738 21.6856 19.5296 21.6094C19.9866 21.386 19.851 20.7507 19.3463 20.7507C19.2282 20.7507 19.1263 20.7865 19.046 20.8563ZM26.5827 23.3525C27.1068 23.4636 27.4938 23.6818 27.9171 24.1051C28.3404 24.5284 28.5586 24.9154 28.6697 25.4395C28.8671 26.3706 28.609 27.2178 27.9171 27.9097C27.2252 28.6016 26.378 28.8597 25.4469 28.6623C24.9228 28.5512 24.5358 28.333 24.1125 27.9097C23.6892 27.4864 23.471 27.0994 23.3599 26.5753C23.1625 25.6442 23.4206 24.797 24.1125 24.1051C24.8046 23.4131 25.6513 23.155 26.5827 23.3525Z" fill="#4E86F8"/>
<path fill-rule="evenodd" clip-rule="evenodd" d="M17.323 8.18724C16.485 8.41755 16.2218 8.5554 15.96 8.90103C15.7055 9.23685 15.6267 9.51044 15.651 9.97336C15.6671 10.2802 15.6974 10.404 15.8042 10.6003L15.9373 10.8449L15.759 11.5267C15.6609 11.9016 15.5681 12.2083 15.5527 12.2082C15.5374 12.208 15.2925 12.1448 15.0085 12.0677C14.7246 11.9905 14.4077 11.9277 14.3045 11.9282C13.9538 11.9296 13.5197 12.1969 13.3542 12.5135C13.3137 12.591 13.2108 12.9157 13.1256 13.2352C13.0404 13.5547 12.9645 13.8217 12.957 13.8286C12.9495 13.8355 12.7333 13.8969 12.4765 13.9649C10.1646 14.5773 8.41478 16.529 8.06487 18.8852C7.64363 21.7221 9.30936 24.4743 12.0281 25.4333C12.7334 25.6821 13.143 25.7473 13.9994 25.7473C14.8558 25.7473 15.2654 25.6821 15.9707 25.4333C17.0288 25.0601 18.0304 24.3524 18.7005 23.5047C18.9658 23.169 18.9448 22.853 18.6469 22.6989C18.3671 22.5542 18.301 22.5887 17.7149 23.1848C17.4138 23.491 17.0408 23.826 16.8859 23.9294C16.178 24.4017 15.4224 24.6777 14.4831 24.8072L14.2862 24.8343L14.3852 24.6112C14.4915 24.3718 14.5239 23.8803 14.4549 23.555C14.4202 23.3912 14.4252 23.379 14.5272 23.379C14.942 23.379 15.8655 22.9674 16.3494 22.5667C16.8931 22.1166 17.3588 21.3774 17.5527 20.6568C17.6779 20.1918 17.6667 19.288 17.5301 18.8127C17.1642 17.5405 16.2227 16.5974 14.9589 16.2372C14.6601 16.152 14.4697 16.1311 13.9994 16.1318C13.3046 16.1328 12.9955 16.2036 12.3801 16.5028C11.4441 16.9581 10.7668 17.7748 10.4707 18.8055C10.3194 19.3323 10.3185 20.1948 10.4688 20.7174C10.8201 21.9393 11.7252 22.8791 12.9199 23.2624C13.2776 23.3773 13.4159 23.4869 13.5086 23.7296C13.6107 23.9973 13.5708 24.2211 13.3826 24.4354C13.0974 24.7602 12.7066 24.7429 11.9109 24.37C10.4414 23.6814 9.40755 22.3885 9.03667 20.7757C8.98377 20.5457 8.96115 20.2248 8.96199 19.7181C8.96307 19.0861 8.97926 18.9303 9.08524 18.5317C9.4764 17.0605 10.4484 15.8763 11.8113 15.2107C12.2719 14.9858 13.0693 14.743 13.3476 14.743C13.4283 14.743 13.5378 14.6916 13.6229 14.6139C13.7435 14.5037 13.7924 14.3786 13.9578 13.7573C14.1712 12.9555 14.2062 12.8656 14.3043 12.8656C14.3842 12.8656 17.1338 13.6046 17.1953 13.6427C17.2687 13.688 17.2422 13.8538 17.0494 14.555C16.9466 14.9291 16.8624 15.2981 16.8624 15.3748C16.8624 15.4906 16.9394 15.5862 17.3158 15.9383C18.238 16.8007 18.7421 17.6806 18.9756 18.8352C19.0931 19.4162 19.1914 19.5517 19.4956 19.5517C19.6535 19.5517 19.7126 19.5243 19.8242 19.3994C19.9827 19.222 19.9911 19.1148 19.8864 18.6014C19.6459 17.4218 19.0782 16.367 18.2297 15.5235L17.8595 15.1555L18.0179 14.562C18.2424 13.7205 18.2227 13.4234 17.9183 13.0616C17.7332 12.8416 17.5407 12.7454 17.0033 12.6041C16.7322 12.5328 16.5042 12.47 16.4966 12.4645C16.489 12.459 16.5439 12.2252 16.6186 11.9447L16.7545 11.4349L17.0845 11.4502C17.3469 11.4623 17.5477 11.4306 18.0654 11.2953C18.4235 11.2018 18.8085 11.0907 18.9211 11.0483C19.1172 10.9746 19.1277 10.9752 19.1741 11.0619C19.2882 11.2751 19.7031 11.599 20.2915 11.9345C20.9832 12.3288 21.1671 12.3955 21.5621 12.3959L21.8265 12.3962L21.882 12.6191C21.972 12.9797 22.1226 13.1837 22.7601 13.8081C23.2073 14.2461 23.4194 14.42 23.5817 14.4817L23.8005 14.5648L23.8003 14.9238C23.8001 15.3439 24.1103 16.5562 24.3015 16.8824C24.5054 17.2303 24.882 17.497 25.328 17.6093L25.5455 17.6641V17.9871V18.31H24.9906C24.3241 18.31 24.0788 18.3797 23.8144 18.6441C23.5404 18.9181 23.4803 19.1464 23.4803 19.9132V20.561L23.2808 20.6617C22.5228 21.0444 21.6471 21.8043 21.1339 22.5246C20.0256 24.0803 19.7179 26.0826 20.3125 27.8694C20.6086 28.7591 21.0484 29.4836 21.7056 30.1644C23.7488 32.2807 26.9345 32.614 29.3941 30.9688C29.8464 30.6662 30.6736 29.839 30.9762 29.3867C31.423 28.7186 31.7394 27.9711 31.9098 27.1808C32.0301 26.6229 32.0301 25.3918 31.9098 24.834C31.645 23.6055 31.0665 22.5629 30.1668 21.6925C29.7536 21.2927 29.1963 20.8877 28.7488 20.6617L28.5493 20.561V19.9132C28.5493 19.1464 28.4892 18.9181 28.2152 18.6441C27.9508 18.3797 27.7055 18.31 27.039 18.31H26.4842V17.8759L26.4842 17.4417L26.7075 17.2494C27.1163 16.8974 27.3284 16.3165 27.2331 15.8097C27.1388 15.3082 26.8508 14.3377 26.7405 14.1492C26.593 13.8973 26.2475 13.5945 25.9992 13.4997L25.8036 13.425L25.8023 13.0397C25.8003 12.457 25.6792 12.2348 24.9764 11.5239C24.6652 11.2091 24.3121 10.8982 24.1918 10.8331C23.9406 10.6971 23.4794 10.5998 23.2708 10.6389C23.1319 10.6649 23.1268 10.6595 23.0695 10.4177C23.0004 10.1263 22.7507 9.73033 22.5321 9.56535C22.2302 9.33757 21.2002 8.77708 20.949 8.704C20.6427 8.61482 20.2368 8.64462 19.9341 8.77853L19.729 8.86926L19.6323 8.71291C19.3754 8.29721 18.9149 8.03489 18.3878 8.00405C18.1089 7.98772 17.9482 8.01536 17.323 8.18724ZM18.6865 9.05174C18.7546 9.10243 18.8511 9.24201 18.9011 9.36198C18.9909 9.57765 18.9909 9.58253 18.9011 9.7982C18.8511 9.91816 18.7575 10.0548 18.6929 10.1018C18.5571 10.2007 17.4136 10.5188 17.1938 10.5188C16.5733 10.5188 16.338 9.6129 16.8826 9.32073C16.9619 9.2782 17.2802 9.17213 17.5899 9.08492C18.2125 8.90971 18.4848 8.9015 18.6865 9.05174ZM21.3881 9.96195C22.0509 10.3462 22.1662 10.4713 22.1659 10.8059C22.1656 11.1858 21.8893 11.4575 21.5032 11.4575C21.2915 11.4575 20.1163 10.7787 20 10.5892C19.8663 10.3714 19.8842 10.0442 20.04 9.85907C20.2022 9.66631 20.4081 9.57389 20.6225 9.5976C20.722 9.60863 21.0379 9.75896 21.3881 9.96195ZM23.7619 11.6711C23.982 11.783 24.7773 12.6423 24.8404 12.8364C24.9975 13.3194 24.5319 13.7726 24.0126 13.6423C23.8475 13.6008 22.9285 12.7074 22.841 12.5033C22.5808 11.8962 23.1655 11.3678 23.7619 11.6711ZM15.0753 14.27C14.8953 14.45 14.8852 14.7231 15.0514 14.9163C15.1454 15.0257 15.2019 15.048 15.384 15.048C15.5661 15.048 15.6226 15.0257 15.7166 14.9163C15.9752 14.6157 15.7702 14.1328 15.384 14.1328C15.257 14.1328 15.1769 14.1684 15.0753 14.27ZM25.7192 14.4125C25.9213 14.5357 25.981 14.6662 26.1697 15.3975C26.3383 16.0507 26.3411 16.2154 26.1873 16.4501C26.1013 16.5815 25.8375 16.7142 25.6628 16.7142C25.4694 16.7142 25.2285 16.58 25.1276 16.4159C25.0776 16.3348 24.9611 15.9751 24.8686 15.6167C24.7281 15.0727 24.708 14.9366 24.7469 14.7923C24.856 14.3873 25.3569 14.1916 25.7192 14.4125ZM14.5673 17.1101C15.878 17.3879 16.8174 18.654 16.7045 19.9906C16.5429 21.9017 14.5223 23.0372 12.7821 22.1946C12.3573 21.9889 11.7789 21.4068 11.5674 20.9721C11.0576 19.9246 11.2391 18.7517 12.0418 17.9041C12.4581 17.4645 12.9304 17.2128 13.6005 17.0732C13.8071 17.0302 14.2744 17.048 14.5673 17.1101ZM27.5543 19.3051C27.5938 19.3446 27.6106 19.6073 27.6106 20.1864C27.6106 20.8616 27.624 21.0306 27.6846 21.117C27.7253 21.1751 27.9523 21.3197 28.1892 21.4384C28.8067 21.7478 29.25 22.0695 29.6687 22.5118C30.2578 23.1342 30.6465 23.799 30.8676 24.5627C31.4572 26.5994 30.7424 28.7802 29.07 30.0471C28.7764 30.2695 27.8061 30.7948 27.6889 30.7948C27.6512 30.7948 27.6341 30.6661 27.6341 30.3841C27.6341 30.0337 27.615 29.9328 27.5043 29.6964C27.433 29.544 27.3801 29.4146 27.387 29.4087C27.3938 29.4028 27.5156 29.3402 27.6575 29.2694C28.5594 28.8201 29.2583 27.9664 29.5424 26.9669C29.6801 26.4824 29.6933 25.5796 29.5693 25.1156C29.4548 24.6867 29.1121 24.0157 28.8404 23.6888C28.5075 23.2881 28.1157 22.9809 27.6341 22.743C27.0284 22.4437 26.7152 22.372 26.0148 22.372C25.3151 22.372 25.0022 22.4436 24.3955 22.7424C23.6341 23.1174 23.0925 23.6658 22.7236 24.4351C22.4497 25.0064 22.3794 25.3274 22.3794 26.0074C22.3794 26.7071 22.451 27.02 22.7498 27.6267C23.1249 28.3883 23.6736 28.9301 24.4425 29.2983C24.9098 29.5221 25.2674 29.617 25.7801 29.6533C26.2759 29.6883 26.4952 29.7895 26.6244 30.0426C26.7975 30.382 26.708 30.7088 26.3745 30.9547C26.259 31.0399 26.1812 31.0519 25.7878 31.0456C23.6603 31.0112 21.6736 29.4025 21.1022 27.2512C20.9913 26.8335 20.9776 26.6965 20.9776 26.0074C20.9776 25.3199 20.9914 25.1811 21.1008 24.7713C21.3449 23.8568 21.8927 22.9319 22.5565 22.3134C22.9485 21.9481 23.2916 21.7144 23.8404 21.4389C24.0773 21.3199 24.3043 21.1751 24.345 21.117C24.4056 21.0306 24.419 20.8616 24.419 20.1864C24.419 19.6073 24.4358 19.3446 24.4753 19.3051C24.5559 19.2245 27.4737 19.2245 27.5543 19.3051ZM25.7853 20.253C25.3784 20.4785 25.5486 21.1261 26.0148 21.1261C26.2526 21.1261 26.4842 20.8969 26.4842 20.6613C26.4842 20.3089 26.0947 20.0814 25.7853 20.253ZM19.046 20.8563C18.7813 21.0862 18.8575 21.4849 19.193 21.625C19.3415 21.6871 19.3738 21.6856 19.5296 21.6094C19.9866 21.386 19.851 20.7507 19.3463 20.7507C19.2282 20.7507 19.1263 20.7865 19.046 20.8563ZM26.5827 23.3525C27.1068 23.4636 27.4938 23.6818 27.9171 24.1051C28.3404 24.5284 28.5586 24.9154 28.6697 25.4395C28.8671 26.3706 28.609 27.2178 27.9171 27.9097C27.2252 28.6016 26.378 28.8597 25.4469 28.6623C24.9228 28.5512 24.5358 28.333 24.1125 27.9097C23.6892 27.4864 23.471 27.0994 23.3599 26.5753C23.1625 25.6442 23.4206 24.797 24.1125 24.1051C24.8046 23.4131 25.6513 23.155 26.5827 23.3525Z" stroke="#4E86F8" stroke-width="0.4" mask="url(#path-2-outside-1_0_188)"/>
</svg>
