<svg width="40" height="40" viewBox="0 0 40 40" fill="none" xmlns="http://www.w3.org/2000/svg">
<circle cx="20" cy="20" r="19.5" stroke="white"/>
<path fill-rule="evenodd" clip-rule="evenodd" d="M16.688 11.0176C15.0837 11.1544 13.6243 12.084 12.8012 13.4935C12.5932 13.8495 12.395 14.3437 12.274 14.8077C12.1413 15.3168 12.1068 16.2602 12.2011 16.8007C12.3722 17.7814 12.817 18.6796 13.4936 19.4104C13.6332 19.5612 13.7475 19.6928 13.7475 19.7028C13.7475 19.7128 13.6099 19.801 13.4417 19.8987C11.8267 20.8371 10.5964 22.5424 10.1769 24.424C10.0207 25.1248 9.98911 25.6043 10.0029 27.0649L10.0155 28.3998L10.1369 28.5499C10.2036 28.6325 10.3179 28.7352 10.3909 28.7782C10.5225 28.8557 10.5938 28.8563 20 28.8563C29.4062 28.8563 29.4775 28.8557 29.6091 28.7782C29.6821 28.7352 29.7964 28.6325 29.8631 28.5499L29.9845 28.3998L29.9971 27.0649C30.0109 25.6043 29.9793 25.1248 29.8231 24.424C29.4036 22.5424 28.1733 20.8371 26.5583 19.8987C26.3901 19.801 26.2525 19.7124 26.2525 19.7019C26.2525 19.6915 26.3536 19.5748 26.4772 19.4426C27.1232 18.752 27.5601 17.9272 27.7631 17.0156C27.8572 16.5928 27.8754 15.6496 27.7985 15.1806C27.3813 12.6349 25.0862 10.8288 22.5126 11.0209C21.6742 11.0835 20.8137 11.3672 20.1961 11.7848C20.1213 11.8354 20.0389 11.8768 20.0131 11.8768C19.9873 11.8768 19.8221 11.7893 19.6461 11.6824C18.81 11.1746 17.72 10.9296 16.688 11.0176ZM17.7054 12.4821C19.078 12.7215 20.163 13.684 20.5713 15.0245C20.668 15.342 20.6779 15.432 20.6788 15.9996C20.6797 16.5732 20.6709 16.6539 20.5718 16.9765C19.7796 19.556 16.674 20.4162 14.7117 18.5998C14 17.9411 13.5906 17.0079 13.5868 16.0361C13.5849 15.5617 13.6337 15.2252 13.7564 14.8663C14.2494 13.4241 15.5811 12.4569 17.1129 12.4287C17.2551 12.4261 17.5217 12.4501 17.7054 12.4821ZM23.732 12.5406C25.044 12.8742 26.0734 13.9536 26.3553 15.2911C26.4325 15.6575 26.4281 16.3683 26.3465 16.7272C26.1442 17.6166 25.6723 18.3456 24.9509 18.883C24.6769 19.0872 24.0913 19.3661 23.732 19.4636C23.2904 19.5834 22.4576 19.5845 22.0233 19.466C21.7357 19.3874 21.1887 19.17 21.121 19.1073C21.1034 19.091 21.1847 18.9303 21.3017 18.7501C21.8741 17.8678 22.1205 17.0489 22.1233 16.0191C22.1261 14.9855 21.872 14.1226 21.3119 13.2632C21.1922 13.0795 21.0942 12.9213 21.0942 12.9117C21.0942 12.8263 21.9733 12.521 22.3838 12.4638C22.7487 12.413 23.3692 12.4484 23.732 12.5406ZM15.5226 20.7255C16.0235 20.898 16.5632 20.9856 17.1229 20.9853C17.7107 20.985 18.1326 20.9203 18.6955 20.7442L19.0909 20.6205L19.4771 20.8034C20.2216 21.156 20.7508 21.5348 21.2944 22.1045C21.9936 22.8373 22.4484 23.6858 22.7035 24.7336C22.8181 25.204 22.8232 25.2628 22.842 26.326L22.8615 27.43H17.1517H11.4419V26.4479C11.4419 25.304 11.4903 24.909 11.7145 24.2245C12.1573 22.8728 13.1011 21.7203 14.3296 21.031C14.5897 20.8851 15.1472 20.6316 15.21 20.6308C15.2298 20.6305 15.3705 20.6732 15.5226 20.7255ZM25.3087 20.8468C25.9052 21.1293 26.4154 21.4914 26.8997 21.976C27.5657 22.6423 27.9958 23.3402 28.2855 24.2245C28.5097 24.909 28.5582 25.304 28.5582 26.4479V27.43H26.4344H24.3106L24.2868 26.3651C24.2625 25.283 24.2199 24.8824 24.0609 24.2451C23.7859 23.1424 23.2261 22.0946 22.4474 21.2248C22.3264 21.0897 22.2274 20.9754 22.2274 20.9708C22.2274 20.9662 22.4735 20.9682 22.7743 20.9752C23.3834 20.9894 23.9331 20.9083 24.4357 20.7302C24.5921 20.6747 24.7572 20.6411 24.8219 20.6515C24.884 20.6615 25.1031 20.7494 25.3087 20.8468Z" fill="white"/>
</svg>
